<?xml version="1.0" standalone="no"?>
<!DOCTYPE svg PUBLIC "-//W3C//DTD SVG 1.1//EN" "http://www.w3.org/Graphics/SVG/1.1/DTD/svg11.dtd" >
<svg xmlns="http://www.w3.org/2000/svg">
<metadata></metadata>
<defs>
<font id="wasabibold" horiz-adv-x="778" >
<font-face units-per-em="2048" ascent="1536" descent="-512" />
<missing-glyph horiz-adv-x="409" />
<glyph unicode="&#xfb01;" horiz-adv-x="894" d="M45 748v184h88v47q0 137 105.5 244.5t253.5 107.5v-184q-66 0 -113 -48t-47 -108v-59h477v-932h-195v748h-282v-748h-199v748h-88zM592 1210q0 49 36 85t85 36q47 0 84 -35.5t37 -85.5q0 -51 -36 -87t-85 -36t-85 36t-36 87z" />
<glyph unicode="&#xfb02;" horiz-adv-x="897" d="M45 748v184h88v47q0 137 105.5 244.5t253.5 107.5h319v-1331h-152l-43 82v1065h-124q-66 0 -113 -48t-47 -108v-59h137v-184h-137v-748h-199v748h-88z" />
<glyph unicode="&#xfb03;" horiz-adv-x="1425" d="M45 748v184h88v47q0 137 105.5 244.5t253.5 107.5v-184q-66 0 -113 -48t-47 -108v-59h332v47q0 137 105 244.5t253 107.5v-184q-66 0 -113 -48t-47 -108v-59h477v-932h-194v748h-283v-748h-198v748h-332v-748h-199v748h-88zM1122 1210q0 49 36 85t85 36q47 0 84 -35.5 t37 -85.5q0 -51 -37 -87t-84 -36q-49 0 -85 36t-36 87z" />
<glyph unicode="&#xfb04;" horiz-adv-x="1427" d="M45 748v184h88v47q0 137 105.5 244.5t253.5 107.5v-184q-66 0 -113 -48t-47 -108v-59h332v47q0 137 105 244.5t253 107.5h319v-1331h-151l-43 82v1065h-125q-66 0 -113 -48t-47 -108v-59h137v-184h-137v-748h-198v748h-332v-748h-199v748h-88z" />
<glyph horiz-adv-x="2048" />
<glyph horiz-adv-x="2048" />
<glyph unicode="&#xd;" horiz-adv-x="409" />
<glyph unicode=" "  horiz-adv-x="409" />
<glyph unicode="&#x09;" horiz-adv-x="409" />
<glyph unicode="&#xa0;" horiz-adv-x="409" />
<glyph unicode="!" horiz-adv-x="540" d="M119 109q0 59 46 105t105 46q61 0 105.5 -45t44.5 -106.5t-44.5 -107.5t-105.5 -46q-59 0 -105 46t-46 108zM172 383v948h197v-948h-197z" />
<glyph unicode="&#x22;" horiz-adv-x="694" d="M57 1223q0 53 40 94t93 41q51 0 91.5 -41t40.5 -94l-91 -334h-84zM371 1223q0 53 42 94t95 41q51 0 91 -41t40 -94l-90 -334h-84z" />
<glyph unicode="#" horiz-adv-x="944" d="M57 420v186h162v133h-162v187h162v237h187v-237h133v237h186v-237h162v-187h-162v-133h162v-186h-162v-238h-186v238h-133v-238h-187v238h-162zM406 606h133v133h-133v-133z" />
<glyph unicode="$" horiz-adv-x="806" d="M139 944q0 117 57.5 190.5t153.5 100.5v96h185v-88q104 -35 190 -121l-135 -137q-61 74 -139 74q-47 0 -82 -31t-35 -84q0 -43 42 -90t101.5 -93t119.5 -98.5t102 -123t42 -150.5q0 -117 -57 -193.5t-149 -105.5v-90h-185v88q-109 35 -194 121l135 137q61 -74 141 -74 q47 0 81 32t34 85q0 45 -42 92t-101.5 92t-120 96.5t-102.5 123t-42 151.5z" />
<glyph unicode="%" horiz-adv-x="1603" d="M57 885v182q0 125 89.5 207t213.5 82q123 0 213.5 -83t90.5 -206v-182q0 -125 -90.5 -208t-213.5 -83q-125 0 -214 82t-89 209zM217 885q0 -57 45 -90t98.5 -33t96.5 32.5t43 90.5v182q0 55 -43 90t-96.5 35t-98.5 -35t-45 -90v-182zM326 0l759 1331h189l-762 -1331h-186 zM940 266v183q0 125 91 207.5t214 82.5t213 -82.5t90 -207.5v-183q0 -123 -90 -207t-213 -84t-214 84t-91 207zM1108 266q0 -57 42 -90t95 -33t96 33t43 90v183q0 57 -43 88.5t-96 31.5q-55 0 -96 -31.5t-41 -88.5v-183z" />
<glyph unicode="&#x26;" horiz-adv-x="1089" d="M47 313q0 152 70.5 253.5t191.5 183.5l-26 38q-102 139 -103 279q0 106 83 197.5t241 91.5q154 0 234.5 -100.5t80.5 -188.5q0 -35 -5 -60.5t-23.5 -70.5t-66.5 -98.5t-124 -108.5l-22 -20l190 -273q57 111 84 201l186 -57q-47 -170 -155 -312l127 -182l-164 -115 l-98 144q-160 -139 -340 -140q-150 0 -255.5 91.5t-105.5 246.5zM242 313q0 -66 50 -108.5t116 -42.5q119 0 233 108l-229 328q-170 -141 -170 -285zM377 1067q0 -66 67 -166l31 -41l25 17q123 86 123 190q0 31 -31 66.5t-88 35.5q-61 0 -94 -33.5t-33 -68.5z" />
<glyph unicode="'" horiz-adv-x="376" d="M57 1223q0 53 40 94t93 41q51 0 91.5 -41t40.5 -94l-91 -334h-84z" />
<glyph unicode="(" horiz-adv-x="350" d="M86 217v887q0 98 45 206.5t115 186.5l104 -55q-66 -143 -65 -336v-879q-1 -195 65 -340l-104 -55q-70 76 -115 182.5t-45 202.5z" />
<glyph unicode=")" horiz-adv-x="348" d="M0 -113q66 154 66 340v879q0 186 -66 336l102 55q70 -78 115 -186.5t45 -206.5v-887q0 -96 -45 -202.5t-115 -182.5z" />
<glyph unicode="*" horiz-adv-x="802" d="M27 995l53 166l239 -84l-6 254h174l-4 -254l238 84l55 -166l-246 -71l154 -203l-137 -103l-146 213l-145 -213l-139 103l155 203z" />
<glyph unicode="+" d="M57 575v185h238v239h188v-239h240v-185h-240v-241h-188v241h-238z" />
<glyph unicode="," horiz-adv-x="368" d="M53 109q0 53 40 94t93 41q51 0 91 -41t40 -94q0 -190 -149 -347l-21 7l23 206q-49 6 -83 44t-34 90z" />
<glyph unicode="-" d="M57 575v185h666v-185h-666z" />
<glyph unicode="." horiz-adv-x="368" d="M35 109q0 59 46 105t105.5 46t104.5 -46t45 -105q0 -61 -45 -107.5t-104.5 -46.5t-105.5 46t-46 108z" />
<glyph unicode="/" horiz-adv-x="735" d="M0 -57l547 1443h188l-545 -1443h-190z" />
<glyph unicode="0" horiz-adv-x="1056" d="M41 665.5q0 178.5 44 316.5t116.5 216t153.5 118t165 40t166 -40t154.5 -118t116.5 -216t44 -316.5t-44 -316.5t-116.5 -216t-154.5 -118t-166 -40t-165 40t-153.5 118t-116.5 216t-44 316.5zM236 665.5q0 -245.5 88 -375.5t196.5 -130t196.5 130t88 375.5t-88 375.5 t-196.5 130t-196.5 -130t-88 -375.5z" />
<glyph unicode="1" horiz-adv-x="540" d="M168 0v1331h197v-1331h-197z" />
<glyph unicode="2" horiz-adv-x="802" d="M39 1085q37 135 134 203t218 68q145 0 248.5 -91t103.5 -245q0 -88 -47 -178t-116 -167l-140 -152q-70 -75 -122 -161t-60 -165h475v-197h-629q-41 82 -41 193q0 96 50.5 197.5t122.5 183.5l142 161q71 78 121 153t50 132q0 63 -49 105t-111 42q-55 0 -104.5 -36.5 t-67.5 -102.5z" />
<glyph unicode="3" horiz-adv-x="845" d="M41 147l127 134q96 -119 225 -119q80 0 137.5 64.5t57.5 164.5q0 111 -50.5 170.5t-115.5 59.5q-61 0 -117 -39l-90 125q299 184 299 354q0 51 -29.5 85t-70.5 34q-47 0 -103.5 -34t-97.5 -97l-150 112q72 100 165.5 151.5t185.5 51.5q127 0 212 -81t85 -222 q0 -172 -129 -295q203 -111 202 -375q0 -190 -113.5 -303t-277.5 -113q-211 0 -352 172z" />
<glyph unicode="4" horiz-adv-x="995" d="M47 455q0 74 25.5 142.5t77 133t95.5 107.5t115 106q63 55 98.5 90t81.5 88.5t67.5 104.5t21.5 104h196q0 -86 -25.5 -160.5t-84 -147.5t-99.5 -113t-124 -113q-6 -4 -60.5 -51.5t-75 -70t-57.5 -66.5t-50 -86t-11 -85h362v348q123 113 197 222v-570h141v-196h-141v-242 h-197v242h-496q-57 125 -57 213z" />
<glyph unicode="5" horiz-adv-x="872" d="M39 96l131 146q70 -70 182 -70q106 0 183 80t77 231q0 121 -60 187.5t-140 66.5q-125 0 -176 -80l-146 97v577h596v-196h-399v-226q66 20 125 21q162 0 280.5 -116t118.5 -331q0 -248 -136 -378t-322.5 -130t-313.5 121z" />
<glyph unicode="6" horiz-adv-x="1005" d="M47 612q0 350 172 547t402 197q98 0 176 -35l-84 -180q-43 18 -92 18q-125 0 -228.5 -101.5t-138.5 -279.5q152 86 291 86q174 0 293.5 -109.5t119.5 -316.5q0 -119 -35.5 -208t-86 -136t-117 -75.5t-114.5 -36t-95 -7.5t-91 6.5t-117 43t-125 99t-91 189.5t-39 299z M242 575q4 -111 28.5 -192.5t55 -120.5t72.5 -61.5t64.5 -25.5t47.5 -3q33 0 66.5 8t79.5 33t75 82t29 143q0 115 -62.5 172.5t-152.5 57.5q-102 0 -303 -93z" />
<glyph unicode="7" horiz-adv-x="761" d="M20 1135v196h713q0 -211 -52 -363.5t-161 -342.5q-70 -127 -99.5 -185.5t-63 -184.5t-31.5 -255h-197q-2 137 37 283.5t79 230.5t105 205q139 264 178 416h-508z" />
<glyph unicode="8" horiz-adv-x="974" d="M47 375q0 260 225 377q-147 98 -147 256q0 166 109.5 257t257.5 91q145 0 250.5 -88t105.5 -250q0 -166 -154 -277q106 -59 167 -142t61 -212q0 -197 -128 -304.5t-309 -107.5q-178 0 -308 106.5t-130 293.5zM242 375q0 -96 72.5 -155.5t170.5 -59.5q96 0 168 61.5 t72 165.5q0 51 -20.5 92t-66.5 75t-74.5 50.5t-90.5 46.5q-231 -80 -231 -276zM319 1012q0 -57 49.5 -98.5t143.5 -84.5q135 68 135 191q0 70 -46 110.5t-109 40.5q-68 0 -120.5 -42.5t-52.5 -116.5z" />
<glyph unicode="9" horiz-adv-x="1005" d="M47 893q0 119 36 208t86 136t116.5 75.5t115 36t95.5 7.5t91 -6.5t116.5 -43t125 -99t91 -189.5t38.5 -299q0 -350 -172 -547t-399 -197q-96 0 -178 35l84 180q43 -18 94 -18q123 0 226.5 101.5t138.5 279.5q-150 -86 -291 -86q-174 0 -294 109.5t-120 316.5zM246 893 q0 -113 62.5 -171t152.5 -58q102 0 303 92q-4 111 -28.5 192.5t-55.5 120.5t-73 61.5t-64 25.5t-47 3q-33 0 -67 -8t-80 -32.5t-74.5 -82t-28.5 -143.5z" />
<glyph unicode=":" horiz-adv-x="368" d="M35 109q0 59 46 105t105.5 46t104.5 -46t45 -105q0 -61 -45 -107.5t-104.5 -46.5t-105.5 46t-46 108zM35 612.5q0 61.5 46 106.5t105.5 45t104.5 -45t45 -106.5t-45.5 -106.5t-104.5 -45q-61 0 -106 45t-45 106.5z" />
<glyph unicode=";" horiz-adv-x="368" d="M35 612.5q0 61.5 46 106.5t105.5 45t104.5 -45t45 -106.5t-45.5 -106.5t-104.5 -45q-61 0 -106 45t-45 106.5zM53 109q0 53 40 94t93 41q51 0 91 -41t40 -94q0 -190 -149 -347l-21 7l23 206q-49 6 -83 44t-34 90z" />
<glyph unicode="&#x3c;" horiz-adv-x="677" d="M57 547v166l392 315l126 -154l-309 -243l309 -244l-126 -154z" />
<glyph unicode="=" d="M57 418v184h666v-184h-666zM57 733v185h666v-185h-666z" />
<glyph unicode="&#x3e;" horiz-adv-x="677" d="M102 387l306 244l-306 243l123 154l396 -315v-166l-396 -314z" />
<glyph unicode="?" horiz-adv-x="903" d="M88 1018q-2 84 26.5 148.5t70.5 98t97.5 56t94.5 29t69 6.5q68 0 127.5 -16.5t117 -54.5t91 -110.5t33.5 -175.5q0 -82 -43 -168t-93 -147t-89 -143t-31 -158h-197q-23 84 13.5 175t91.5 157.5t103 145.5t48 138q0 86 -52 123t-120 37q-29 0 -62.5 -8t-70.5 -43t-32 -90 h-193zM307 109q0 59 46 105t106 46q61 0 106 -45t45 -106.5t-45 -107.5t-106 -46q-59 0 -105.5 46t-46.5 108z" />
<glyph unicode="@" horiz-adv-x="1308" d="M57 659q0 252 173 428.5t419 176.5q252 0 428 -176.5t176 -428.5q0 -246 -176 -418.5t-428 -172.5q-246 0 -419 172.5t-173 418.5zM207 659q0 -182 130 -312t312 -130q186 0 319.5 130t133.5 312q0 188 -132 321.5t-321 133.5q-182 0 -312 -133.5t-130 -321.5zM397 340 v451q0 100 73 170.5t179 70.5q104 0 177 -70.5t73 -170.5v-451h-149v143h-203v-143h-150zM547 623h203v168q0 39 -30 68.5t-71 29.5q-43 0 -72.5 -31t-29.5 -67v-168z" />
<glyph unicode="A" horiz-adv-x="925" d="M86 0v1036q0 125 93 222.5t283.5 97.5t285 -97.5t94.5 -222.5v-1036h-197v621h-364v-621h-195zM281 805h364v231q0 51 -44 92t-138 41q-92 0 -137 -42t-45 -91v-231z" />
<glyph unicode="B" horiz-adv-x="897" d="M86 0v1331h387q125 0 218 -99.5t93 -246.5q0 -141 -96 -260q164 -125 164 -315q0 -117 -41 -203t-106.5 -128t-131 -60.5t-133.5 -18.5h-354zM281 184h159q78 0 145.5 54.5t67.5 171.5q0 129 -116 190q-123 -63 -256 -90v-326zM281 700q158 39 231.5 120t73.5 165 q0 66 -39 114t-92 48h-174v-447z" />
<glyph unicode="C" horiz-adv-x="917" d="M49 666q0 172 60.5 327.5t184.5 259t284 103.5q145 0 319 -129l-113 -160q-117 94 -206 94q-104 0 -182.5 -74.5t-115 -185t-36.5 -235.5t36.5 -236t114.5 -185.5t183 -74.5q89 0 206 94l113 -160q-170 -129 -319 -129q-160 0 -284 103.5t-184.5 259.5t-60.5 328z" />
<glyph unicode="D" horiz-adv-x="929" d="M86 0v1331h178q127 0 228.5 -31.5t165 -76.5t109.5 -115t67.5 -126t34 -130t13.5 -107.5t1 -78.5t-1 -79t-13.5 -107.5t-34 -130t-67.5 -126t-109.5 -115t-165 -77t-228.5 -31.5h-178zM281 184h20q90 0 159.5 27t109.5 76t66 96t35 110.5t12 97.5t3 75t-3 74.5t-12 97 t-35 110.5t-66 96.5t-109.5 76t-159.5 26.5h-20v-963z" />
<glyph unicode="E" horiz-adv-x="811" d="M86 0v1331h623v-196h-428v-330h307v-184h-307v-424h479v-197h-674z" />
<glyph unicode="F" horiz-adv-x="737" d="M86 0v1331h623v-196h-428v-330h327v-184h-327v-621h-195z" />
<glyph unicode="G" horiz-adv-x="1021" d="M49 666q0 172 60.5 327.5t184.5 259t284 103.5q150 0 319 -129l-113 -160q-117 94 -206 94q-104 0 -182.5 -74.5t-115 -185t-36.5 -235.5t36.5 -236t114.5 -185.5t183 -74.5q83 0 161 49v395h197v-469q-72 -78 -171 -124t-187 -46q-160 0 -284 103.5t-184.5 259.5 t-60.5 328z" />
<glyph unicode="H" horiz-adv-x="925" d="M86 0v1331h195v-526h364v526h195v-1331h-195v621h-364v-621h-195z" />
<glyph unicode="I" horiz-adv-x="366" d="M86 0v1331h195v-1331h-195z" />
<glyph unicode="J" horiz-adv-x="643" d="M-12 94l114 148q86 -80 164 -80q47 0 77 42t30 97v1030h196v-1020q0 -135 -84 -235.5t-219 -100.5q-139 0 -278 119z" />
<glyph unicode="K" horiz-adv-x="911" d="M86 0v1331h195v-557q98 47 171.5 126t109.5 163t52.5 150.5t16.5 117.5h196q0 -125 -69.5 -302t-218.5 -306q150 -199 215 -347.5t104 -375.5h-203q-35 201 -91 333t-177 285q-12 -4 -49 -19t-57 -21v-578h-195z" />
<glyph unicode="L" horiz-adv-x="768" d="M86 0v1331h195v-1134h479v-197h-674z" />
<glyph unicode="M" horiz-adv-x="1257" d="M86 0v1026q0 125 85 227.5t237 102.5q131 0 223 -92q96 92 225 92q152 0 238 -102.5t86 -227.5v-1026h-197v1026q0 51 -35 97t-92 46q-59 0 -95 -46t-36 -97v-1026h-186v1026q0 51 -35 97t-96 46q-57 0 -92 -46t-35 -97v-1026h-195z" />
<glyph unicode="N" horiz-adv-x="923" d="M86 0v1331h152l41 -51q74 82 213 82q168 0 263 -102.5t95 -227.5v-1032h-199v1032q0 51 -41 91t-118 40q-129 0 -211 -100v-1063h-195z" />
<glyph unicode="O" horiz-adv-x="935" d="M86 328v676q0 135 101.5 243.5t281.5 108.5t281.5 -108.5t101.5 -243.5v-676q0 -135 -101.5 -244t-281.5 -109t-281.5 109t-101.5 244zM281 315q0 -59 49 -106t139 -47q86 0 135 48t49 105v701q0 57 -49 105t-135 48q-90 0 -139 -47t-49 -106v-701z" />
<glyph unicode="P" horiz-adv-x="813" d="M86 0v1331h330q37 0 73.5 -4t100 -27.5t109.5 -63.5t82 -121t36 -193q0 -405 -536 -455v-467h-195zM281 653q340 37 340 271q0 70 -25 119t-63.5 69.5t-66 27.5t-50.5 7h-135v-494z" />
<glyph unicode="Q" horiz-adv-x="935" d="M86 328v676q0 135 101.5 243.5t281.5 108.5t281.5 -108.5t101.5 -243.5v-676q0 -43 -18 -107l110 -57v-164h-162l-47 66q-106 -90 -266 -91q-180 0 -281.5 109t-101.5 244zM281 315q0 -59 49 -106t139 -47q88 0 141 49l-145 180l31 29l157 -94v690q0 57 -49 105t-135 48 q-90 0 -139 -47t-49 -106v-701z" />
<glyph unicode="R" horiz-adv-x="878" d="M86 0v1331h330q37 0 73.5 -4t100 -27.5t109.5 -63.5t82 -121t36 -191q0 -229 -170 -346q88 -129 135 -261.5t76 -316.5h-203q-47 303 -180 498q-80 -25 -194 -31v-467h-195zM281 653q340 37 340 271q0 70 -25 119t-63.5 69.5t-66 27.5t-50.5 7h-135v-494z" />
<glyph unicode="S" horiz-adv-x="811" d="M20 199l140 143q49 -82 116.5 -128t133.5 -46q76 0 131 51t55 141q0 53 -37 112.5t-75 97.5t-107 98q-84 76 -124 115.5t-80 114.5t-40 153q0 145 93 225t225 80q165 0 294 -139l-137 -138q-70 84 -157 84q-51 0 -87 -30.5t-36 -81.5q0 -47 47 -102.5t133 -131.5 q63 -55 103 -95t87 -99.5t70 -125t23 -137.5q0 -184 -113 -284.5t-268 -100.5q-106 0 -209 58.5t-181 165.5z" />
<glyph unicode="T" horiz-adv-x="765" d="M20 1135v196h725v-196h-264v-1135h-196v1135h-265z" />
<glyph unicode="U" horiz-adv-x="933" d="M86 299v1032h195v-1032q0 -49 43 -90t118 -41q127 0 209 100v1063h199v-1331h-154l-39 49q-80 -80 -215 -80q-168 0 -262 102.5t-94 227.5z" />
<glyph unicode="V" horiz-adv-x="909" d="M48 1096q0 21 1 42q3 72 3 133q0 31 -1 60h195q-1 -44 -1 -86q0 -84 3 -158q4 -111 24.5 -253t60.5 -250.5t115 -207t179 -151.5v1106h196v-1356q-160 20 -287.5 85t-207.5 157t-139.5 208t-84 237.5t-42.5 244.5q-14 99 -14 189z" />
<glyph unicode="W" horiz-adv-x="1263" d="M86 305v1026h195v-1026q0 -51 34.5 -97t92.5 -46q61 0 96 46t35 97v1026h186v-1026q0 -51 36 -97t95 -46q57 0 92 46t35 97v1026h197v-1026q0 -125 -86 -227.5t-238 -102.5q-133 0 -225 93q-88 -92 -223 -93q-152 0 -237 102.5t-85 227.5z" />
<glyph unicode="X" horiz-adv-x="1009" d="M49 0q0 137 25.5 247.5t78 195.5t100.5 140.5t124 125.5q-131 125 -205 265t-74 357h195q0 -176 55 -290.5t156 -213.5q102 98 158 213q53 111 53 279v12h194v-11q0 -209 -71 -346q-74 -140 -205 -265q76 -72 124 -125.5t101 -139.5t79 -196.5t26 -247.5h-197 q0 203 -69.5 339t-192.5 247q-121 -113 -190.5 -248t-69.5 -338h-195z" />
<glyph unicode="Y" horiz-adv-x="1036" d="M104 1231v80v20h195v-16v-13q0 -648 426 -776q94 309 94 805h197q0 -82 -3 -160.5t-16.5 -222t-37 -264.5t-71.5 -257t-112.5 -231.5t-166 -158t-226.5 -62.5q-104 0 -227 48l65 174q80 -33 162 -33q164 0 268 190q-88 29 -163.5 74t-128 94t-95.5 116t-68.5 122t-45 131 t-27.5 124t-13.5 117.5t-5.5 98.5z" />
<glyph unicode="Z" horiz-adv-x="792" d="M46 95q0 143 48 261q63 156 203 326q63 78 98 128t76 138t57 187h-419v196h616q2 -37 2 -72q0 -105 -14 -193q-18 -118 -68.5 -217t-86.5 -150.5t-107 -141.5q-59 -72 -86 -107.5t-62 -107t-49 -145.5h491v-197h-694q-5 49 -5 95z" />
<glyph unicode="[" horiz-adv-x="387" d="M94 -164v1659h293v-162h-98v-1335h98v-162h-293z" />
<glyph unicode="\" horiz-adv-x="735" d="M0 1386h188l547 -1443h-190z" />
<glyph unicode="]" horiz-adv-x="387" d="M0 -2h96v1335h-96v162h293v-1659h-293v162z" />
<glyph unicode="^" horiz-adv-x="794" d="M61 1044l248 312h174l250 -312l-149 -124l-189 227l-184 -227z" />
<glyph unicode="_" horiz-adv-x="665" d="M0 -160h666v-186h-666v186z" />
<glyph unicode="`" horiz-adv-x="608" d="M90 1124l53 172l379 -122l-41 -136z" />
<glyph unicode="a" horiz-adv-x="849" d="M49 303q0 133 93.5 213t228.5 80h194v80q0 41 -35.5 62.5t-91.5 21.5q-123 0 -272 -78l-94 164q174 100 366 100q147 0 237.5 -68.5t90.5 -213.5v-625q-156 -53 -326 -53t-280.5 73.5t-110.5 243.5zM244 303q0 -133 188 -133q37 0 133 14v224h-194q-53 0 -90 -28t-37 -77 z" />
<glyph unicode="b" horiz-adv-x="884" d="M86 39v1292h195v-436q90 51 196 51q150 0 255.5 -113.5t105.5 -324.5q0 -244 -137.5 -382t-352.5 -138q-121 0 -262 51zM281 186q25 -4 67 -4q127 0 210 87t83 239q0 115 -47 178.5t-117 63.5q-55 0 -108 -30t-88 -77v-457z" />
<glyph unicode="c" horiz-adv-x="784" d="M49 467q0 213 115 346t291 133q156 0 309 -102l-107 -156q-104 72 -202 72q-90 0 -150.5 -84t-60.5 -209t61.5 -210t149.5 -85q93 0 202 72l107 -158q-152 -98 -309 -98q-176 0 -291 133t-115 346z" />
<glyph unicode="d" horiz-adv-x="888" d="M49 492q0 201 109.5 327.5t300.5 126.5q65 0 147 -20v405h197v-1292q-135 -51 -289 -51q-213 0 -339 142t-126 362zM244 492q0 -127 68.5 -218.5t201.5 -91.5q27 0 92 8v539q-77 31 -147 31q-98 0 -156.5 -77t-58.5 -191z" />
<glyph unicode="e" horiz-adv-x="866" d="M49 467q0 215 106.5 347t282.5 132q174 0 276.5 -132t102.5 -347v-113h-563q45 -182 215 -182q106 0 242 78l92 -164q-168 -98 -332 -98q-184 0 -303 122.5t-119 356.5zM246 539h366q0 80 -45 150.5t-129 70.5q-76 0 -125 -60.5t-67 -160.5z" />
<glyph unicode="f" horiz-adv-x="530" d="M45 748v184h88v47q0 137 105.5 244.5t253.5 107.5v-184q-66 0 -113 -48t-47 -108v-59h160v-184h-160v-748h-199v748h-88z" />
<glyph unicode="g" horiz-adv-x="884" d="M47 -319l90 165q131 -79 237 -79h3q100 0 161.5 67.5t65.5 202.5q-78 -49 -196 -49q-164 0 -261.5 128t-97.5 351t97.5 351t261.5 128q109 0 198 -55l41 41h154v-871q0 -231 -121 -355t-303 -124q-164 1 -330 99zM244 467q0 -127 43 -206t121 -79q109 0 196 103v360 q-86 104 -196 105q-78 0 -121 -79t-43 -204z" />
<glyph unicode="h" horiz-adv-x="903" d="M86 0v1331h195v-446q92 61 198 61q141 0 240.5 -105.5t99.5 -242.5v-598h-196v612q0 57 -42 102.5t-102 45.5q-114 0 -198 -76v-684h-195z" />
<glyph unicode="i" horiz-adv-x="364" d="M61 1210q0 49 36 85t85 36q47 0 84 -35.5t37 -85.5q0 -51 -37 -87t-84 -36q-49 0 -85 36t-36 87zM84 0v932h195v-932h-195z" />
<glyph unicode="j" horiz-adv-x="364" d="M-29 -225q49 0 81 43t32 102v1012h195v-1002q0 -137 -86.5 -238.5t-221.5 -101.5v185zM61 1210q0 49 36 85t85 36q47 0 84 -35.5t37 -85t-37 -86.5t-84 -37q-49 0 -85 36t-36 87z" />
<glyph unicode="k" horiz-adv-x="798" d="M86 0v1331h195v-788q96 63 152 153t69 149q8 39 8 64q0 13 -2 23h199q1 -8 0 -16q0 -64 -40 -178q-46 -128 -159 -238q106 -82 174 -194.5t84 -186.5q15 -66 15 -109q0 -5 -1 -10h-196v8q0 30 -12 79q-14 56 -67.5 144t-142.5 148q-53 -25 -81 -41v-338h-195z" />
<glyph unicode="l" horiz-adv-x="366" d="M86 82v1249h195v-1331h-152z" />
<glyph unicode="m" horiz-adv-x="1214" d="M86 0v627q0 125 81 222t230 97q119 0 209 -80q94 80 213 80q147 0 229 -97t82 -222v-627h-196v627q0 51 -28.5 92t-86.5 41q-59 0 -89 -41t-30 -92v-627h-186v627q0 51 -29.5 92t-87.5 41q-59 0 -87.5 -41t-28.5 -92v-627h-195z" />
<glyph unicode="n" horiz-adv-x="903" d="M86 0v932h152l41 -53q93 67 197 67h3q141 0 240.5 -105.5t99.5 -242.5v-598h-196v612q0 57 -42 102.5t-102 45.5q-115 0 -198 -76v-684h-195z" />
<glyph unicode="o" horiz-adv-x="913" d="M49 467q0 213 115 346t291 133q180 0 294.5 -133t114.5 -346t-114.5 -346t-294.5 -133q-176 0 -291 133t-115 346zM244 467q0 -125 61.5 -210t149.5 -85q92 0 152.5 85t60.5 210t-60.5 209t-152.5 84q-90 0 -150.5 -84t-60.5 -209z" />
<glyph unicode="p" horiz-adv-x="884" d="M86 -410v1342h152l41 -43q86 57 198 57q150 0 255.5 -113.5t105.5 -324.5q0 -244 -137.5 -382t-352.5 -138q-45 0 -67 2v-400h-195zM281 186q25 -4 67 -4q127 0 210 87t83 239q0 115 -47 178.5t-117 63.5q-55 0 -108.5 -30t-87.5 -77v-457z" />
<glyph unicode="q" horiz-adv-x="886" d="M49 424q0 246 136.5 384t351.5 138q115 0 264 -53v-1303h-197v447q-84 -49 -196 -49q-150 0 -254.5 112.5t-104.5 323.5zM244 424q0 -115 48 -178.5t116 -63.5q53 0 108 30t88 73v458q-39 6 -67 7q-127 0 -210 -87.5t-83 -238.5z" />
<glyph unicode="r" horiz-adv-x="620" d="M86 0v932h152l41 -78q121 92 313 92v-186q-207 0 -311 -115v-645h-195z" />
<glyph unicode="s" horiz-adv-x="690" d="M49 184l178 78q31 -88 121 -88q96 0 96 49q0 57 -54 112.5t-117.5 96.5t-118 113.5t-54.5 161.5q0 125 78 182t187 57q166 0 260 -129l-152 -117q-39 57 -108 58q-68 0 -68 -51q0 -27 36 -63t87 -78t101 -90t86 -114.5t36 -138.5q0 -115 -88 -175t-207 -60q-98 0 -178 50 t-121 146z" />
<glyph unicode="t" horiz-adv-x="518" d="M20 748v184h89v223h196v-223h160v-184h-160v-416q0 -57 47 -102.5t113 -45.5v-184q-150 0 -253 103.5t-103 240.5v404h-89z" />
<glyph unicode="u" horiz-adv-x="903" d="M86 330v602h195v-615q0 -57 43 -101t102 -44q109 0 197 74v686h196v-932h-153l-39 51q-88 -63 -201 -63q-143 0 -241.5 103.5t-98.5 238.5z" />
<glyph unicode="v" horiz-adv-x="839" d="M29 932h194q0 -238 102.5 -409t231.5 -269v678h197v-944q-104 6 -226 73.5t-235 182t-188.5 297t-75.5 391.5z" />
<glyph unicode="w" horiz-adv-x="1212" d="M84 305v627h195v-627q0 -51 28.5 -92t87.5 -41q57 0 87 41t30 92v627h186v-627q0 -51 30 -92t89 -41q57 0 86 41t29 92v627h196v-627q0 -125 -80.5 -221t-230.5 -96q-125 0 -213 78q-84 -78 -209 -78q-150 0 -230.5 96t-80.5 221z" />
<glyph unicode="x" horiz-adv-x="854" d="M49 0q0 164 57.5 270.5t165.5 196.5q-111 98 -167 201.5t-56 263.5h195q0 -111 47 -187.5t137 -150.5q88 74 135 150.5t47 187.5h199q0 -160 -58.5 -263.5t-168.5 -201.5q109 -90 168 -196.5t59 -270.5h-199q0 115 -47 192.5t-135 151.5q-90 -74 -137 -151.5t-47 -192.5 h-195z" />
<glyph unicode="y" horiz-adv-x="858" d="M37 -319l92 165q127 -79 241 -79h3q98 0 159.5 67.5t63.5 204.5q-86 -51 -195 -51q-145 0 -243.5 103.5t-98.5 238.5v602h195v-615q0 -57 43 -101t104 -44q106 0 195 61v699h197v-871q0 -231 -120 -355t-302 -124q-162 0 -334 99z" />
<glyph unicode="z" horiz-adv-x="745" d="M49 53q0 83 21 153q27 91 76 156.5t103 119t113.5 121t94.5 134.5h-359v195h596v-16q0 -111 -27 -199q-30 -94 -80 -158.5t-102.5 -117t-109.5 -115.5t-88 -129h411v-197h-647q-2 27 -2 53z" />
<glyph unicode="{" horiz-adv-x="452" d="M70 657q92 162 92 467q0 113 52 235t132 210l100 -78q-35 -66 -52 -148.5t-19 -138t-2 -157.5v-33q0 -84 -41 -183.5t-99 -173.5q57 -76 98.5 -174t41.5 -180q0 -31 -2 -106.5t0 -104.5t8 -84t22 -101.5t45 -99.5l-100 -77q-80 86 -132 208.5t-52 233.5 q0 158 -17.5 270.5t-74.5 214.5z" />
<glyph unicode="|" horiz-adv-x="569" d="M186 -186v1704h197v-1704h-197z" />
<glyph unicode="}" horiz-adv-x="452" d="M6 -193q29 53 45.5 98.5t23.5 103t8 83t0 106.5t-1 105q0 82 40 180.5t95 173.5q-57 72 -96 172.5t-39 184.5q0 115 -2 170t-19.5 146t-54.5 161l100 78q80 -88 132.5 -210t52.5 -235q0 -305 92 -467q-92 -166 -92 -485q0 -113 -52.5 -234.5t-132.5 -207.5z" />
<glyph unicode="~" horiz-adv-x="790" d="M55 590q72 190 228 190q35 0 109.5 -29.5t101.5 -29.5q20 0 31.5 12t25.5 49l182 -73q-72 -186 -221 -187q-33 0 -107.5 30t-103.5 30q-23 0 -36 -13.5t-25 -52.5z" />
<glyph unicode="&#xa1;" horiz-adv-x="540" d="M119 757.5q0 61.5 45 106.5t104 45q61 0 106.5 -45t45.5 -106.5t-46 -106.5t-105.5 -45t-104.5 45t-45 106.5zM170 -467v948h197v-948h-197z" />
<glyph unicode="&#xa2;" horiz-adv-x="806" d="M57 666q0 170 79 295.5t210 166.5v103h184v-90q106 -14 226 -94l-109 -154q-102 68 -188 68q-90 0 -148.5 -86.5t-58.5 -209t58.5 -208.5t148.5 -86q86 0 188 67l109 -153q-119 -80 -226 -95v-90h-184v101q-133 41 -211 167t-78 298z" />
<glyph unicode="&#xa3;" horiz-adv-x="710" d="M0 0v197h94v807q0 133 82 230t215 97q125 0 260 -108l-114 -146q-84 70 -146 70q-45 0 -73.5 -40t-28.5 -93v-287h311v-184h-311v-346h366v-197h-655z" />
<glyph unicode="&#xa5;" horiz-adv-x="741" d="M57 879v452h195v-452q0 -51 33.5 -95.5t85.5 -44.5q53 0 85.5 44t32.5 96v452h197v-452q0 -98 -58.5 -188.5t-158.5 -125.5v-28h123v-185h-123v-55h123v-186h-123v-111h-197v111h-125v186h125v55h-125v185h125v28q-100 33 -157.5 123t-57.5 191z" />
<glyph unicode="&#xa6;" horiz-adv-x="569" d="M186 -186v772h197v-772h-197zM186 745v773h197v-773h-197z" />
<glyph unicode="&#xa7;" horiz-adv-x="698" d="M92 901q0 100 78 156.5t190 56.5q170 1 250 -153l-153 -84q-25 68 -97 67q-90 0 -90 -47q0 -43 35 -79t84 -65.5t98.5 -64.5t84 -90t34.5 -125q0 -117 -84 -178q92 -84 92 -207q0 -100 -76.5 -154.5t-191.5 -54.5q-170 0 -248 152l150 84q27 -68 117 -68q27 0 49 14.5 t22 32.5q0 51 -53 97.5t-115.5 78t-116 96t-53.5 150.5q0 113 86 180q-92 78 -92 205zM276 502q0 -29 36 -46.5t73 -17.5q45 0 45 49q0 29 -36 46.5t-70 17.5q-48 0 -48 -49z" />
<glyph unicode="&#xa8;" horiz-adv-x="677" d="M76 1149q-4 47 26.5 84t75.5 39q47 4 84 -28t39 -79q4 -45 -27.5 -79.5t-78.5 -38.5q-45 -4 -80 25.5t-39 76.5zM379 1149q-4 47 26.5 84t75.5 39q47 4 83 -28t40 -79q4 -45 -27.5 -79.5t-78.5 -38.5q-45 -4 -80 25.5t-39 76.5z" />
<glyph unicode="&#xa9;" horiz-adv-x="1308" d="M57 659q0 252 173 428.5t419 176.5q252 0 428 -176.5t176 -428.5q0 -246 -176 -418.5t-428 -172.5q-246 0 -419 172.5t-173 418.5zM207 659q0 -182 130 -312t312 -130q186 0 319.5 130t133.5 312q0 188 -132 321.5t-321 133.5q-182 0 -312 -133.5t-130 -321.5zM375 659 q0 147 75.5 243.5t194.5 96.5q94 0 207 -69l-84 -129q-74 47 -123 47q-51 0 -85 -53.5t-34 -135t34 -135t85 -53.5q47 0 123 49l84 -129q-106 -70 -207 -69q-119 0 -194.5 96t-75.5 241z" />
<glyph unicode="&#xaa;" horiz-adv-x="634" d="M53 883q0 100 68.5 158.5t169.5 58.5h143v59q0 57 -92 58q-96 0 -201 -56l-73 121q133 74 274 74q106 0 174 -50.5t68 -156.5v-463q-104 -39 -240 -39q-291 0 -291 236zM199 883q0 -99 137 -99q37 0 98 9v165h-143q-41 0 -66.5 -20t-25.5 -55z" />
<glyph unicode="&#xab;" horiz-adv-x="978" d="M57 473v172l310 244l125 -152l-228 -178l228 -176l-125 -154zM469 473v172l309 244l125 -152l-227 -178l227 -176l-125 -154z" />
<glyph unicode="&#xac;" d="M57 575v185h666v-426h-184v241h-482z" />
<glyph unicode="&#xad;" d="M57 575v185h666v-185h-666z" />
<glyph unicode="&#xae;" horiz-adv-x="1308" d="M57 659q0 252 173 428.5t419 176.5q252 0 428 -176.5t176 -428.5q0 -246 -176 -418.5t-428 -172.5q-246 0 -419 172.5t-173 418.5zM207 659q0 -182 130 -312t312 -130q186 0 319.5 130t133.5 312q0 188 -132 321.5t-321 133.5q-182 0 -312 -133.5t-130 -321.5zM410 334 v659h297q100 0 171.5 -70.5t71.5 -170.5q0 -76 -41 -136.5t-108 -89.5l119 -192h-183l-108 176h-68v-176h-151zM561 659h146q37 0 64.5 28t27.5 64.5t-28 63.5t-64 27h-146v-183z" />
<glyph unicode="&#xaf;" horiz-adv-x="681" d="M106 1059v153h465v-153h-465z" />
<glyph unicode="&#xb0;" horiz-adv-x="716" d="M57 1098q0 125 88 214t213 89t214.5 -89t89.5 -214q0 -127 -88.5 -216t-215.5 -89q-125 0 -213 89t-88 216zM207 1098q0 -63 44 -106.5t107 -43.5q61 0 106.5 44t45.5 105.5t-45 106.5t-107 45q-63 0 -107 -45t-44 -106z" />
<glyph unicode="&#xb1;" d="M57 0v184h666v-184h-666zM57 575v185h238v239h188v-239h240v-185h-240v-241h-188v241h-238z" />
<glyph unicode="&#xb4;" horiz-adv-x="608" d="M88 1174l381 122l51 -172l-393 -86z" />
<glyph unicode="&#xb6;" horiz-adv-x="1089" d="M94 741.5q0 108.5 34 188.5t79 120t107.5 63.5t99.5 27.5t71 4h236v-1145h-195v340h-41q-37 0 -72.5 4t-98 27.5t-107.5 62.5t-79 119t-34 188.5zM801 0v1145h194v-1145h-194z" />
<glyph unicode="&#xb7;" horiz-adv-x="368" d="M35 626.5q0 61.5 46 106.5t105.5 45t104.5 -45t45 -106.5t-45.5 -106.5t-104.5 -45q-61 0 -106 45t-45 106.5z" />
<glyph unicode="&#xb8;" horiz-adv-x="534" d="M84 -401l72 129q53 -27 88 -27q31 0 49 16.5t18 40.5q0 35 -42 57.5t-89 26.5v158h150v-61q55 -20 94 -67.5t39 -113.5q0 -84 -61.5 -146.5t-157.5 -62.5q-76 0 -160 50z" />
<glyph unicode="&#xba;" horiz-adv-x="708" d="M53 1001.5q0 157.5 85 256t216 98.5q133 0 217 -98.5t84 -256t-84 -256t-217 -98.5q-131 0 -216 98.5t-85 256zM199 1001.5q0 -92.5 44.5 -155t110.5 -62.5q68 0 112 62.5t44 155t-44 154t-112 61.5q-66 0 -110.5 -61.5t-44.5 -154z" />
<glyph unicode="&#xbb;" horiz-adv-x="978" d="M76 383l227 176l-227 178l125 152l311 -244v-172l-311 -244zM487 383l228 176l-228 178l127 152l310 -244v-172l-310 -244z" />
<glyph unicode="&#xbf;" horiz-adv-x="903" d="M90 -135q0 68 28.5 136.5t67.5 124.5l78 112q39 55 62.5 118.5t19.5 124.5h197q18 -70 -2.5 -141.5t-61.5 -132t-85 -117.5t-76.5 -116.5t-32.5 -108.5q0 -86 51 -123t123 -37q18 0 41.5 6t54.5 19.5t50.5 43t15.5 72.5h196q2 -82 -26.5 -146.5t-71.5 -99t-98.5 -56 t-93.5 -27.5t-68 -6q-68 0 -128.5 16t-116.5 54t-90 110.5t-34 173.5zM295 757.5q0 61.5 44 105.5t105.5 44t106.5 -44t45 -105.5t-46 -106.5t-106 -45q-61 0 -105 45t-44 106.5z" />
<glyph unicode="&#xc0;" horiz-adv-x="925" d="M86 0v1036q0 125 93 222.5t283.5 97.5t285 -97.5t94.5 -222.5v-1036h-197v621h-364v-621h-195zM244 1499l53 172l379 -123l-41 -135zM281 805h364v231q0 51 -44 92t-138 41q-92 0 -137 -42t-45 -91v-231z" />
<glyph unicode="&#xc1;" horiz-adv-x="925" d="M86 0v1036q0 125 93 222.5t283.5 97.5t285 -97.5t94.5 -222.5v-1036h-197v621h-364v-621h-195zM246 1548l381 123l51 -172l-393 -86zM281 805h364v231q0 51 -44 92t-138 41q-92 0 -137 -42t-45 -91v-231z" />
<glyph unicode="&#xc2;" horiz-adv-x="925" d="M86 0v1036q0 125 93 222.5t283.5 97.5t285 -97.5t94.5 -222.5v-1036h-197v621h-364v-621h-195zM209 1528l221 149h59l224 -149l-90 -121l-164 106l-160 -106zM281 805h364v231q0 51 -44 92t-138 41q-92 0 -137 -42t-45 -91v-231z" />
<glyph unicode="&#xc3;" horiz-adv-x="925" d="M86 0v1036q0 125 93 222.5t283.5 97.5t285 -97.5t94.5 -222.5v-1036h-197v621h-364v-621h-195zM193 1507q68 141 194 142q31 0 83 -23.5t69 -23.5q20 0 32.5 11t30.5 42l129 -74q-43 -80 -89 -108.5t-105 -28.5q-25 0 -77 25.5t-75 25.5q-36 0 -61 -57zM281 805h364v231 q0 51 -44 92t-138 41q-92 0 -137 -42t-45 -91v-231z" />
<glyph unicode="&#xc4;" horiz-adv-x="925" d="M86 0v1036q0 125 93 222.5t283.5 97.5t285 -97.5t94.5 -222.5v-1036h-197v621h-364v-621h-195zM197 1524q-4 47 26.5 84t75.5 39q47 4 84 -28t39 -79q4 -45 -28 -80t-79 -39q-45 -4 -79.5 26t-38.5 77zM281 805h364v231q0 51 -44 92t-138 41q-92 0 -137 -42t-45 -91v-231 zM500 1524q-4 47 26.5 84t75.5 39q47 4 83 -28t40 -79q4 -45 -27.5 -80t-79.5 -39q-45 -4 -79.5 26t-38.5 77z" />
<glyph unicode="&#xc5;" horiz-adv-x="925" d="M86 0v1036q0 86 45 164t139 119q-28 52 -28 111q0 92 64.5 156.5t154.5 64.5q92 0 156.5 -64.5t64.5 -156.5q0 -59 -29 -111q94 -41 141.5 -120t47.5 -163v-1036h-197v621h-364v-621h-195zM281 805h364v231q0 51 -44 92t-138 41q-92 0 -137 -42t-45 -91v-231zM391 1429.5 q0 -28.5 20.5 -48t49 -19.5t49 20.5t20.5 47t-20.5 47t-49 20.5t-49 -19.5t-20.5 -48z" />
<glyph unicode="&#xc6;" horiz-adv-x="1366" d="M86 0v1036q0 125 93 222.5t284 97.5q88 0 182 -25h623v-196h-426v-330h305v-184h-305v-424h477v-197h-674v621h-364v-621h-195zM281 805h364v231q0 51 -44 92t-138 41q-92 0 -137 -42t-45 -91v-231z" />
<glyph unicode="&#xc7;" horiz-adv-x="917" d="M49 666q0 172 60.5 327.5t184.5 259t284 103.5q145 0 319 -129l-113 -160q-117 94 -206 94q-104 0 -182.5 -74.5t-115 -185t-36.5 -235.5t36.5 -236t114.5 -185.5t183 -74.5q90 0 206 94l113 -160q-127 -100 -264 -124v-41q55 -20 94 -67.5t39 -113.5q0 -84 -62.5 -146.5 t-158.5 -62.5q-74 1 -160 50l74 129q53 -27 86 -27q31 0 50 16.5t19 40.5q0 35 -42 57.5t-91 26.5v144q-199 43 -315.5 240.5t-116.5 439.5z" />
<glyph unicode="&#xc8;" horiz-adv-x="811" d="M86 0v1331h623v-196h-428v-330h307v-184h-307v-424h479v-197h-674zM188 1499l54 172l379 -123l-41 -135z" />
<glyph unicode="&#xc9;" horiz-adv-x="811" d="M86 0v1331h623v-196h-428v-330h307v-184h-307v-424h479v-197h-674zM188 1548l381 123l52 -172l-394 -86z" />
<glyph unicode="&#xca;" horiz-adv-x="811" d="M86 0v1331h623v-196h-428v-330h307v-184h-307v-424h479v-197h-674zM154 1528l221 149h59l223 -149l-90 -121l-164 106l-159 -106z" />
<glyph unicode="&#xcb;" horiz-adv-x="811" d="M86 0v1331h623v-196h-428v-330h307v-184h-307v-424h479v-197h-674zM141 1524q-4 47 27 84t76 39q47 4 84 -28t39 -79q4 -45 -28 -80t-79 -39q-45 -4 -80 26t-39 77zM444.5 1524q-4.5 47 26.5 84t76 39q47 4 83 -28t40 -79q4 -45 -28 -80t-79 -39q-45 -4 -79.5 26t-39 77z " />
<glyph unicode="&#xcc;" horiz-adv-x="366" d="M-31 1499l54 172l378 -123l-41 -135zM86 0v1331h195v-1331h-195z" />
<glyph unicode="&#xcd;" horiz-adv-x="366" d="M-31 1548l381 123l51 -172l-393 -86zM86 0v1331h195v-1331h-195z" />
<glyph unicode="&#xce;" horiz-adv-x="366" d="M-68 1528l222 149h59l223 -149l-90 -121l-164 106l-159 -106zM86 0v1331h195v-1331h-195z" />
<glyph unicode="&#xcf;" horiz-adv-x="366" d="M-80 1524q-4 47 26.5 84t76.5 39q47 4 83.5 -28t38.5 -79q4 -45 -27.5 -80t-78.5 -39q-45 -4 -80 26t-39 77zM86 0v1331h195v-1331h-195zM223 1524q-4 47 27 84t76 39q47 4 82.5 -28t40.5 -79q4 -45 -28 -80t-79 -39q-45 -4 -80 26t-39 77z" />
<glyph unicode="&#xd0;" horiz-adv-x="929" d="M-2 567v185h88v579h178q127 0 228.5 -31.5t165 -76.5t109.5 -115t67.5 -126t34 -130t13.5 -107.5t1 -78.5t-1 -79t-13.5 -107.5t-34 -130t-67.5 -126t-109.5 -115t-165 -77t-228.5 -31.5h-178v567h-88zM281 184h2q403 4 403 482q0 481 -403 481h-2v-395h225v-185h-225 v-383z" />
<glyph unicode="&#xd1;" horiz-adv-x="923" d="M86 0v1331h152l41 -51q74 82 213 82q168 0 263 -102.5t95 -227.5v-1032h-199v1032q0 51 -41 91t-118 40q-129 0 -211 -100v-1063h-195zM190 1507q68 141 195 142q31 0 83 -23.5t69 -23.5q20 0 32.5 11t30.5 42l129 -74q-43 -80 -89 -108.5t-105 -28.5q-25 0 -77 25.5 t-75 25.5q-36 0 -61 -57z" />
<glyph unicode="&#xd2;" horiz-adv-x="935" d="M86 328v676q0 135 101.5 243.5t281.5 108.5t281.5 -108.5t101.5 -243.5v-676q0 -135 -101.5 -244t-281.5 -109t-281.5 109t-101.5 244zM250 1499l53 172l379 -123l-41 -135zM281 315q0 -59 49 -106t139 -47q86 0 135 48t49 105v701q0 57 -49 105t-135 48q-90 0 -139 -47 t-49 -106v-701z" />
<glyph unicode="&#xd3;" horiz-adv-x="935" d="M86 328v676q0 135 101.5 243.5t281.5 108.5t281.5 -108.5t101.5 -243.5v-676q0 -135 -101.5 -244t-281.5 -109t-281.5 109t-101.5 244zM252 1548l381 123l51 -172l-393 -86zM281 315q0 -59 49 -106t139 -47q86 0 135 48t49 105v701q0 57 -49 105t-135 48q-90 0 -139 -47 t-49 -106v-701z" />
<glyph unicode="&#xd4;" horiz-adv-x="935" d="M86 328v676q0 135 101.5 243.5t281.5 108.5t281.5 -108.5t101.5 -243.5v-676q0 -135 -101.5 -244t-281.5 -109t-281.5 109t-101.5 244zM215 1528l221 149h60l223 -149l-90 -121l-164 106l-160 -106zM281 315q0 -59 49 -106t139 -47q86 0 135 48t49 105v701q0 57 -49 105 t-135 48q-90 0 -139 -47t-49 -106v-701z" />
<glyph unicode="&#xd5;" horiz-adv-x="935" d="M86 328v676q0 135 101.5 243.5t281.5 108.5t281.5 -108.5t101.5 -243.5v-676q0 -135 -101.5 -244t-281.5 -109t-281.5 109t-101.5 244zM197 1507q68 141 194 142q31 0 83 -23.5t69 -23.5q20 0 32.5 11t30.5 42l129 -74q-43 -80 -89 -108.5t-105 -28.5q-25 0 -77 25.5 t-75 25.5q-36 0 -61 -57zM281 315q0 -59 49 -106t139 -47q86 0 135 48t49 105v701q0 57 -49 105t-135 48q-90 0 -139 -47t-49 -106v-701z" />
<glyph unicode="&#xd6;" horiz-adv-x="935" d="M86 328v676q0 135 101.5 243.5t281.5 108.5t281.5 -108.5t101.5 -243.5v-676q0 -135 -101.5 -244t-281.5 -109t-281.5 109t-101.5 244zM203 1524q-4 47 26.5 84t75.5 39q47 4 84 -28t39 -79q4 -45 -27.5 -80t-78.5 -39q-45 -4 -80 26t-39 77zM281 315q0 -59 49 -106 t139 -47q86 0 135 48t49 105v701q0 57 -49 105t-135 48q-90 0 -139 -47t-49 -106v-701zM506 1524q-4 47 26.5 84t75.5 39q47 4 83 -28t40 -79q4 -45 -27.5 -80t-78.5 -39q-45 -4 -80 26t-39 77z" />
<glyph unicode="&#xd7;" d="M88 496l168 170l-168 172l131 131l168 -172l170 172l133 -133l-172 -170l172 -170l-133 -129l-170 168l-168 -170z" />
<glyph unicode="&#xd8;" horiz-adv-x="935" d="M37 74l69 123q-20 59 -20 131v676q0 135 101.5 243.5t281.5 108.5q160 0 262 -90l41 71l133 -67l-76 -137q23 -68 23 -129v-676q0 -135 -101.5 -244t-281.5 -109q-154 0 -260 86l-35 -57zM281 512l350 580q-51 77 -162 77q-90 0 -139 -47t-49 -106v-504zM303 238 q51 -76 166 -76q86 0 135 48t49 105v500z" />
<glyph unicode="&#xd9;" horiz-adv-x="933" d="M86 299v1032h195v-1032q0 -49 43 -90t118 -41q127 0 209 100v1063h199v-1331h-154l-39 49q-80 -80 -215 -80q-168 0 -262 102.5t-94 227.5zM250 1499l53 172l379 -123l-41 -135z" />
<glyph unicode="&#xda;" horiz-adv-x="933" d="M86 299v1032h195v-1032q0 -49 43 -90t118 -41q127 0 209 100v1063h199v-1331h-154l-39 49q-80 -80 -215 -80q-168 0 -262 102.5t-94 227.5zM250 1548l381 123l51 -172l-393 -86z" />
<glyph unicode="&#xdb;" horiz-adv-x="933" d="M86 299v1032h195v-1032q0 -49 43 -90t118 -41q127 0 209 100v1063h199v-1331h-154l-39 49q-80 -80 -215 -80q-168 0 -262 102.5t-94 227.5zM213 1528l221 149h60l223 -149l-90 -121l-164 106l-160 -106z" />
<glyph unicode="&#xdc;" horiz-adv-x="933" d="M86 299v1032h195v-1032q0 -49 43 -90t118 -41q127 0 209 100v1063h199v-1331h-154l-39 49q-80 -80 -215 -80q-168 0 -262 102.5t-94 227.5zM201 1524q-4 47 26.5 84t75.5 39q47 4 84 -28t39 -79q4 -45 -27.5 -80t-79.5 -39q-45 -4 -79.5 26t-38.5 77zM504 1524 q-4 47 26.5 84t75.5 39q47 4 83 -28t40 -79q4 -45 -27.5 -80t-78.5 -39q-45 -4 -80 26t-39 77z" />
<glyph unicode="&#xdd;" horiz-adv-x="1036" d="M104 1231v80v20h195v-16q-4 -659 426 -789q94 309 94 805h197q0 -82 -3 -160.5t-16.5 -222t-37 -264.5t-71.5 -257t-112.5 -231.5t-166 -158t-226.5 -62.5q-104 0 -227 48l65 174q80 -33 162 -33q164 0 268 190q-88 29 -163.5 74t-128 94t-95.5 116t-68.5 122t-45 131 t-27.5 124t-13.5 117.5t-5.5 98.5zM301 1548l381 123l51 -172l-393 -86z" />
<glyph unicode="&#xde;" horiz-adv-x="813" d="M78 0v1331h194v-258h136q37 0 74.5 -4t101 -27.5t109.5 -63.5t81 -121t35 -191.5t-35 -191.5t-81 -121t-109.5 -63.5t-101.5 -27.5t-74 -4h-136v-258h-194zM272 442h136q23 0 50 7.5t66 28t63.5 69.5t24.5 118.5t-24.5 119t-63.5 69.5t-66.5 27.5t-49.5 7.5h-136v-447z " />
<glyph unicode="&#xdf;" horiz-adv-x="1052" d="M125 0v967q0 137 103.5 243.5t249 106.5t247.5 -106.5t102 -243.5v-185q-168 0 -168 -75q0 -27 36 -63t87.5 -78t102.5 -90t87 -114.5t36 -138.5q0 -115 -89.5 -175t-205.5 -60q-98 0 -179 50t-124 146l178 78q33 -88 125 -88q96 0 96 49q0 47 -36 91t-87 81t-102.5 78 t-87 101.5t-35.5 132.5q0 180 170 225v47q0 59 -46 106.5t-107.5 47.5t-107.5 -47.5t-46 -106.5v-979h-199z" />
<glyph unicode="&#xe0;" horiz-adv-x="849" d="M49 303q0 133 93.5 213t228.5 80h194v80q0 41 -35.5 62.5t-91.5 21.5q-123 0 -272 -78l-94 164q174 100 366 100q147 0 237.5 -68.5t90.5 -213.5v-625q-156 -53 -326 -53t-280.5 73.5t-110.5 243.5zM207 1124l53 172l379 -122l-41 -136zM244 303q0 -133 188 -133 q37 0 133 14v224h-194q-53 0 -90 -28t-37 -77z" />
<glyph unicode="&#xe1;" horiz-adv-x="849" d="M49 303q0 133 93.5 213t228.5 80h194v80q0 41 -35.5 62.5t-91.5 21.5q-123 0 -272 -78l-94 164q174 100 366 100q147 0 237.5 -68.5t90.5 -213.5v-625q-156 -53 -326 -53t-280.5 73.5t-110.5 243.5zM207 1174l381 122l51 -172l-393 -86zM244 303q0 -133 188 -133 q37 0 133 14v224h-194q-53 0 -90 -28t-37 -77z" />
<glyph unicode="&#xe2;" horiz-adv-x="849" d="M49 303q0 133 93.5 213t228.5 80h194v80q0 41 -35.5 62.5t-91.5 21.5q-123 0 -272 -78l-94 164q174 100 366 100q147 0 237.5 -68.5t90.5 -213.5v-625q-156 -53 -326 -53t-280.5 73.5t-110.5 243.5zM172 1153l221 150h60l223 -150l-90 -121l-164 107l-160 -107zM244 303 q0 -133 188 -133q37 0 133 14v224h-194q-53 0 -90 -28t-37 -77z" />
<glyph unicode="&#xe3;" horiz-adv-x="849" d="M49 303q0 133 93.5 213t228.5 80h194v80q0 41 -35.5 62.5t-91.5 21.5q-123 0 -272 -78l-94 164q174 100 366 100q147 0 237.5 -68.5t90.5 -213.5v-625q-156 -53 -326 -53t-280.5 73.5t-110.5 243.5zM154 1133q68 141 194 141q31 0 83 -23.5t69 -23.5q20 0 32.5 11 t30.5 42l129 -74q-43 -80 -89 -108.5t-105 -28.5q-25 0 -77 25.5t-75 25.5q-36 0 -61 -57zM244 303q0 -133 188 -133q37 0 133 14v224h-194q-53 0 -90 -28t-37 -77z" />
<glyph unicode="&#xe4;" horiz-adv-x="849" d="M49 303q0 133 93.5 213t228.5 80h194v80q0 41 -35.5 62.5t-91.5 21.5q-123 0 -272 -78l-94 164q174 100 366 100q147 0 237.5 -68.5t90.5 -213.5v-625q-156 -53 -326 -53t-280.5 73.5t-110.5 243.5zM160 1149q-4 47 26.5 84t75.5 39q47 4 84 -28t39 -79 q4 -45 -27.5 -79.5t-78.5 -38.5q-45 -4 -80 25.5t-39 76.5zM244 303q0 -133 188 -133q37 0 133 14v224h-194q-53 0 -90 -28t-37 -77zM463 1149q-4 47 26.5 84t75.5 39q47 4 83 -28t40 -79q4 -45 -27.5 -79.5t-78.5 -38.5q-45 -4 -80 25.5t-39 76.5z" />
<glyph unicode="&#xe5;" horiz-adv-x="849" d="M49 303q0 133 93.5 213t228.5 80h194v80q0 41 -35.5 62.5t-91.5 21.5q-123 0 -272 -78l-94 164q68 39 155 67q-26 50 -26 107q0 90 64.5 154.5t154.5 64.5q92 0 156.5 -64.5t64.5 -154.5q0 -53 -27 -107q152 -66 152 -249v-625q-156 -53 -326 -53t-280.5 73.5 t-110.5 243.5zM244 303q0 -133 188 -133q37 0 133 14v224h-194q-53 0 -90 -28t-37 -77zM350 1020q0 -29 20.5 -49.5t49.5 -20.5q27 0 48 20.5t21 49.5q0 27 -20 47t-49 20t-49.5 -19t-20.5 -48z" />
<glyph unicode="&#xe6;" horiz-adv-x="1396" d="M49 303q0 131 90 196.5t232 65.5h204q0 4 -2 32t-4 52.5t-2 22.5q0 88 -129 88q-123 0 -272 -78l-94 164q174 100 366 100q188 0 279 -108q113 109 268 108q160 0 262.5 -111.5t102.5 -326.5v-111h-572q27 -225 221 -225q113 0 242 78l92 -164q-168 -98 -332 -98 q-127 0 -223 57q-225 -59 -338 -59q-170 0 -280.5 73.5t-110.5 243.5zM244 303q0 -133 188 -133q61 0 197 31q-27 61 -49 180h-209q-127 0 -127 -78zM784 582h363q-43 178 -172 178q-68 0 -119.5 -46t-71.5 -132z" />
<glyph unicode="&#xe7;" horiz-adv-x="784" d="M49 467q0 213 115 346t291 133q156 0 309 -102l-107 -156q-104 72 -202 72q-90 0 -150.5 -84t-60.5 -209t61.5 -210t149.5 -85q94 0 202 72l107 -158q-123 -78 -227 -90v-57q55 -20 94 -67.5t39 -113.5q0 -84 -62.5 -146.5t-161.5 -62.5q-71 1 -157 50l76 129 q47 -27 81 -27q31 0 50.5 16.5t19.5 40.5q0 35 -41 57.5t-90 26.5v154q-150 23 -243 151.5t-93 319.5z" />
<glyph unicode="&#xe8;" horiz-adv-x="866" d="M49 467q0 215 106.5 347t282.5 132q174 0 276.5 -132t102.5 -347v-113h-563q45 -182 215 -182q106 0 242 78l92 -164q-168 -98 -332 -98q-184 0 -303 122.5t-119 356.5zM215 1124l53 172l379 -122l-41 -136zM246 539h366q0 80 -45 150.5t-129 70.5q-76 0 -125 -60.5 t-67 -160.5z" />
<glyph unicode="&#xe9;" horiz-adv-x="866" d="M49 467q0 215 106.5 347t282.5 132q174 0 276.5 -132t102.5 -347v-113h-563q45 -182 215 -182q106 0 242 78l92 -164q-168 -98 -332 -98q-184 0 -303 122.5t-119 356.5zM217 1174l381 122l51 -172l-393 -86zM246 539h366q0 80 -45 150.5t-129 70.5q-76 0 -125 -60.5 t-67 -160.5z" />
<glyph unicode="&#xea;" horiz-adv-x="866" d="M49 467q0 215 106.5 347t282.5 132q174 0 276.5 -132t102.5 -347v-113h-563q45 -182 215 -182q106 0 242 78l92 -164q-168 -98 -332 -98q-184 0 -303 122.5t-119 356.5zM180 1153l221 150h60l223 -150l-90 -121l-164 107l-160 -107zM246 539h366q0 80 -45 150.5 t-129 70.5q-76 0 -125 -60.5t-67 -160.5z" />
<glyph unicode="&#xeb;" horiz-adv-x="866" d="M49 467q0 215 106.5 347t282.5 132q174 0 276.5 -132t102.5 -347v-113h-563q45 -182 215 -182q106 0 242 78l92 -164q-168 -98 -332 -98q-184 0 -303 122.5t-119 356.5zM168 1149q-4 47 26.5 84t75.5 39q47 4 84 -28t39 -79q4 -45 -27.5 -79.5t-78.5 -38.5 q-45 -4 -80 25.5t-39 76.5zM246 539h366q0 80 -45 150.5t-129 70.5q-76 0 -125 -60.5t-67 -160.5zM471 1149q-4 47 26.5 84t75.5 39q47 4 83 -28t40 -79q4 -45 -27.5 -79.5t-78.5 -38.5q-45 -4 -80 25.5t-39 76.5z" />
<glyph unicode="&#xec;" horiz-adv-x="364" d="M-33 1124l53 172l379 -122l-41 -136zM84 0v932h195v-932h-195z" />
<glyph unicode="&#xed;" horiz-adv-x="364" d="M-33 1174l381 122l51 -172l-393 -86zM84 0v932h195v-932h-195z" />
<glyph unicode="&#xee;" horiz-adv-x="364" d="M-68 1153l222 150h59l223 -150l-90 -121l-164 107l-159 -107zM84 0v932h195v-932h-195z" />
<glyph unicode="&#xef;" horiz-adv-x="364" d="M-80 1149q-4 47 26.5 84t76.5 39q47 4 83.5 -28t38.5 -79q4 -45 -27.5 -79.5t-78.5 -38.5q-45 -4 -80 25.5t-39 76.5zM84 0v932h195v-932h-195zM223 1149q-4 47 27 84t76 39q47 4 82.5 -28t40.5 -79q4 -45 -28 -79.5t-79 -38.5q-45 -4 -80 25.5t-39 76.5z" />
<glyph unicode="&#xf0;" horiz-adv-x="929" d="M57 467q0 203 98.5 323.5t274.5 157.5l-61 92l-115 -73l-90 131l119 76l-52 77l164 111l51 -78l119 78l92 -133l-120 -80q156 -215 235.5 -365.5t89.5 -201t10 -115.5q0 -213 -114.5 -346t-294.5 -133q-176 0 -291 133t-115 346zM252 467q0 -125 61.5 -210t149.5 -85 q92 0 152.5 85t60.5 210q0 131 -62.5 213t-152.5 82t-149.5 -82t-59.5 -213z" />
<glyph unicode="&#xf1;" horiz-adv-x="903" d="M86 0v932h152l41 -53q94 68 200 67q141 0 240.5 -105.5t99.5 -242.5v-598h-196v612q0 57 -42 102.5t-102 45.5q-115 0 -198 -76v-684h-195zM182 1133q68 141 195 141q31 0 83 -23.5t68 -23.5q20 0 32.5 11t31.5 42l129 -74q-43 -80 -89 -108.5t-106 -28.5q-25 0 -77 25.5 t-74 25.5q-37 0 -62 -57z" />
<glyph unicode="&#xf2;" horiz-adv-x="913" d="M49 467q0 213 115 346t291 133q180 0 294.5 -133t114.5 -346t-114.5 -346t-294.5 -133q-176 0 -291 133t-115 346zM240 1124l53 172l379 -122l-41 -136zM244 467q0 -125 61.5 -210t149.5 -85q92 0 152.5 85t60.5 210t-60.5 209t-152.5 84q-90 0 -150.5 -84t-60.5 -209z " />
<glyph unicode="&#xf3;" horiz-adv-x="913" d="M49 467q0 213 115 346t291 133q180 0 294.5 -133t114.5 -346t-114.5 -346t-294.5 -133q-176 0 -291 133t-115 346zM240 1174l381 122l51 -172l-393 -86zM244 467q0 -125 61.5 -210t149.5 -85q92 0 152.5 85t60.5 210t-60.5 209t-152.5 84q-90 0 -150.5 -84t-60.5 -209z " />
<glyph unicode="&#xf4;" horiz-adv-x="913" d="M49 467q0 213 115 346t291 133q180 0 294.5 -133t114.5 -346t-114.5 -346t-294.5 -133q-176 0 -291 133t-115 346zM205 1153l221 150h59l224 -150l-91 -121l-163 107l-160 -107zM244 467q0 -125 61.5 -210t149.5 -85q92 0 152.5 85t60.5 210t-60.5 209t-152.5 84 q-90 0 -150.5 -84t-60.5 -209z" />
<glyph unicode="&#xf5;" horiz-adv-x="913" d="M49 467q0 213 115 346t291 133q180 0 294.5 -133t114.5 -346t-114.5 -346t-294.5 -133q-176 0 -291 133t-115 346zM186 1133q68 141 195 141q31 0 83 -23.5t68 -23.5q20 0 33 11t31 42l129 -74q-43 -80 -89 -108.5t-106 -28.5q-25 0 -77 25.5t-74 25.5q-37 0 -62 -57z M244 467q0 -125 61.5 -210t149.5 -85q92 0 152.5 85t60.5 210t-60.5 209t-152.5 84q-90 0 -150.5 -84t-60.5 -209z" />
<glyph unicode="&#xf6;" horiz-adv-x="913" d="M49 467q0 213 115 346t291 133q180 0 294.5 -133t114.5 -346t-114.5 -346t-294.5 -133q-176 0 -291 133t-115 346zM192.5 1149q-4.5 47 26.5 84t76 39q47 4 84 -28t39 -79q4 -45 -28 -79.5t-79 -38.5q-45 -4 -79.5 25.5t-39 76.5zM244 467q0 -125 61.5 -210t149.5 -85 q92 0 152.5 85t60.5 210t-60.5 209t-152.5 84q-90 0 -150.5 -84t-60.5 -209zM496 1149q-4 47 26.5 84t75.5 39q47 4 83 -28t40 -79q4 -45 -27.5 -79.5t-79.5 -38.5q-45 -4 -79.5 25.5t-38.5 76.5z" />
<glyph unicode="&#xf7;" d="M57 575v185h666v-185h-666zM254 406q0 53 41 94t94 41q51 0 91 -41t40 -94q0 -55 -39 -95.5t-92 -40.5t-94 40t-41 96zM254 928q0 53 41 93t94 40q51 0 91 -40t40 -93q0 -55 -39 -95t-92 -40t-94 39.5t-41 95.5z" />
<glyph unicode="&#xf8;" horiz-adv-x="913" d="M49 80l74 94q-74 121 -74 293q0 213 115 346t291 133q129 0 223 -69l49 61l129 -88l-70 -86q78 -127 78 -297q0 -213 -114.5 -346t-294.5 -133q-131 0 -232 75l-57 -71zM244 467q0 -63 16 -119l299 377q-47 35 -104 35q-90 0 -150.5 -84t-60.5 -209zM344 213 q48 -41 111 -41q92 0 152.5 85t60.5 210q0 59 -21 125z" />
<glyph unicode="&#xf9;" horiz-adv-x="903" d="M86 330v602h195v-615q0 -57 43 -101t102 -44q109 0 197 74v686h196v-932h-153l-39 51q-88 -63 -201 -63q-143 0 -241.5 103.5t-98.5 238.5zM233 1124l54 172l379 -122l-41 -136z" />
<glyph unicode="&#xfa;" horiz-adv-x="903" d="M86 330v602h195v-615q0 -57 43 -101t102 -44q109 0 197 74v686h196v-932h-153l-39 51q-88 -63 -201 -63q-143 0 -241.5 103.5t-98.5 238.5zM233 1174l381 122l52 -172l-394 -86z" />
<glyph unicode="&#xfb;" horiz-adv-x="903" d="M86 330v602h195v-615q0 -57 43 -101t102 -44q109 0 197 74v686h196v-932h-153l-39 51q-88 -63 -201 -63q-143 0 -241.5 103.5t-98.5 238.5zM199 1153l221 150h59l223 -150l-90 -121l-163 107l-160 -107z" />
<glyph unicode="&#xfc;" horiz-adv-x="903" d="M86 330v602h195v-615q0 -57 43 -101t102 -44q109 0 197 74v686h196v-932h-153l-39 51q-88 -63 -201 -63q-143 0 -241.5 103.5t-98.5 238.5zM184 1149q-4 47 27 84t76 39q47 4 84 -28t39 -79q4 -45 -28 -79.5t-79 -38.5q-45 -4 -80 25.5t-39 76.5zM487.5 1149 q-4.5 47 26.5 84t76 39q47 4 83 -28t40 -79q4 -45 -28 -79.5t-79 -38.5q-45 -4 -79.5 25.5t-39 76.5z" />
<glyph unicode="&#xfd;" horiz-adv-x="858" d="M37 -319l92 165q129 -80 244 -79q98 0 159.5 67.5t63.5 204.5q-86 -51 -195 -51q-145 0 -243.5 103.5t-98.5 238.5v602h195v-615q0 -57 43 -101t104 -44q106 0 195 61v699h197v-871q0 -231 -120 -355t-302 -124q-162 0 -334 99zM213 1174l381 122l51 -172l-393 -86z" />
<glyph unicode="&#xfe;" horiz-adv-x="884" d="M86 -410v1741h195v-436q90 51 196 51q150 0 255.5 -113.5t105.5 -324.5q0 -244 -137.5 -382t-352.5 -138q-45 0 -67 2v-400h-195zM281 186q25 -4 67 -4q127 0 210 87t83 239q0 115 -47 178.5t-117 63.5q-55 0 -108 -30t-88 -77v-457z" />
<glyph unicode="&#xff;" horiz-adv-x="858" d="M37 -319l92 165q129 -80 244 -79q98 0 159.5 67.5t63.5 204.5q-86 -51 -195 -51q-145 0 -243.5 103.5t-98.5 238.5v602h195v-615q0 -57 43 -101t104 -44q106 0 195 61v699h197v-871q0 -231 -120 -355t-302 -124q-162 0 -334 99zM164 1149q-4 47 26.5 84t75.5 39 q47 4 84 -28t39 -79q4 -45 -27.5 -79.5t-78.5 -38.5q-45 -4 -80 25.5t-39 76.5zM467 1149q-4 47 26.5 84t75.5 39q47 4 83 -28t40 -79q4 -45 -27.5 -79.5t-78.5 -38.5q-45 -4 -80 25.5t-39 76.5z" />
<glyph unicode="&#x152;" horiz-adv-x="1376" d="M86 328v676q0 135 101.5 243.5t281.5 108.5q111 0 184 -27v2h625v-196h-426v-330h303v-184h-303v-424h477v-197h-676v2q-74 -27 -184 -27q-180 0 -281.5 109t-101.5 244zM281 315q0 -59 49 -106t139 -47q88 0 136 48t48 107v697q0 59 -48 107t-136 48q-90 0 -139 -47 t-49 -106v-701z" />
<glyph unicode="&#x153;" horiz-adv-x="1490" d="M49 467q0 213 115 346t291 133q184 0 307 -135q117 135 299 135q176 0 279.5 -132t103.5 -347v-113h-567q49 -182 215 -182q111 0 241 78l92 -164q-172 -98 -331 -98q-205 0 -330 135q-119 -135 -309 -135q-176 0 -291 133t-115 346zM244 467q0 -125 61.5 -210t149.5 -85 q92 0 152.5 85t60.5 210q2 125 -58.5 209t-154.5 84q-90 0 -150.5 -84t-60.5 -209zM870 539h369q0 80 -46 150.5t-132 70.5q-76 0 -125.5 -60.5t-65.5 -160.5z" />
<glyph unicode="&#x178;" horiz-adv-x="1036" d="M104 1231v80v20h195v-16q-4 -659 426 -789q94 309 94 805h197q0 -82 -3 -160.5t-16.5 -222t-37 -264.5t-71.5 -257t-112.5 -231.5t-166 -158t-226.5 -62.5q-104 0 -227 48l65 174q80 -33 162 -33q164 0 268 190q-88 29 -163.5 74t-128 94t-95.5 116t-68.5 122t-45 131 t-27.5 124t-13.5 117.5t-5.5 98.5zM252 1524q-4 47 26.5 84t75.5 39q47 4 84 -28t39 -79q4 -45 -27.5 -80t-78.5 -39q-45 -4 -80 26t-39 77zM555 1524q-4 47 26.5 84t75.5 39q47 4 83 -28t40 -79q4 -45 -27.5 -80t-78.5 -39q-45 -4 -80 26t-39 77z" />
<glyph unicode="&#x2c6;" horiz-adv-x="681" d="M90 1153l221 150h60l223 -150l-90 -121l-164 107l-160 -107z" />
<glyph unicode="&#x2dc;" horiz-adv-x="712" d="M88 1133q68 141 195 141q31 0 83 -23.5t68 -23.5q20 0 32.5 11t31.5 42l129 -74q-43 -80 -89 -108.5t-106 -28.5q-25 0 -77 25.5t-74 25.5q-37 0 -62 -57z" />
<glyph unicode="&#x2000;" horiz-adv-x="838" />
<glyph unicode="&#x2001;" horiz-adv-x="1677" />
<glyph unicode="&#x2002;" horiz-adv-x="838" />
<glyph unicode="&#x2003;" horiz-adv-x="1677" />
<glyph unicode="&#x2004;" horiz-adv-x="559" />
<glyph unicode="&#x2005;" horiz-adv-x="419" />
<glyph unicode="&#x2006;" horiz-adv-x="279" />
<glyph unicode="&#x2007;" horiz-adv-x="279" />
<glyph unicode="&#x2008;" horiz-adv-x="209" />
<glyph unicode="&#x2009;" horiz-adv-x="335" />
<glyph unicode="&#x200a;" horiz-adv-x="93" />
<glyph unicode="&#x2010;" d="M57 575v185h666v-185h-666z" />
<glyph unicode="&#x2011;" d="M57 575v185h666v-185h-666z" />
<glyph unicode="&#x2012;" d="M57 575v185h666v-185h-666z" />
<glyph unicode="&#x2013;" horiz-adv-x="964" d="M57 575v185h852v-185h-852z" />
<glyph unicode="&#x2014;" horiz-adv-x="1337" d="M57 575v185h1225v-185h-1225z" />
<glyph unicode="&#x2018;" horiz-adv-x="376" d="M57 1014q0 193 148 344l20 -4l-22 -207q51 -6 85 -44t34 -89t-40 -92t-93.5 -41t-92.5 40t-39 93z" />
<glyph unicode="&#x2019;" horiz-adv-x="376" d="M57 1223q0 53 40 94t93 41q51 0 91.5 -41t40.5 -94q0 -190 -150 -342l-20 2l22 207q-49 6 -83 43.5t-34 89.5z" />
<glyph unicode="&#x201a;" horiz-adv-x="368" d="M53 109q0 53 40 94t93 41q51 0 91 -41t40 -94q0 -190 -149 -347l-21 7l23 206q-49 6 -83 44t-34 90z" />
<glyph unicode="&#x201c;" horiz-adv-x="724" d="M57 1014q0 193 148 344l20 -4l-22 -207q51 -6 85 -44t34 -89t-40 -92t-93.5 -41t-92.5 40t-39 93zM401 1014q0 188 152 344l20 -4l-20 -207q47 -6 83 -44t36 -89q0 -53 -41 -93t-94.5 -40t-94.5 40t-41 93z" />
<glyph unicode="&#x201d;" horiz-adv-x="724" d="M57 1223q0 53 40 94t93 41q51 0 91.5 -41t40.5 -94q0 -190 -150 -342l-20 2l22 207q-49 6 -83 43.5t-34 89.5zM401 1223q0 53 42 94t95.5 41t93.5 -41t40 -94q0 -190 -150 -342l-20 2l20 207q-49 6 -85 45t-36 88z" />
<glyph unicode="&#x201e;" horiz-adv-x="716" d="M53 109q0 53 40 94t93 41q51 0 91 -41t40 -94q0 -190 -149 -347l-21 7l23 206q-49 6 -83 44t-34 90zM397 109q0 53 42 94t95.5 41t93.5 -41t40 -94q0 -190 -150 -347l-20 7l20 206q-49 6 -85 44t-36 90z" />
<glyph unicode="&#x2022;" horiz-adv-x="489" d="M57 627q0 76 55.5 132t131 56t132 -55t56.5 -133q0 -80 -55 -135.5t-133 -55.5q-76 0 -131.5 55.5t-55.5 135.5z" />
<glyph unicode="&#x2026;" horiz-adv-x="1103" d="M35 109q0 59 46 105t105.5 46t104.5 -46t45 -105q0 -61 -45 -107.5t-104.5 -46.5t-105.5 46t-46 108zM403 108.5q0 61.5 45.5 106.5t106.5 45q59 0 103 -46t44 -105q0 -61 -44 -107.5t-103 -46.5q-61 0 -106.5 46t-45.5 107.5zM770 109q0 59 46 105t108 46q59 0 104 -46 t45 -105q0 -61 -45 -107.5t-104 -46.5q-61 0 -107.5 46t-46.5 108z" />
<glyph unicode="&#x202f;" horiz-adv-x="335" />
<glyph unicode="&#x2039;" horiz-adv-x="565" d="M57 473v172l310 244l125 -152l-228 -178l228 -176l-125 -154z" />
<glyph unicode="&#x203a;" horiz-adv-x="565" d="M76 383l227 176l-227 178l125 152l311 -244v-172l-311 -244z" />
<glyph unicode="&#x205f;" horiz-adv-x="419" />
<glyph unicode="&#x20ac;" horiz-adv-x="729" d="M57 666q0 45 1 78.5t13.5 107.5t34 130t66.5 126t108.5 115t164 76.5t227.5 31.5v-184q-293 0 -385 -232h350v-186h-385v-127h385v-186h-350q92 -231 385 -232v-184q-127 0 -227.5 31.5t-164 77t-108.5 115t-66.5 126t-34 130t-13.5 107.5t-1 79z" />
<glyph unicode="&#x2122;" horiz-adv-x="1505" d="M57 1155v176h451v-176h-137v-557h-176v557h-138zM547 598v463q0 111 68.5 202t201.5 91q113 0 180 -68q68 68 183 68q135 0 203.5 -90t68.5 -203v-463h-174v463q0 125 -98 125q-51 0 -74 -39t-23 -86v-463h-168v463q0 125 -98 125q-92 0 -92 -125v-463h-178z" />
<glyph unicode="&#x25fc;" horiz-adv-x="930" d="M0 0v930h930v-930h-930z" />
</font>
</defs>
</svg>
