<?xml version="1.0" standalone="no"?>
<!DOCTYPE svg PUBLIC "-//W3C//DTD SVG 1.1//EN" "http://www.w3.org/Graphics/SVG/1.1/DTD/svg11.dtd" >
<svg xmlns="http://www.w3.org/2000/svg">
<metadata></metadata>
<defs>
<font id="wasabibook" horiz-adv-x="778" >
<font-face units-per-em="2048" ascent="1536" descent="-512" />
<missing-glyph horiz-adv-x="409" />
<glyph unicode="&#xfb01;" horiz-adv-x="835" d="M59 815v117h95v82q0 127 88 222t217 95v-117q-76 0 -127 -58t-51 -134v-90h446v-932h-123v815h-323v-815h-127v815h-95zM578 1243q0 37 26.5 62.5t61 25.5t61.5 -25.5t27 -62.5t-27 -63.5t-61.5 -26.5t-61 26.5t-26.5 63.5z" />
<glyph unicode="&#xfb02;" horiz-adv-x="831" d="M59 815v117h95v82q0 127 88 222t217 95h266v-1331h-94l-29 55v1159h-143q-76 0 -127 -58t-51 -134v-90h155v-117h-155v-815h-127v815h-95z" />
<glyph unicode="&#xfb03;" horiz-adv-x="1331" d="M59 815v117h95v82q0 127 88 222t217 95v-117q-76 0 -127 -58t-51 -134v-90h368v82q0 127 88 222t217 95v-117q-76 0 -127 -58t-51 -134v-90h447v-932h-123v815h-324v-815h-127v815h-368v-815h-127v815h-95zM1073 1243q0 37 26.5 62.5t61.5 25.5t61.5 -25.5t26.5 -62.5 t-26.5 -63.5t-61.5 -26.5t-61.5 26.5t-26.5 63.5z" />
<glyph unicode="&#xfb04;" horiz-adv-x="1325" d="M59 815v117h95v82q0 127 88 222t217 95v-117q-76 0 -127 -58t-51 -134v-90h368v82q0 127 87 222t218 95h265v-1331h-95l-28 55v1159h-142q-78 0 -128 -58t-50 -134v-90h156v-117h-156v-815h-127v815h-368v-815h-127v815h-95z" />
<glyph horiz-adv-x="2048" />
<glyph horiz-adv-x="2048" />
<glyph unicode="&#xd;" horiz-adv-x="409" />
<glyph unicode=" "  horiz-adv-x="409" />
<glyph unicode="&#x09;" horiz-adv-x="409" />
<glyph unicode="&#xa0;" horiz-adv-x="409" />
<glyph unicode="!" horiz-adv-x="540" d="M199 75.5q0 26.5 21.5 49t49.5 22.5q27 0 48.5 -21.5t21.5 -50t-21.5 -50t-48.5 -21.5q-29 0 -50 22.5t-21 49zM207 344v987h125v-987h-125z" />
<glyph unicode="&#x22;" horiz-adv-x="561" d="M59 1253q0 41 28 70t67 29t66.5 -29t27.5 -70l-64 -258h-61zM313 1253q0 39 29 69t68 30t66.5 -29t27.5 -70l-64 -258h-61z" />
<glyph unicode="#" horiz-adv-x="944" d="M57 420v119h162v268h-162v119h162v237h119v-237h268v237h119v-237h162v-119h-162v-268h162v-119h-162v-238h-119v238h-268v-238h-119v238h-162zM338 539h268v268h-268v-268z" />
<glyph unicode="$" horiz-adv-x="806" d="M139 965q0 113 66.5 185.5t171.5 90.5v90h119v-86q131 -27 227 -123l-86 -88q-86 92 -197 92q-72 0 -125 -45t-53 -116q0 -57 49 -113.5t120 -106.5l141 -102q71 -53 120 -125t49 -153q0 -111 -70.5 -185t-174.5 -92v-88h-119v88q-129 23 -221 121l86 86q84 -90 190 -90 q76 0 131 45t55 115q0 59 -49 115.5t-119 105.5l-142 101q-71 52 -120 124t-49 154z" />
<glyph unicode="%" horiz-adv-x="1538" d="M57 885v182q0 125 89.5 207t213.5 82q123 0 213.5 -83t90.5 -206v-182q0 -125 -90.5 -208t-213.5 -83q-125 0 -214 82t-89 209zM162 885q0 -82 59.5 -132.5t138.5 -50.5q78 0 137.5 50.5t59.5 132.5v182q0 80 -59.5 131t-137.5 51q-80 0 -139 -51t-59 -131v-182zM326 0 l759 1331h121l-762 -1331h-118zM872 266v183q0 125 91.5 207.5t214 82.5t213 -82.5t90.5 -207.5v-183q0 -123 -90.5 -207t-213 -84t-214 84t-91.5 207zM981 266q0 -82 58.5 -132t138.5 -50q78 0 137 50t59 132v183q0 80 -59 131t-137 51q-80 0 -138.5 -50.5t-58.5 -131.5 v-183z" />
<glyph unicode="&#x26;" horiz-adv-x="1089" d="M72 299q0 147 77.5 247.5t217.5 192.5l-56 80q-100 147 -100 268q0 94 79 181.5t224 87.5q98 0 168 -53.5t95.5 -111.5t25.5 -104q0 -35 -4 -60.5t-21.5 -71.5t-63.5 -96t-120 -103l-57 -41l254 -365q80 119 118 232l119 -37q-51 -156 -166 -301l133 -189l-104 -73 l-115 163q-180 -170 -364 -170q-141 0 -240.5 88.5t-99.5 235.5zM195 299q0 -90 64.5 -147.5t152.5 -57.5q150 0 297 152l-277 397q-238 -168 -237 -344zM336 1087q0 -78 78 -196l57 -80l59 41q147 100 148 235q0 45 -42 97.5t-122 52.5q-86 0 -132 -49.5t-46 -100.5z" />
<glyph unicode="'" horiz-adv-x="305" d="M59 1253q0 41 28 70t67 29t66.5 -29t27.5 -70l-64 -258h-61z" />
<glyph unicode="(" horiz-adv-x="339" d="M86 217v887q0 98 45 206.5t115 186.5l69 -39q-102 -158 -102 -352v-883q0 -194 102 -352l-69 -39q-70 76 -115 182.5t-45 202.5z" />
<glyph unicode=")" horiz-adv-x="339" d="M27 -129q102 164 102 352v883q0 188 -102 352l67 39q70 -78 115 -186.5t45 -206.5v-887q0 -96 -45 -202.5t-115 -182.5z" />
<glyph unicode="*" horiz-adv-x="802" d="M33 1022l33 106l282 -96l-4 299h113l-2 -299l280 98l35 -108l-285 -88l179 -240l-91 -65l-172 243l-172 -243l-90 65l178 240z" />
<glyph unicode="+" d="M57 608v117h273v274h119v-274h274v-117h-274v-274h-119v274h-273z" />
<glyph unicode="," horiz-adv-x="317" d="M66 76q0 39 27.5 67.5t66.5 28.5t66.5 -28.5t27.5 -67.5q0 -141 -111 -269l-14 5l21 168q-37 4 -60.5 31.5t-23.5 64.5z" />
<glyph unicode="-" d="M57 608v117h666v-117h-666z" />
<glyph unicode="." horiz-adv-x="317" d="M90 75.5q0 28.5 21.5 50t48 21.5t48 -21.5t21.5 -50t-21.5 -50t-48 -21.5t-48 21.5t-21.5 50z" />
<glyph unicode="/" horiz-adv-x="667" d="M0 -57l547 1443h121l-545 -1443h-123z" />
<glyph unicode="0" horiz-adv-x="1056" d="M82 665.5q0 178.5 42 316.5t110.5 216t145.5 118t156.5 40t158.5 -40t147.5 -118t110.5 -216t42 -316.5t-42 -316.5t-110.5 -216t-147.5 -118t-158.5 -40t-156.5 40t-145.5 118t-110.5 216t-42 316.5zM205 665.5q0 -280.5 102.5 -426t229.5 -145.5q129 0 231 145.5 t102 426t-102 427t-231 146.5q-127 0 -229.5 -146.5t-102.5 -427z" />
<glyph unicode="1" horiz-adv-x="540" d="M215 0v1331h125v-1331h-125z" />
<glyph unicode="2" horiz-adv-x="802" d="M84 1137q43 109 131 164t193 55q137 0 239.5 -88t102.5 -232q0 -92 -58.5 -189t-139.5 -179l-161 -166q-80 -84 -130 -182.5t-38 -194.5h516v-125h-614q-35 84 -35 162q0 100 54.5 203.5t134.5 188.5l158 166q79 81 134.5 164t55.5 152q0 86 -67.5 142.5t-153.5 56.5 q-63 0 -121.5 -35.5t-87.5 -101.5z" />
<glyph unicode="3" horiz-adv-x="845" d="M84 117l80 86q113 -109 246 -109q106 0 183 78t77 203q0 115 -70 189.5t-182 74.5q-66 0 -127 -37l-60 80q356 209 357 399q0 74 -45 118t-111 44q-121 0 -225 -123l-94 72q141 168 319 168q121 0 201 -74t80 -205q0 -180 -224 -350q135 -14 220.5 -114.5t85.5 -241.5 q0 -182 -113 -291t-272 -109q-190 0 -326 142z" />
<glyph unicode="4" horiz-adv-x="995" d="M72 455q0 74 23.5 139t75.5 129.5t92 104.5t118 108q88 78 136 126t92 123t44 146h125q0 -76 -23.5 -142.5t-76.5 -132t-94 -106.5t-119 -108l-48 -43l-45 -40q-38 -34 -48 -46l-39 -45q-29 -33 -37 -51l-25 -50q-16 -33 -19 -57.5t-4 -56t5 -64.5h452v408q86 82 125 139 v-547h156v-125h-156v-264h-125v264h-536q-49 111 -49 191z" />
<glyph unicode="5" horiz-adv-x="872" d="M86 70l80 94q78 -63 199 -64q135 0 233 97.5t98 287.5q0 154 -79.5 237t-188.5 83q-125 0 -211 -84l-92 59v551h561v-125h-436v-323q76 45 178 45q160 0 276.5 -114t116.5 -329q0 -248 -135 -379t-321 -131q-166 0 -279 95z" />
<glyph unicode="6" horiz-adv-x="1005" d="M72 627q0 184 50 329.5t131 229.5t173 127t186 43q84 0 158 -35l-53 -113q-49 23 -105 23q-141 0 -264 -127t-145 -371q184 105 346 105q170 0 282.5 -111t112.5 -305q0 -127 -42 -220t-108.5 -139.5t-130 -67t-126.5 -20.5q-55 0 -110.5 14.5t-122 57.5t-116 111.5 t-83 189.5t-33.5 279zM197 602q2 -145 36.5 -250.5t90 -157t108 -73t105.5 -21.5q102 0 191 77t89 245q0 135 -75.5 213t-192.5 78q-156 0 -352 -111z" />
<glyph unicode="7" horiz-adv-x="761" d="M41 1206v125h690q0 -104 -17.5 -198.5t-61.5 -192.5t-65 -139l-79 -144q-66 -117 -101.5 -193.5t-69.5 -202.5t-36 -261h-125q6 338 225 717l86 156q29 54 66 151.5t49 181.5h-561z" />
<glyph unicode="8" horiz-adv-x="974" d="M74 356q0 250 272 394q-190 119 -190 276q0 154 103 242t243 88q137 0 234.5 -83t97.5 -235q0 -188 -199 -307q133 -76 206.5 -157.5t73.5 -204.5q0 -188 -123.5 -291t-295.5 -103t-297 101.5t-125 279.5zM197 356q0 -119 89 -190.5t210 -71.5q119 0 207 73t88 202 q0 53 -24 98t-78 87t-94 65.5t-122 66.5q-276 -125 -276 -330zM279 1028q0 -74 60 -126t179 -114q84 41 136.5 107t52.5 145q0 92 -60.5 145.5t-144.5 53.5q-88 0 -155.5 -58.5t-67.5 -152.5z" />
<glyph unicode="9" horiz-adv-x="1005" d="M72 909q0 127 42 220.5t108.5 139.5t130 66.5t126.5 20.5q55 0 110.5 -14.5t122 -57.5t116 -111.5t83 -189.5t33.5 -278q0 -184 -50 -330t-132 -230t-173 -127t-186 -43q-84 0 -157 35l53 115q53 -25 104 -25q141 0 264.5 127t145.5 371q-184 -104 -346 -104 q-170 0 -282.5 110.5t-112.5 304.5zM199 909q0 -135 75.5 -213t192.5 -78q152 0 352 111q-2 145 -38 250.5t-90 157t-106.5 73t-105.5 21.5q-102 0 -191 -77t-89 -245z" />
<glyph unicode=":" horiz-adv-x="317" d="M90 75.5q0 28.5 21.5 50t48 21.5t48 -21.5t21.5 -50t-21.5 -50t-48 -21.5t-48 21.5t-21.5 50zM90 649q0 27 20.5 48.5t49 21.5t49 -21.5t20.5 -48.5q0 -29 -20.5 -50t-49 -21t-49 21.5t-20.5 49.5z" />
<glyph unicode=";" horiz-adv-x="317" d="M66 76q0 39 27.5 67.5t66.5 28.5t66.5 -28.5t27.5 -67.5q0 -141 -111 -269l-14 5l21 168q-37 4 -60.5 31.5t-23.5 64.5zM90 649q0 27 20.5 48.5t49 21.5t49 -21.5t20.5 -48.5q0 -29 -20.5 -50t-49 -21t-49 21.5t-20.5 49.5z" />
<glyph unicode="&#x3c;" horiz-adv-x="612" d="M57 578v104l392 346l81 -96l-340 -301l340 -301l-81 -97z" />
<glyph unicode="=" d="M57 451v116h666v-116h-666zM57 766v117h666v-117h-666z" />
<glyph unicode="&#x3e;" horiz-adv-x="612" d="M84 330l338 301l-338 301l78 96l393 -346v-104l-393 -345z" />
<glyph unicode="?" horiz-adv-x="903" d="M104 1073q4 86 47.5 146.5t103.5 88t107.5 38t83.5 10.5q66 0 124.5 -15.5t113.5 -51.5t88 -106.5t33 -166.5q0 -78 -45 -164t-98.5 -152.5t-95.5 -163t-38 -192.5h-125q-12 102 28 205.5t96.5 172.5t104.5 150.5t48 143.5q0 117 -69.5 166t-164.5 49q-23 0 -52 -6 t-67 -20.5t-66 -49.5t-34 -82h-123zM393 75.5q0 26.5 22.5 49t49.5 22.5q29 0 49.5 -21.5t20.5 -50t-20.5 -50t-49.5 -21.5q-27 0 -49.5 22.5t-22.5 49z" />
<glyph unicode="@" horiz-adv-x="1308" d="M57 659q0 252 173 428.5t419 176.5q252 0 428 -176.5t176 -428.5q0 -246 -176 -418.5t-428 -172.5q-246 0 -419 172.5t-173 418.5zM156 659q0 -205 144 -349t349 -144q211 0 358.5 144.5t147.5 348.5q0 211 -147.5 358.5t-358.5 147.5q-205 0 -349 -147.5t-144 -358.5z M397 340v451q0 100 73 170.5t179 70.5q104 0 177 -70.5t73 -170.5v-451h-98v170h-305v-170h-99zM496 602h305v189q0 59 -44 103t-107.5 44t-108.5 -44t-45 -103v-189z" />
<glyph unicode="A" horiz-adv-x="931" d="M106 0v1057q0 115 90.5 207t270.5 92t270 -92.5t90 -206.5v-1057h-127l2 641h-473v-641h-123zM229 760h473v297q0 68 -58 124t-177 56t-178.5 -56t-59.5 -124v-297z" />
<glyph unicode="B" horiz-adv-x="903" d="M106 0v1331h361q121 0 209 -94t88 -231q0 -152 -121 -275q195 -123 195 -336q0 -115 -39 -196.5t-102.5 -122.5t-127 -58.5t-129.5 -17.5h-334zM229 119h211q102 0 186.5 64.5t84.5 211.5q0 166 -164 256q-135 -88 -318 -123v-409zM229 651q211 45 309.5 146.5 t98.5 208.5q0 84 -53 146t-127 62h-228v-563z" />
<glyph unicode="C" horiz-adv-x="913" d="M70 666q0 172 59 327.5t181 259t280 103.5q133 0 282 -105l-71 -102q-115 84 -211 84q-182 0 -289.5 -172t-107.5 -395q0 -141 44 -268.5t137 -213.5t216 -86q90 0 211 84l69 -102q-147 -104 -280 -105q-158 0 -280 103.5t-181 259.5t-59 328z" />
<glyph unicode="D" horiz-adv-x="937" d="M106 0v1331h148q127 0 228.5 -31.5t164 -76.5t108.5 -115t67.5 -126t33.5 -130t13 -107.5t1 -78.5t-1 -79t-13 -107.5t-33.5 -130t-67.5 -126t-108.5 -115t-164 -77t-228.5 -31.5h-148zM229 119h47q96 0 172 25.5t124.5 62.5t83 92t52 102.5t26.5 107.5t10 90t1 66.5 t-1 66.5t-10 91.5t-26.5 107.5t-52 102.5t-83 93t-124 62t-172.5 25.5h-47v-1095z" />
<glyph unicode="E" horiz-adv-x="800" d="M106 0v1331h580v-125h-457v-446h328v-119h-328v-516h510v-125h-633z" />
<glyph unicode="F" horiz-adv-x="716" d="M106 0v1331h580v-125h-457v-446h340v-119h-340v-641h-123z" />
<glyph unicode="G" horiz-adv-x="1036" d="M70 666q0 172 59 327.5t181 259t278 103.5q135 0 282 -105l-69 -102q-115 84 -213 84q-180 0 -287.5 -172t-107.5 -395q0 -141 44 -268.5t137 -213.5t214 -86q108 0 217 80v436h125v-483q-70 -74 -164 -115t-178 -41q-156 0 -278 103.5t-181 259.5t-59 328z" />
<glyph unicode="H" horiz-adv-x="931" d="M106 0v1331h123v-571h473v571h123v-1331h-123v641h-473v-641h-123z" />
<glyph unicode="I" horiz-adv-x="335" d="M106 0v1331h123v-1331h-123z" />
<glyph unicode="J" horiz-adv-x="620" d="M8 70l74 94q84 -70 164 -70q70 0 112.5 57.5t42.5 133.5v1046h125v-1040q0 -127 -77.5 -221.5t-202.5 -94.5q-121 1 -238 95z" />
<glyph unicode="K" horiz-adv-x="882" d="M106 0v1331h123v-612q121 47 213.5 128t141.5 170t72.5 168.5t23.5 145.5h125q0 -133 -76 -304t-235 -294q150 -180 229.5 -349t110.5 -384h-127q-59 379 -310 666q-100 -51 -168 -72v-594h-123z" />
<glyph unicode="L" horiz-adv-x="761" d="M106 0v1331h123v-1206h510v-125h-633z" />
<glyph unicode="M" horiz-adv-x="1284" d="M106 0v1049q0 117 80 212t222 95q158 0 237 -137q80 137 238 137q141 0 222 -95.5t81 -211.5v-1049h-125v1049q0 70 -48 129t-130 59t-130 -59.5t-48 -128.5v-1049h-119v1049q0 70 -48.5 129t-130 59t-130 -59.5t-48.5 -128.5v-1049h-123z" />
<glyph unicode="N" horiz-adv-x="927" d="M106 0v1331h97l24 -86q125 117 269 117q158 0 248 -96.5t90 -212.5v-1053h-127v1053q0 72 -55.5 127t-155.5 55q-136 0 -267 -127v-1108h-123z" />
<glyph unicode="O" horiz-adv-x="942" d="M106 307v717q0 125 97.5 228.5t269.5 103.5t268.5 -102.5t96.5 -229.5v-717q0 -127 -96.5 -229.5t-268.5 -102.5t-269.5 103.5t-97.5 228.5zM229 301q0 -80 64.5 -143.5t179.5 -63.5q111 0 174.5 63.5t63.5 143.5v729q0 80 -63.5 143.5t-174.5 63.5q-115 0 -179.5 -63.5 t-64.5 -143.5v-729z" />
<glyph unicode="P" horiz-adv-x="815" d="M106 0v1331h310q35 0 71.5 -5t96 -28.5t103.5 -62.5t78 -118t34 -183q-1 -392 -570 -451v-483h-123zM229 602q444 47 445 332q0 88 -32 149.5t-79 87t-82.5 34.5t-64.5 9h-187v-612z" />
<glyph unicode="Q" horiz-adv-x="942" d="M106 307v717q0 125 97.5 228.5t269.5 103.5t268.5 -102.5t96.5 -229.5v-717q0 -59 -29 -123l121 -80v-104h-103l-79 86q-104 -111 -275 -111q-172 0 -269.5 103.5t-97.5 228.5zM229 301q0 -80 64.5 -143.5t179.5 -63.5q123 0 195 82l-133 150l22 22l141 -96q13 22 13 49 v729q0 80 -63.5 143.5t-174.5 63.5q-115 0 -179.5 -63.5t-64.5 -143.5v-729z" />
<glyph unicode="R" horiz-adv-x="874" d="M106 0v1331h310q35 0 71.5 -5t96 -28.5t103.5 -62.5t78 -118t34 -183q0 -229 -197 -346q179 -264 232 -588h-127q-55 307 -215 539q-106 -43 -263 -56v-483h-123zM229 602q444 47 445 332q0 88 -32 149.5t-79 87t-82.5 34.5t-64.5 9h-187v-612z" />
<glyph unicode="S" horiz-adv-x="802" d="M41 166l88 90q117 -160 270 -160q96 0 167 64.5t71 181.5q0 66 -41 135.5t-84 112.5t-119 108q-84 76 -124 117t-81 112.5t-41 143.5q0 133 87.5 209t207.5 76q135 0 252 -109l-86 -88q-78 74 -166 74q-70 0 -120 -44t-50 -118q0 -61 53.5 -126.5t151.5 -151.5 q88 -76 139.5 -128.5t98.5 -141.5t47 -181q0 -176 -107.5 -271.5t-255.5 -95.5q-205 0 -358 191z" />
<glyph unicode="T" horiz-adv-x="768" d="M41 1206v125h686v-125h-281v-1206h-124v1206h-281z" />
<glyph unicode="U" horiz-adv-x="937" d="M106 279v1052h123v-1052q0 -70 56.5 -126.5t156.5 -56.5q138 0 265 127v1108h127v-1331h-99l-24 84q-131 -115 -269 -115q-158 0 -247 96.5t-89 213.5z" />
<glyph unicode="V" horiz-adv-x="915" d="M71 1221q0 52 1 110h123q-1 -42 -1 -80q0 -78 3 -144q4 -99 18 -230.5t48 -234.5t86 -206.5t137 -180.5t198 -120v1196h125v-1356q-150 27 -269.5 94.5t-196.5 151.5t-132 205t-82 226.5t-41 242.5t-16 228q-1 46 -1 98z" />
<glyph unicode="W" horiz-adv-x="1290" d="M106 283v1048h123v-1048q0 -70 48.5 -129.5t130 -59.5t130 59.5t48.5 129.5v1048h119v-1048q0 -70 48 -129.5t130 -59.5t130 59.5t48 129.5v1048h125v-1048q0 -117 -81 -212.5t-222 -95.5q-160 0 -238 138q-78 -137 -237 -138q-141 0 -221.5 95.5t-80.5 212.5z" />
<glyph unicode="X" horiz-adv-x="1015" d="M70 0q0 129 27.5 237.5t85 196.5t109.5 145.5t134 135.5q-147 141 -227 278t-82 338h125q0 -174 68.5 -295t197.5 -243q129 123 197.5 243.5t68.5 294.5h125q-2 -201 -82 -338t-227 -278q84 -80 134 -136.5t109.5 -145.5t87 -196.5t27.5 -236.5h-125q0 209 -83 352.5 t-232 284.5q-150 -141 -232.5 -284.5t-82.5 -352.5h-123z" />
<glyph unicode="Y" horiz-adv-x="1007" d="M82 1319v12h125q0 -63 1 -96t10 -122t26.5 -148.5t55.5 -145.5t91 -145.5t139 -116.5t195 -90q111 317 117 864h125q0 -88 -4.5 -171t-18.5 -226t-38.5 -263t-72 -254t-112 -226.5t-163.5 -154t-222 -61.5q-90 0 -186 33l40 113q68 -25 146 -25q217 0 342 260 q-123 37 -221.5 101.5t-158.5 131t-104 159t-66 161t-33 161.5t-12 137t-1 112z" />
<glyph unicode="Z" horiz-adv-x="794" d="M68 60q0 154 54 280q65 150 202 317l69 85q14 17 60.5 85t65 112t40 116.5t27.5 150.5h-453v125h576q1 -23 0 -44q0 -88 -13 -169q-16 -100 -37.5 -164.5t-70.5 -145.5t-77 -117l-91 -113q-100 -125 -154.5 -224.5t-66.5 -228.5h528v-125h-657q-2 30 -2 60z" />
<glyph unicode="[" horiz-adv-x="329" d="M94 -164v1659h236v-104h-113v-1450h113v-105h-236z" />
<glyph unicode="\" horiz-adv-x="667" d="M0 1386h121l547 -1443h-123z" />
<glyph unicode="]" horiz-adv-x="329" d="M0 -59h111v1450h-111v104h236v-1659h-236v105z" />
<glyph unicode="^" horiz-adv-x="739" d="M53 1044l262 312h107l264 -312l-96 -77l-221 256l-222 -256z" />
<glyph unicode="_" horiz-adv-x="665" d="M0 -160h666v-119h-666v119z" />
<glyph unicode="`" horiz-adv-x="608" d="M98 1155l35 111l375 -140l-29 -88z" />
<glyph unicode="a" horiz-adv-x="866" d="M70 289q0 127 89 202.5t218 75.5h258v123q0 137 -182 137q-133 0 -283 -69l-59 104q168 84 342 84q139 0 224 -63.5t85 -200.5v-651q-150 -45 -307 -45q-168 0 -276.5 70.5t-108.5 232.5zM193 289q0 -186 256 -187q71 1 186 21v323h-258q-78 0 -131 -42t-53 -115z" />
<glyph unicode="b" horiz-adv-x="907" d="M106 29v1302h123v-491q123 106 260 106q145 0 248 -112.5t103 -321.5q0 -246 -138.5 -385t-353.5 -139q-115 0 -242 41zM229 125q57 -14 119 -14q160 0 263.5 107.5t103.5 293.5q0 147 -65.5 228t-160.5 81q-70 0 -139.5 -40t-120.5 -103v-553z" />
<glyph unicode="c" horiz-adv-x="784" d="M70 467q0 213 112.5 346t288.5 133q139 0 272 -94l-69 -98q-101 73 -200 73h-3q-121 0 -199.5 -101t-78.5 -259t78.5 -259.5t199.5 -101.5q99 0 203 72l69 -98q-131 -92 -272 -92q-176 0 -288.5 133t-112.5 346z" />
<glyph unicode="d" horiz-adv-x="913" d="M70 494q0 201 107.5 326.5t297.5 125.5q86 0 207 -37v422h125v-1300q-135 -43 -272 -43q-213 0 -339 143t-126 363zM193 494q0 -162 90 -272.5t252 -110.5q55 0 147 16v657q-123 43 -207 43q-129 0 -205.5 -94t-76.5 -239z" />
<glyph unicode="e" horiz-adv-x="892" d="M70 467q0 215 104.5 347t278.5 132q170 0 270 -132t100 -347v-82h-624q18 -139 96 -209t190.5 -70t247.5 68l58 -104q-154 -82 -304 -82q-182 0 -299.5 122.5t-117.5 356.5zM195 502h497v8q0 132 -62 223q-64 94 -177 94q-111 0 -179.5 -89t-78.5 -236z" />
<glyph unicode="f" horiz-adv-x="495" d="M59 815v117h95v82q0 127 88 222t217 95v-117q-76 0 -127 -58t-51 -134v-90h178v-117h-178v-815h-127v815h-95z" />
<glyph unicode="g" horiz-adv-x="905" d="M70 467q0 219 94 349t254 130q133 0 260 -110l27 96h96v-869q0 -231 -119 -356t-299 -125q-149 0 -303 82l57 107q127 -70 246 -70q135 0 217 97q76 90 76 269v27q-119 -106 -258 -106q-160 0 -254 130t-94 349zM193 467q0 -158 60 -257t165 -99q68 0 138.5 39.5 t119.5 103.5v422q-49 63 -120 104t-138 41q-104 0 -164.5 -99t-60.5 -255z" />
<glyph unicode="h" horiz-adv-x="923" d="M106 0v1331h123v-477q139 92 263 92q137 0 232 -99t95 -229v-618h-125v627q0 80 -59.5 140t-142.5 60q-132 0 -263 -102v-725h-123z" />
<glyph unicode="i" horiz-adv-x="339" d="M82 1243q0 37 26.5 62.5t61.5 25.5t61.5 -25.5t26.5 -62.5t-26.5 -63.5t-61.5 -26.5t-61.5 26.5t-26.5 63.5zM109 0v932h122v-932h-122z" />
<glyph unicode="j" horiz-adv-x="339" d="M-43 -293q68 0 110 55.5t42 131.5v1038h124v-1032q0 -125 -76.5 -217.5t-199.5 -92.5v117zM82 1243q0 37 26.5 62.5t63.5 25.5q35 0 60.5 -25.5t25.5 -62.5t-25.5 -63.5t-60.5 -26.5q-37 0 -63.5 26.5t-26.5 63.5z" />
<glyph unicode="k" horiz-adv-x="788" d="M106 0v1331h123v-860q113 61 191 156.5t104.5 167t34.5 137.5h127q-8 -90 -60.5 -209t-158.5 -221q106 -78 177 -183.5t93.5 -179t28.5 -139.5h-125q-8 94 -69.5 213t-196.5 211q-63 -45 -146 -82v-342h-123z" />
<glyph unicode="l" horiz-adv-x="335" d="M106 55v1276h123v-1331h-94z" />
<glyph unicode="m" horiz-adv-x="1271" d="M106 0v643q0 119 77 211t220 92q156 0 232 -131q78 131 235 131q141 0 219 -92t78 -211v-643h-125v643q0 72 -44 128t-128 56t-129 -56t-45 -128v-643h-121v643q0 72 -44 128t-128 56q-86 0 -130 -56t-44 -128v-643h-123z" />
<glyph unicode="n" horiz-adv-x="923" d="M106 0v932h97l24 -82q139 96 265 96q137 0 232 -99t95 -229v-618h-125v627q0 80 -59.5 140t-142.5 60q-131 0 -263 -102v-725h-123z" />
<glyph unicode="o" horiz-adv-x="944" d="M70 467q0 213 112.5 346t286.5 133q178 0 291.5 -133t113.5 -346t-113.5 -346t-291.5 -133q-174 0 -286.5 133t-112.5 346zM193 467q0 -158 78.5 -259.5t197.5 -101.5q123 0 202 101.5t79 259.5t-79 259t-202 101q-119 0 -197.5 -101t-78.5 -259z" />
<glyph unicode="p" horiz-adv-x="907" d="M106 -410v1342h97l26 -96q120 110 258 110h2q145 0 248 -112.5t103 -321.5q0 -246 -138.5 -385t-353.5 -139q-53 0 -119 10v-408h-123zM229 125q57 -14 119 -14q160 0 263.5 107.5t103.5 293.5q0 147 -66 228t-160 81q-70 0 -139 -40t-121 -103v-553z" />
<glyph unicode="q" horiz-adv-x="907" d="M70 420q0 248 136 387t353 139q109 0 242 -43v-1313h-125v504q-119 -106 -258 -106q-145 0 -246.5 111.5t-101.5 320.5zM193 420q0 -147 66.5 -228t158.5 -81q68 0 139.5 41t118.5 102v553q-72 14 -117 14q-160 0 -263 -106.5t-103 -294.5z" />
<glyph unicode="r" horiz-adv-x="581" d="M106 0v932h97l24 -96q151 110 327 110h3v-119q-191 0 -328 -125v-702h-123z" />
<glyph unicode="s" horiz-adv-x="677" d="M70 139l112 54q47 -86 150 -87q63 0 108 34t45 85q0 53 -38.5 101.5t-95.5 87.5l-111 80q-55 41 -94.5 99t-39.5 128q0 113 73 169t171 56q127 0 213 -92l-94 -78q-49 49 -119 49q-47 0 -83 -27.5t-36 -76.5t59.5 -105.5t130.5 -103.5t130 -124t59 -163q0 -109 -82 -173 t-196 -64h-2q-179 0 -260 151z" />
<glyph unicode="t" horiz-adv-x="507" d="M45 815v117h94v223h125v-223h180v-117h-180v-496q0 -78 52 -139t128 -61v-119q-129 0 -217 99.5t-88 228.5v487h-94z" />
<glyph unicode="u" horiz-adv-x="923" d="M106 319v613h123v-621q0 -82 59.5 -143.5t147.5 -61.5q129 1 258 101v725h125v-932h-96l-25 82q-131 -94 -262 -94q-139 0 -234.5 99t-95.5 232z" />
<glyph unicode="v" horiz-adv-x="825" d="M29 932h125q0 -274 130 -479t310 -295v774h125v-944q-117 23 -237 98.5t-222 192t-166.5 288.5t-64.5 365z" />
<glyph unicode="w" horiz-adv-x="1269" d="M104 291v641h125v-641q0 -72 44 -128.5t128 -56.5t129 56.5t45 128.5v641h119v-641q0 -72 45 -128.5t129 -56.5t128 56.5t44 128.5v641h125v-641q0 -119 -78 -211t-219 -92q-158 0 -233 131q-78 -131 -234 -131q-143 0 -220 92t-77 211z" />
<glyph unicode="x" horiz-adv-x="864" d="M70 0q0 141 70.5 250.5t193.5 214.5q-125 109 -194.5 215t-69.5 252h123q0 -117 64.5 -206t176.5 -179q113 92 175.5 180t62.5 205h127q0 -145 -71 -252t-198 -215q125 -104 197 -214t72 -251h-127q0 111 -63.5 201t-174.5 186q-113 -98 -177 -188t-64 -199h-123z" />
<glyph unicode="y" horiz-adv-x="882" d="M74 -336l57 107q127 -70 248 -70q133 0 216 98q77 92 77 270v27q-126 -108 -256 -108h-2q-141 0 -235.5 99t-94.5 232v613h123v-621q0 -82 59.5 -143.5t147.5 -61.5q137 0 258 117v709h125v-869q0 -231 -120 -356t-300 -125q-150 0 -303 82z" />
<glyph unicode="z" horiz-adv-x="759" d="M72 0v12q0 110 37 204q39 99 101 170t125.5 133.5t121 137t78.5 152.5h-412v123h559v-22q0 -96 -33 -179q-37 -92 -98.5 -161.5t-126 -134t-122.5 -145.5t-83 -165h473v-125h-620z" />
<glyph unicode="{" horiz-adv-x="434" d="M76 657q92 162 92 467q0 113 52 235t132 210l66 -51q-117 -176 -117 -457q0 -217 -119 -404q119 -186 119 -409q0 -145 23.5 -253t93.5 -214l-66 -51q-80 86 -132 208.5t-52 233.5q0 158 -17.5 270.5t-74.5 214.5z" />
<glyph unicode="|" horiz-adv-x="497" d="M186 -186v1704h125v-1704h-125z" />
<glyph unicode="}" horiz-adv-x="434" d="M16 -219q119 186 119 467q0 227 117 409q-117 184 -117 404q0 272 -119 457l66 51q80 -88 132 -210t52 -235q0 -305 92 -467q-92 -166 -92 -485q0 -113 -52 -234.5t-132 -207.5z" />
<glyph unicode="~" horiz-adv-x="757" d="M66 625q66 141 188 141q37 0 114.5 -33t114.5 -33q61 0 92 68l115 -49q-63 -143 -194 -144q-43 0 -123 32t-109 32q-51 -1 -82 -64z" />
<glyph unicode="&#xa1;" horiz-adv-x="540" d="M199 788q0 29 21 50.5t48 21.5q29 0 50.5 -21.5t21.5 -50.5q0 -27 -21.5 -48t-50.5 -21q-27 0 -48 21.5t-21 47.5zM207 -467v987h125v-987h-125z" />
<glyph unicode="&#xa2;" horiz-adv-x="806" d="M57 665.5q0 190.5 91.5 314.5t234.5 155v96h117v-90q131 -6 256 -94l-70 -99q-111 78 -223 78q-121 0 -202 -99.5t-81 -261t81 -261t202 -99.5q113 0 223 78l70 -98q-129 -88 -256 -95v-90h-117v97q-145 31 -235.5 154.5t-90.5 314z" />
<glyph unicode="&#xa3;" horiz-adv-x="710" d="M0 0v125h94v879q0 133 82 230t215 97q125 0 260 -108l-73 -93q-104 84 -187 84q-78 0 -126 -61t-48 -143v-308h383v-118h-383v-459h438v-125h-655z" />
<glyph unicode="&#xa5;" horiz-adv-x="741" d="M57 879v452h123v-452q0 -74 49.5 -137.5t141.5 -63.5t141 63.5t49 137.5v452h125v-452q0 -104 -65.5 -198.5t-186.5 -115.5v-63h158v-119h-158v-121h158v-119h-158v-143h-125v143h-162v119h162v121h-162v119h162v63q-123 20 -187.5 113.5t-64.5 200.5z" />
<glyph unicode="&#xa6;" horiz-adv-x="497" d="M186 -186v772h125v-772h-125zM186 745v773h125v-773h-125z" />
<glyph unicode="&#xa7;" horiz-adv-x="698" d="M96 946q0 100 77 162.5t187 62.5q154 0 234 -129l-98 -55q-43 74 -136 74q-66 0 -107.5 -34t-41.5 -83q0 -51 38 -94t93 -78l111 -72q55 -37 93 -93t38 -124q0 -82 -47.5 -129t-118.5 -57q45 -35 64.5 -52.5t52 -53t47 -71.5t14.5 -79q0 -98 -76 -159.5t-188 -61.5 q-154 0 -232 125l95 57q47 -74 147 -74q57 0 98 34t41 83q0 51 -39 94t-93 78l-109 72q-55 37 -94.5 92t-39.5 125q0 80 47.5 126t118.5 60q-57 45 -85.5 70.5t-59.5 77t-31 106.5zM221 498q0 -49 45 -80t101 -31q41 0 72.5 27.5t31.5 77t-45 79t-98 29.5q-45 0 -76 -25.5 t-31 -76.5z" />
<glyph unicode="&#xa8;" horiz-adv-x="677" d="M123 1145q4 27 26.5 43t49.5 12q29 -6 45 -29.5t10 -50.5q-4 -27 -27.5 -42t-52.5 -11q-27 6 -42 28.5t-9 49.5zM426 1145q4 27 26.5 43t49.5 12q29 -6 45 -29.5t10 -50.5q-4 -27 -27.5 -42t-52.5 -11q-27 6 -42 28.5t-9 49.5z" />
<glyph unicode="&#xa9;" horiz-adv-x="1308" d="M57 659q0 252 173 428.5t419 176.5q252 0 428 -176.5t176 -428.5q0 -246 -176 -418.5t-428 -172.5q-246 0 -419 172.5t-173 418.5zM156 659q0 -205 144 -349t349 -144q211 0 358.5 144.5t147.5 348.5q0 211 -147.5 358.5t-358.5 147.5q-205 0 -349 -147.5t-144 -358.5z M375 659q0 147 75.5 243.5t194.5 96.5q94 0 207 -69l-53 -84q-84 55 -154 55q-76 0 -124 -68.5t-48 -173t48 -172t124 -67.5q68 0 152 55l55 -84q-106 -70 -207 -69q-119 0 -194.5 96t-75.5 241z" />
<glyph unicode="&#xaa;" horiz-adv-x="659" d="M66 852q0 96 67.5 154.5t167.5 58.5h199v96q0 104 -142 105q-104 0 -217 -52l-45 78q131 63 262 64q106 0 171 -49.5t65 -151.5v-500q-111 -35 -234 -34q-295 0 -294 231zM158 852q-1 -143 198 -143q72 0 144 16v250h-199q-61 0 -102 -33t-41 -90z" />
<glyph unicode="&#xab;" horiz-adv-x="978" d="M57 506v106l310 277l79 -96l-258 -234l258 -231l-79 -99zM469 506v106l309 277l80 -96l-258 -234l258 -231l-80 -99z" />
<glyph unicode="&#xac;" d="M57 608v117h666v-391h-117v274h-549z" />
<glyph unicode="&#xad;" d="M57 608v117h666v-117h-666z" />
<glyph unicode="&#xae;" horiz-adv-x="1308" d="M57 659q0 252 173 428.5t419 176.5q252 0 428 -176.5t176 -428.5q0 -246 -176 -418.5t-428 -172.5q-246 0 -419 172.5t-173 418.5zM156 659q0 -205 144 -349t349 -144q211 0 358.5 144.5t147.5 348.5q0 211 -147.5 358.5t-358.5 147.5q-205 0 -349 -147.5t-144 -358.5z M410 334v659h297q100 0 171.5 -70.5t71.5 -170.5q0 -82 -50 -145.5t-126 -86.5l146 -186h-121l-137 176h-154v-176h-98zM508 608h199q59 0 102 43t43 100.5t-43 100.5t-102 43h-199v-287z" />
<glyph unicode="&#xaf;" horiz-adv-x="681" d="M117 1059v98h448v-98h-448z" />
<glyph unicode="&#xb0;" horiz-adv-x="716" d="M57 1098q0 125 88 214t213 89t214.5 -89t89.5 -214q0 -127 -88.5 -216t-215.5 -89q-125 0 -213 89t-88 216zM156 1098q0 -86 59 -145.5t143 -59.5t144.5 59.5t60.5 145.5q0 84 -60.5 144.5t-144.5 60.5t-143 -60.5t-59 -144.5z" />
<glyph unicode="&#xb1;" d="M57 0v119h666v-119h-666zM57 608v117h273v274h119v-274h274v-117h-274v-274h-119v274h-273z" />
<glyph unicode="&#xb4;" horiz-adv-x="608" d="M102 1126l375 140l33 -111l-381 -117z" />
<glyph unicode="&#xb6;" horiz-adv-x="1017" d="M94 741.5q0 108.5 34 188.5t79 120t107.5 63.5t99.5 27.5t71 4h222v-1145h-123v340h-99q-37 0 -72.5 4t-98 27.5t-107.5 62.5t-79 119t-34 188.5zM801 0v1145h123v-1145h-123z" />
<glyph unicode="&#xb7;" horiz-adv-x="317" d="M90 626.5q0 28.5 20.5 49t49 20.5t49 -20.5t20.5 -49t-20.5 -49t-49 -20.5t-49 20.5t-20.5 49z" />
<glyph unicode="&#xb8;" horiz-adv-x="534" d="M111 -356l45 84q53 -27 88 -27q31 0 49 16.5t18 40.5q0 35 -42 57.5t-89 26.5v158h99v-92q53 -16 92 -55t39 -95q0 -63 -46.5 -109t-119.5 -46q-63 0 -133 41z" />
<glyph unicode="&#xba;" horiz-adv-x="745" d="M66 989q0 164 86 265.5t219 101.5q135 0 222 -101.5t87 -265.5t-87 -265t-222 -101q-133 0 -219 101t-86 265zM158 989q0 -121 61.5 -199.5t151.5 -78.5q94 0 155.5 78.5t61.5 199.5t-61.5 200t-155.5 79q-90 0 -151.5 -79t-61.5 -200z" />
<glyph unicode="&#xbb;" horiz-adv-x="978" d="M123 328l256 231l-256 234l78 96l311 -277v-106l-311 -277zM535 328l256 231l-256 234l79 96l310 -277v-106l-310 -277z" />
<glyph unicode="&#xbf;" horiz-adv-x="903" d="M100 -152q0 78 45 165t98.5 153.5t95.5 163t38 192.5h125q10 -84 -14.5 -167t-67.5 -148.5t-87 -124.5t-77 -120.5t-33 -113.5q0 -115 71 -165t165 -50q33 0 73.5 9.5t89 48.5t54.5 100h125q-4 -70 -35 -123t-71 -81.5t-90 -47t-85 -23.5t-61 -5q-66 0 -124.5 15 t-113.5 51t-88 105.5t-33 165.5zM371 790.5q0 28.5 20 49t49 20.5q27 0 48.5 -20.5t21.5 -49t-21.5 -50t-48.5 -21.5q-29 0 -49 21.5t-20 50z" />
<glyph unicode="&#xc0;" horiz-adv-x="931" d="M106 0v1057q0 115 90.5 207t270.5 92t270 -92.5t90 -206.5v-1057h-127l2 641h-473v-641h-123zM229 760h473v297q0 68 -58 124t-177 56t-178.5 -56t-59.5 -124v-297zM258 1540l35 111l375 -140l-29 -88z" />
<glyph unicode="&#xc1;" horiz-adv-x="931" d="M106 0v1057q0 115 90.5 207t270.5 92t270 -92.5t90 -206.5v-1057h-127l2 641h-473v-641h-123zM229 760h473v297q0 68 -58 124t-177 56t-178.5 -56t-59.5 -124v-297zM260 1511l375 140l33 -111l-381 -117z" />
<glyph unicode="&#xc2;" horiz-adv-x="931" d="M106 0v1057q0 115 90.5 207t270.5 92t270 -92.5t90 -206.5v-1057h-127l2 641h-473v-641h-123zM221 1497l221 174h39l224 -174q-60 -78 -60 -80l-184 146l-180 -146zM229 760h473v297q0 68 -58 124t-177 56t-178.5 -56t-59.5 -124v-297z" />
<glyph unicode="&#xc3;" horiz-adv-x="931" d="M106 0v1057q0 115 90.5 207t270.5 92t270 -92.5t90 -206.5v-1057h-127l2 641h-473v-641h-123zM209 1507q59 111 160 111q31 0 92 -28.5t88 -28.5q51 0 86 61l84 -47q-59 -115 -170 -115q-37 0 -98.5 30t-83.5 30q-41 -1 -72 -60zM229 760h473v297q0 68 -58 124t-177 56 t-178.5 -56t-59.5 -124v-297z" />
<glyph unicode="&#xc4;" horiz-adv-x="931" d="M106 0v1057q0 115 90.5 207t270.5 92t270 -92.5t90 -206.5v-1057h-127l2 641h-473v-641h-123zM229 760h473v297q0 68 -58 124t-177 56t-178.5 -56t-59.5 -124v-297zM246 1530q4 27 26.5 43t49.5 12q29 -6 45 -29.5t10 -50.5q-4 -27 -27.5 -42t-52.5 -11q-27 6 -42 28.5 t-9 49.5zM549 1530q4 27 26.5 43t49.5 12q29 -6 45 -29.5t10 -50.5q-4 -27 -27.5 -42t-52.5 -11q-27 6 -42 28.5t-9 49.5z" />
<glyph unicode="&#xc5;" horiz-adv-x="931" d="M106 0v1057q0 84 49.5 160.5t151.5 111.5q-53 63 -53 141q0 86 61.5 147.5t147.5 61.5q88 0 149.5 -61.5t61.5 -147.5q0 -80 -53 -139q102 -35 154 -112.5t52 -161.5v-1057h-127l2 641h-473v-641h-123zM229 760h473v297q0 68 -58 124t-177 56t-178.5 -56t-59.5 -124v-297 zM352 1470.5q0 -45.5 33 -78t78 -32.5t77.5 32.5t32.5 78t-32.5 77t-77.5 31.5t-78 -31.5t-33 -77z" />
<glyph unicode="&#xc6;" horiz-adv-x="1402" d="M106 0v1057q0 115 90.5 207t270.5 92q143 0 235 -82v57h580v-125h-455v-446h326v-119h-326v-516h508v-125h-635l2 641h-473v-641h-123zM229 760h473v297q0 68 -58 124t-177 56t-178.5 -56t-59.5 -124v-297z" />
<glyph unicode="&#xc7;" horiz-adv-x="913" d="M70 666q0 172 59 327.5t181 259t280 103.5q133 0 282 -105l-71 -102q-115 84 -211 84q-182 0 -289.5 -172t-107.5 -395q0 -141 44 -268.5t137 -213.5t216 -86q90 0 211 84l69 -102q-123 -86 -247 -103v-69q53 -16 92 -55t39 -95q0 -63 -47.5 -109t-120.5 -46 q-61 0 -133 41l47 84q53 -27 86 -27q31 0 50 16.5t19 40.5q0 35 -42 57.5t-91 26.5v140q-207 31 -329.5 232.5t-122.5 451.5z" />
<glyph unicode="&#xc8;" horiz-adv-x="800" d="M106 0v1331h580v-125h-457v-446h328v-119h-328v-516h510v-125h-633zM195 1540l34 111l375 -140l-29 -88z" />
<glyph unicode="&#xc9;" horiz-adv-x="800" d="M106 0v1331h580v-125h-457v-446h328v-119h-328v-516h510v-125h-633zM195 1511l374 140l33 -111l-381 -117z" />
<glyph unicode="&#xca;" horiz-adv-x="800" d="M106 0v1331h580v-125h-457v-446h328v-119h-328v-516h510v-125h-633zM158 1497l221 174h39l223 -174q-59 -78 -59 -80l-185 146l-180 -146z" />
<glyph unicode="&#xcb;" horiz-adv-x="800" d="M106 0v1331h580v-125h-457v-446h328v-119h-328v-516h510v-125h-633zM182 1530q4 27 26.5 43t49.5 12q29 -6 45 -29.5t10 -50.5q-4 -27 -27.5 -42t-52.5 -11q-27 6 -42 28.5t-9 49.5zM485 1530q4 27 27 43t49 12q29 -6 45.5 -29.5t9.5 -50.5q-4 -27 -27.5 -42t-51.5 -11 q-27 6 -42.5 28.5t-9.5 49.5z" />
<glyph unicode="&#xcc;" horiz-adv-x="335" d="M-35 1540l35 111l375 -140l-29 -88zM106 0v1331h123v-1331h-123z" />
<glyph unicode="&#xcd;" horiz-adv-x="335" d="M-35 1511l375 140l33 -111l-381 -117zM106 0v1331h123v-1331h-123z" />
<glyph unicode="&#xce;" horiz-adv-x="335" d="M-72 1497l222 174h38l224 -174q-60 -78 -60 -80l-184 146l-180 -146zM106 0v1331h123v-1331h-123z" />
<glyph unicode="&#xcf;" horiz-adv-x="335" d="M-47 1530q4 27 26.5 43t49.5 12q29 -6 45 -29.5t10 -50.5q-4 -27 -27.5 -42t-52.5 -11q-27 6 -42 28.5t-9 49.5zM106 0v1331h123v-1331h-123zM256 1530q4 27 26.5 43t49.5 12q29 -6 45 -29.5t10 -50.5q-4 -27 -27.5 -42t-52.5 -11q-27 6 -42 28.5t-9 49.5z" />
<glyph unicode="&#xd0;" horiz-adv-x="937" d="M-2 604v117h108v610h148q127 0 228.5 -31.5t164 -76.5t108.5 -115t67.5 -126t33.5 -130t13 -107.5t1 -78.5t-1 -79t-13 -107.5t-33.5 -130t-67.5 -126t-108.5 -115t-164 -77t-228.5 -31.5h-148v604h-108zM229 119h31q100 0 180 25.5t129 62.5t85 93t53.5 101t26.5 106.5 t10 90.5t1 68q0 543 -483 548h-33v-493h203v-117h-203v-485z" />
<glyph unicode="&#xd1;" horiz-adv-x="927" d="M106 0v1331h97l24 -86q125 117 269 117q158 0 248 -96.5t90 -212.5v-1053h-127v1053q0 72 -55.5 127t-155.5 55q-136 0 -267 -127v-1108h-123zM207 1507q59 111 160 111q31 0 92 -28.5t88 -28.5q51 0 86 61l84 -47q-59 -115 -170 -115q-35 0 -96.5 30t-85.5 30 q-41 -1 -72 -60z" />
<glyph unicode="&#xd2;" horiz-adv-x="942" d="M106 307v717q0 125 97.5 228.5t269.5 103.5t268.5 -102.5t96.5 -229.5v-717q0 -127 -96.5 -229.5t-268.5 -102.5t-269.5 103.5t-97.5 228.5zM229 301q0 -80 64.5 -143.5t179.5 -63.5q111 0 174.5 63.5t63.5 143.5v729q0 80 -63.5 143.5t-174.5 63.5q-115 0 -179.5 -63.5 t-64.5 -143.5v-729zM264 1540l35 111l375 -140l-29 -88z" />
<glyph unicode="&#xd3;" horiz-adv-x="942" d="M106 307v717q0 125 97.5 228.5t269.5 103.5t268.5 -102.5t96.5 -229.5v-717q0 -127 -96.5 -229.5t-268.5 -102.5t-269.5 103.5t-97.5 228.5zM229 301q0 -80 64.5 -143.5t179.5 -63.5q111 0 174.5 63.5t63.5 143.5v729q0 80 -63.5 143.5t-174.5 63.5q-115 0 -179.5 -63.5 t-64.5 -143.5v-729zM266 1511l375 140l33 -111l-381 -117z" />
<glyph unicode="&#xd4;" horiz-adv-x="942" d="M106 307v717q0 125 97.5 228.5t269.5 103.5t268.5 -102.5t96.5 -229.5v-717q0 -127 -96.5 -229.5t-268.5 -102.5t-269.5 103.5t-97.5 228.5zM227 1497l222 174h38l224 -174q-60 -78 -60 -80l-184 146l-180 -146zM229 301q0 -80 64.5 -143.5t179.5 -63.5q111 0 174.5 63.5 t63.5 143.5v729q0 80 -63.5 143.5t-174.5 63.5q-115 0 -179.5 -63.5t-64.5 -143.5v-729z" />
<glyph unicode="&#xd5;" horiz-adv-x="942" d="M106 307v717q0 125 97.5 228.5t269.5 103.5t268.5 -102.5t96.5 -229.5v-717q0 -127 -96.5 -229.5t-268.5 -102.5t-269.5 103.5t-97.5 228.5zM213 1507q59 111 160 111q31 0 92 -28.5t88 -28.5q51 0 86 61l84 -47q-59 -115 -170 -115q-37 0 -98.5 30t-83.5 30 q-41 -1 -72 -60zM229 301q0 -80 64.5 -143.5t179.5 -63.5q111 0 174.5 63.5t63.5 143.5v729q0 80 -63.5 143.5t-174.5 63.5q-115 0 -179.5 -63.5t-64.5 -143.5v-729z" />
<glyph unicode="&#xd6;" horiz-adv-x="942" d="M106 307v717q0 125 97.5 228.5t269.5 103.5t268.5 -102.5t96.5 -229.5v-717q0 -127 -96.5 -229.5t-268.5 -102.5t-269.5 103.5t-97.5 228.5zM229 301q0 -80 64.5 -143.5t179.5 -63.5q111 0 174.5 63.5t63.5 143.5v729q0 80 -63.5 143.5t-174.5 63.5q-115 0 -179.5 -63.5 t-64.5 -143.5v-729zM252 1530q4 27 26.5 43t49.5 12q29 -6 45 -29.5t10 -50.5q-4 -27 -27.5 -42t-52.5 -11q-27 6 -42 28.5t-9 49.5zM555 1530q4 27 26.5 43t49.5 12q29 -6 45 -29.5t10 -50.5q-4 -27 -27.5 -42t-52.5 -11q-27 6 -42 28.5t-9 49.5z" />
<glyph unicode="&#xd7;" d="M113 471l190 195l-190 194l82 84l192 -194l195 194l84 -84l-195 -194l195 -195l-84 -82l-195 193l-192 -193z" />
<glyph unicode="&#xd8;" horiz-adv-x="942" d="M96 18l60 121q-49 80 -50 168v717q0 125 97.5 228.5t269.5 103.5q145 0 244 -82l41 84l90 -37l-62 -125q52 -82 52 -172v-717q0 -127 -96.5 -229.5t-268.5 -102.5q-143 0 -244 80l-39 -78zM229 289l430 870q-67 78 -186 78q-115 0 -179.5 -63.5t-64.5 -143.5v-741z M283 168q70 -74 190 -74q111 0 174.5 63.5t63.5 143.5v739z" />
<glyph unicode="&#xd9;" horiz-adv-x="937" d="M106 279v1052h123v-1052q0 -70 56.5 -126.5t156.5 -56.5q138 0 265 127v1108h127v-1331h-99l-24 84q-131 -115 -269 -115q-158 0 -247 96.5t-89 213.5zM262 1540l35 111l375 -140l-29 -88z" />
<glyph unicode="&#xda;" horiz-adv-x="937" d="M106 279v1052h123v-1052q0 -70 56.5 -126.5t156.5 -56.5q138 0 265 127v1108h127v-1331h-99l-24 84q-131 -115 -269 -115q-158 0 -247 96.5t-89 213.5zM262 1511l375 140l33 -111l-381 -117z" />
<glyph unicode="&#xdb;" horiz-adv-x="937" d="M106 279v1052h123v-1052q0 -70 56.5 -126.5t156.5 -56.5q138 0 265 127v1108h127v-1331h-99l-24 84q-131 -115 -269 -115q-158 0 -247 96.5t-89 213.5zM225 1497l221 174h39l224 -174q-60 -78 -60 -80l-184 146l-180 -146z" />
<glyph unicode="&#xdc;" horiz-adv-x="937" d="M106 279v1052h123v-1052q0 -70 56.5 -126.5t156.5 -56.5q138 0 265 127v1108h127v-1331h-99l-24 84q-131 -115 -269 -115q-158 0 -247 96.5t-89 213.5zM250 1530q4 27 26.5 43t49.5 12q29 -6 45 -29.5t10 -50.5q-4 -27 -27.5 -42t-52.5 -11q-27 6 -42 28.5t-9 49.5z M553 1530q4 27 26.5 43t49.5 12q29 -6 45 -29.5t10 -50.5q-4 -27 -27.5 -42t-52.5 -11q-27 6 -42 28.5t-9 49.5z" />
<glyph unicode="&#xdd;" horiz-adv-x="1007" d="M82 1319v12h125q0 -63 1 -96t10 -122t26.5 -148.5t55.5 -145.5t91 -145.5t139 -116.5t195 -90q111 317 117 864h125q0 -88 -4.5 -171t-18.5 -226t-38.5 -263t-72 -254t-112 -226.5t-163.5 -154t-222 -61.5q-90 0 -186 33l40 113q68 -25 146 -25q217 0 342 260 q-123 37 -221.5 101.5t-158.5 131t-104 159t-66 161t-33 161.5t-12 137t-1 112zM297 1511l375 140l33 -111l-381 -117z" />
<glyph unicode="&#xde;" horiz-adv-x="813" d="M117 0v1331h125v-268h184q35 0 72 -5t96 -28.5t104 -62.5t78 -118t33 -183.5t-33 -183.5t-78 -117.5t-104 -62t-96 -29t-72 -5.5h-184v-268h-125zM242 387h184q29 0 63.5 9.5t83 34t80 86t31.5 149.5t-31.5 149.5t-80 86t-83 33.5t-63.5 9h-184v-557z" />
<glyph unicode="&#xdf;" horiz-adv-x="1032" d="M129 0v1034q0 127 91 222.5t226.5 95.5t225.5 -95.5t90 -222.5v-194q-84 0 -130 -32t-46 -87q0 -41 39 -84t95 -84l113 -86q56 -45 95 -108.5t39 -133.5q0 -109 -83 -173t-196 -64q-182 0 -264 151l111 54q51 -86 153 -87q61 0 106.5 34t45.5 85q0 53 -39 101.5t-94 87.5 l-112 80q-56 41 -95 99t-39 128q0 92 50 146.5t126 70.5v104q0 76 -54.5 134.5t-136 58.5t-136 -58.5t-54.5 -134.5v-1042h-127z" />
<glyph unicode="&#xe0;" horiz-adv-x="866" d="M70 289q0 127 89 202.5t218 75.5h258v123q0 137 -182 137q-133 0 -283 -69l-59 104q168 84 342 84q139 0 224 -63.5t85 -200.5v-651q-150 -45 -307 -45q-168 0 -276.5 70.5t-108.5 232.5zM193 289q0 -186 256 -187q71 1 186 21v323h-258q-78 0 -131 -42t-53 -115z M227 1155l35 111l375 -140l-29 -88z" />
<glyph unicode="&#xe1;" horiz-adv-x="866" d="M70 289q0 127 89 202.5t218 75.5h258v123q0 137 -182 137q-133 0 -283 -69l-59 104q168 84 342 84q139 0 224 -63.5t85 -200.5v-651q-150 -45 -307 -45q-168 0 -276.5 70.5t-108.5 232.5zM193 289q0 -186 256 -187q71 1 186 21v323h-258q-78 0 -131 -42t-53 -115z M227 1126l375 140l33 -111l-381 -117z" />
<glyph unicode="&#xe2;" horiz-adv-x="866" d="M70 289q0 127 89 202.5t218 75.5h258v123q0 137 -182 137q-133 0 -283 -69l-59 104q168 84 342 84q139 0 224 -63.5t85 -200.5v-651q-150 -45 -307 -45q-168 0 -276.5 70.5t-108.5 232.5zM190 1112l222 174h39l223 -174q-60 -78 -60 -80l-184 146l-180 -146zM193 289 q0 -186 256 -187q71 1 186 21v323h-258q-78 0 -131 -42t-53 -115z" />
<glyph unicode="&#xe3;" horiz-adv-x="866" d="M70 289q0 127 89 202.5t218 75.5h258v123q0 137 -182 137q-133 0 -283 -69l-59 104q168 84 342 84q139 0 224 -63.5t85 -200.5v-651q-150 -45 -307 -45q-168 0 -276.5 70.5t-108.5 232.5zM176 1122q59 111 160 111q31 0 92 -28.5t88 -28.5q51 0 86 61l84 -47 q-59 -115 -170 -115q-37 0 -98.5 30t-83.5 30q-41 -1 -72 -60zM193 289q0 -186 256 -187q71 1 186 21v323h-258q-78 0 -131 -42t-53 -115z" />
<glyph unicode="&#xe4;" horiz-adv-x="866" d="M70 289q0 127 89 202.5t218 75.5h258v123q0 137 -182 137q-133 0 -283 -69l-59 104q168 84 342 84q139 0 224 -63.5t85 -200.5v-651q-150 -45 -307 -45q-168 0 -276.5 70.5t-108.5 232.5zM193 289q0 -186 256 -187q71 1 186 21v323h-258q-78 0 -131 -42t-53 -115z M215 1145q4 27 26.5 43t49.5 12q29 -6 45 -29.5t10 -50.5q-4 -27 -27.5 -42t-52.5 -11q-27 6 -42 28.5t-9 49.5zM518 1145q4 27 26.5 43t49.5 12q29 -6 45 -29.5t10 -50.5q-4 -27 -27.5 -42t-52.5 -11q-27 6 -42 28.5t-9 49.5z" />
<glyph unicode="&#xe5;" horiz-adv-x="866" d="M70 289q0 127 89 202.5t218 75.5h258v123q0 137 -182 137q-133 0 -283 -69l-59 104q78 39 172 62q-52 57 -52 139q0 86 61.5 146.5t147.5 60.5q88 0 149.5 -60.5t61.5 -146.5q0 -80 -53 -139q164 -55 164 -242v-651q-150 -45 -307 -45q-168 0 -276.5 70.5t-108.5 232.5z M193 289q0 -186 256 -187q71 1 186 21v323h-258q-78 0 -131 -42t-53 -115zM330 1063q0 -47 32.5 -80t77.5 -33t78 33t33 80q0 45 -33 76.5t-78 31.5t-77.5 -31.5t-32.5 -76.5z" />
<glyph unicode="&#xe6;" horiz-adv-x="1443" d="M70 289q0 125 88 192.5t219 67.5h244q12 143 14 149q-6 129 -182 129q-133 0 -283 -69l-59 104q168 84 342 84q209 0 278 -135q106 135 281 135q162 0 262 -119.5t100 -334.5v-82h-626q12 -152 91 -228t197 -76q117 0 248 68l57 -104q-154 -82 -303 -82q-129 0 -223 59 q-197 -61 -360 -61q-168 0 -276.5 70.5t-108.5 232.5zM193 289q0 -186 256 -187q121 0 268 43q-94 109 -96 287h-244q-80 0 -132 -35.5t-52 -107.5zM750 526h495q-10 143 -72.5 222t-166.5 79q-106 0 -176 -81t-80 -220z" />
<glyph unicode="&#xe7;" horiz-adv-x="784" d="M70 467q0 213 112.5 346t288.5 133q139 0 272 -94l-69 -98q-102 74 -203 73q-121 0 -199.5 -101t-78.5 -259t78.5 -259.5t199.5 -101.5q98 0 203 72l69 -98q-113 -80 -225 -88v-84q53 -16 92 -55t39 -95q0 -63 -47 -109t-121 -46q-57 0 -133 41l49 84q49 -27 84 -27 q31 0 50.5 16.5t19.5 40.5q0 35 -41 57.5t-90 26.5v150q-156 18 -253 148t-97 327z" />
<glyph unicode="&#xe8;" horiz-adv-x="892" d="M70 467q0 215 104.5 347t278.5 132q170 0 270 -132t100 -347v-82h-624q18 -139 96 -209t190.5 -70t247.5 68l58 -104q-154 -82 -304 -82q-182 0 -299.5 122.5t-117.5 356.5zM195 502h497q2 137 -62.5 231t-176.5 94q-111 0 -179.5 -89t-78.5 -236zM240 1155l34 111 l375 -140l-28 -88z" />
<glyph unicode="&#xe9;" horiz-adv-x="892" d="M70 467q0 215 104.5 347t278.5 132q170 0 270 -132t100 -347v-82h-624q18 -139 96 -209t190.5 -70t247.5 68l58 -104q-154 -82 -304 -82q-182 0 -299.5 122.5t-117.5 356.5zM195 502h497q2 137 -62.5 231t-176.5 94q-111 0 -179.5 -89t-78.5 -236zM242 1126l374 140 l33 -111l-381 -117z" />
<glyph unicode="&#xea;" horiz-adv-x="892" d="M70 467q0 215 104.5 347t278.5 132q170 0 270 -132t100 -347v-82h-624q18 -139 96 -209t190.5 -70t247.5 68l58 -104q-154 -82 -304 -82q-182 0 -299.5 122.5t-117.5 356.5zM195 502h497q2 137 -62.5 231t-176.5 94q-111 0 -179.5 -89t-78.5 -236zM203 1112l221 174h39 l223 -174q-59 -78 -59 -80l-185 146l-180 -146z" />
<glyph unicode="&#xeb;" horiz-adv-x="892" d="M70 467q0 215 104.5 347t278.5 132q170 0 270 -132t100 -347v-82h-624q18 -139 96 -209t190.5 -70t247.5 68l58 -104q-154 -82 -304 -82q-182 0 -299.5 122.5t-117.5 356.5zM195 502h497q2 137 -62.5 231t-176.5 94q-111 0 -179.5 -89t-78.5 -236zM227 1145q4 27 26.5 43 t49.5 12q29 -6 45.5 -29.5t9.5 -50.5q-4 -27 -27.5 -42t-51.5 -11q-27 6 -42.5 28.5t-9.5 49.5zM530 1145q4 27 27 43t49 12q29 -6 45.5 -29.5t10.5 -50.5q-4 -27 -28 -42t-52 -11q-27 6 -42.5 28.5t-9.5 49.5z" />
<glyph unicode="&#xec;" horiz-adv-x="339" d="M-33 1155l35 111l375 -140l-29 -88zM109 0v932h122v-932h-122z" />
<glyph unicode="&#xed;" horiz-adv-x="339" d="M-33 1126l375 140l33 -111l-381 -117zM109 0v932h122v-932h-122z" />
<glyph unicode="&#xee;" horiz-adv-x="339" d="M-70 1112l222 174h38l224 -174q-60 -78 -60 -80l-184 146l-180 -146zM109 0v932h122v-932h-122z" />
<glyph unicode="&#xef;" horiz-adv-x="339" d="M-45 1145q4 27 26.5 43t49.5 12q29 -6 45 -29.5t10 -50.5q-4 -27 -27.5 -42t-52.5 -11q-27 6 -42 28.5t-9 49.5zM109 0v932h122v-932h-122zM258 1145q4 27 26.5 43t49.5 12q29 -6 45 -29.5t10 -50.5q-4 -27 -27.5 -42t-52.5 -11q-27 6 -42 28.5t-9 49.5z" />
<glyph unicode="&#xf0;" horiz-adv-x="919" d="M57 467q0 225 145.5 359.5t340.5 80.5q-35 59 -142 207l-127 -84l-59 84l129 86l-61 90l102 72q2 -2 17 -26l28 -43q12 -19 16 -23l136 92l59 -86l-135 -92q205 -285 280.5 -438.5t75.5 -278.5q0 -213 -113.5 -346t-291.5 -133q-174 0 -287 133t-113 346zM180 467 q0 -158 79 -260.5t198 -102.5q123 0 201.5 102.5t78.5 260.5q0 150 -75.5 254t-198.5 104q-121 0 -202 -105.5t-81 -252.5z" />
<glyph unicode="&#xf1;" horiz-adv-x="923" d="M106 0v932h97l24 -82q139 96 265 96q137 0 232 -99t95 -229v-618h-125v627q0 80 -59.5 140t-142.5 60q-131 0 -263 -102v-725h-123zM205 1122q59 111 160 111q31 0 92 -28.5t88 -28.5q51 0 86 61l84 -47q-59 -115 -170 -115q-37 0 -98.5 30t-84.5 30q-40 -1 -71 -60z" />
<glyph unicode="&#xf2;" horiz-adv-x="944" d="M70 467q0 213 112.5 346t286.5 133q178 0 291.5 -133t113.5 -346t-113.5 -346t-291.5 -133q-174 0 -286.5 133t-112.5 346zM193 467q0 -158 78.5 -259.5t197.5 -101.5q123 0 202 101.5t79 259.5t-79 259t-202 101q-119 0 -197.5 -101t-78.5 -259zM266 1155l35 111 l375 -140l-29 -88z" />
<glyph unicode="&#xf3;" horiz-adv-x="944" d="M70 467q0 213 112.5 346t286.5 133q178 0 291.5 -133t113.5 -346t-113.5 -346t-291.5 -133q-174 0 -286.5 133t-112.5 346zM193 467q0 -158 78.5 -259.5t197.5 -101.5q123 0 202 101.5t79 259.5t-79 259t-202 101q-119 0 -197.5 -101t-78.5 -259zM266 1126l375 140 l33 -111l-381 -117z" />
<glyph unicode="&#xf4;" horiz-adv-x="944" d="M70 467q0 213 112.5 346t286.5 133q178 0 291.5 -133t113.5 -346t-113.5 -346t-291.5 -133q-174 0 -286.5 133t-112.5 346zM193 467q0 -158 78.5 -259.5t197.5 -101.5q123 0 202 101.5t79 259.5t-79 259t-202 101q-119 0 -197.5 -101t-78.5 -259zM229 1112l222 174h38 l224 -174q-60 -78 -60 -80l-184 146l-180 -146z" />
<glyph unicode="&#xf5;" horiz-adv-x="944" d="M70 467q0 213 112.5 346t286.5 133q178 0 291.5 -133t113.5 -346t-113.5 -346t-291.5 -133q-174 0 -286.5 133t-112.5 346zM193 467q0 -158 78.5 -259.5t197.5 -101.5q123 0 202 101.5t79 259.5t-79 259t-202 101q-119 0 -197.5 -101t-78.5 -259zM215 1122 q59 111 160 111q31 0 92 -28.5t88 -28.5q51 0 86 61l84 -47q-59 -115 -170 -115q-35 0 -96.5 30t-85.5 30q-41 -1 -72 -60z" />
<glyph unicode="&#xf6;" horiz-adv-x="944" d="M70 467q0 213 112.5 346t286.5 133q178 0 291.5 -133t113.5 -346t-113.5 -346t-291.5 -133q-174 0 -286.5 133t-112.5 346zM193 467q0 -158 78.5 -259.5t197.5 -101.5q123 0 202 101.5t79 259.5t-79 259t-202 101q-119 0 -197.5 -101t-78.5 -259zM254 1145q4 27 26.5 43 t49.5 12q29 -6 45 -29.5t10 -50.5q-4 -27 -27.5 -42t-52.5 -11q-27 6 -42 28.5t-9 49.5zM557 1145q4 27 26.5 43t49.5 12q29 -6 45 -29.5t10 -50.5q-4 -27 -27.5 -42t-52.5 -11q-27 6 -42 28.5t-9 49.5z" />
<glyph unicode="&#xf7;" d="M57 608v117h666v-117h-666zM293 393q0 39 28.5 67.5t67.5 28.5t66.5 -28.5t27.5 -67.5t-27.5 -67.5t-66.5 -28.5t-67.5 28.5t-28.5 67.5zM293 940q0 39 28.5 67.5t67.5 28.5t66.5 -28.5t27.5 -67.5t-27.5 -67.5t-66.5 -28.5t-67.5 28.5t-28.5 67.5z" />
<glyph unicode="&#xf8;" horiz-adv-x="944" d="M70 467q0 213 112.5 346t286.5 133q104 0 197 -53l32 53l99 -41l-49 -80q127 -133 126 -358q0 -213 -113.5 -346t-291.5 -133q-109 0 -197 53l-30 -53l-90 45l43 71q-125 135 -125 363zM193 467q0 -152 69 -250l342 571q-61 39 -135 39q-119 0 -197.5 -101t-78.5 -259z M336 145q61 -39 133 -39q123 0 202 101.5t79 259.5q0 145 -70 246z" />
<glyph unicode="&#xf9;" horiz-adv-x="923" d="M106 319v613h123v-621q0 -82 59.5 -143.5t147.5 -61.5q129 1 258 101v725h125v-932h-96l-25 82q-131 -94 -262 -94q-139 0 -234.5 99t-95.5 232zM256 1155l35 111l375 -140l-29 -88z" />
<glyph unicode="&#xfa;" horiz-adv-x="923" d="M106 319v613h123v-621q0 -82 59.5 -143.5t147.5 -61.5q129 1 258 101v725h125v-932h-96l-25 82q-131 -94 -262 -94q-139 0 -234.5 99t-95.5 232zM256 1126l375 140l33 -111l-381 -117z" />
<glyph unicode="&#xfb;" horiz-adv-x="923" d="M106 319v613h123v-621q0 -82 59.5 -143.5t147.5 -61.5q129 1 258 101v725h125v-932h-96l-25 82q-131 -94 -262 -94q-139 0 -234.5 99t-95.5 232zM219 1112l221 174h39l223 -174q-59 -78 -59 -80l-184 146l-180 -146z" />
<glyph unicode="&#xfc;" horiz-adv-x="923" d="M106 319v613h123v-621q0 -82 59.5 -143.5t147.5 -61.5q129 1 258 101v725h125v-932h-96l-25 82q-131 -94 -262 -94q-139 0 -234.5 99t-95.5 232zM244 1145q4 27 26.5 43t48.5 12q29 -6 45.5 -29.5t10.5 -50.5q-4 -27 -27.5 -42t-52.5 -11q-27 6 -42 28.5t-9 49.5z M547 1145q4 27 26.5 43t49.5 12q29 -6 45 -29.5t10 -50.5q-4 -27 -27.5 -42t-52.5 -11q-27 6 -42 28.5t-9 49.5z" />
<glyph unicode="&#xfd;" horiz-adv-x="882" d="M74 -336l57 107q127 -70 248 -70q133 0 216 98.5t77 296.5q-127 -109 -258 -108q-141 0 -235.5 99t-94.5 232v613h123v-621q0 -82 59.5 -143.5t147.5 -61.5q137 0 258 117v709h125v-869q0 -231 -120 -356t-300 -125q-150 0 -303 82zM236 1126l374 140l33 -111l-381 -117z " />
<glyph unicode="&#xfe;" horiz-adv-x="907" d="M106 -410v1741h123v-491q123 106 260 106q145 0 248 -112.5t103 -321.5q0 -246 -138.5 -385t-353.5 -139q-53 0 -119 10v-408h-123zM229 125q57 -14 119 -14q160 0 263.5 107.5t103.5 293.5q0 147 -65.5 228t-160.5 81q-70 0 -139.5 -40t-120.5 -103v-553z" />
<glyph unicode="&#xff;" horiz-adv-x="882" d="M74 -336l57 107q127 -70 248 -70q133 0 216 98.5t77 296.5q-127 -109 -258 -108q-141 0 -235.5 99t-94.5 232v613h123v-621q0 -82 59.5 -143.5t147.5 -61.5q137 0 258 117v709h125v-869q0 -231 -120 -356t-300 -125q-150 0 -303 82zM223 1145q4 27 26.5 43t49.5 12 q29 -6 45 -29.5t10 -50.5q-4 -27 -27.5 -42t-52.5 -11q-27 6 -42 28.5t-9 49.5zM526 1145q4 27 26.5 43t49.5 12q29 -6 45.5 -29.5t9.5 -50.5q-4 -27 -27.5 -42t-51.5 -11q-27 6 -42.5 28.5t-9.5 49.5z" />
<glyph unicode="&#x152;" horiz-adv-x="1413" d="M106 307v717q0 125 97.5 228.5t269.5 103.5q147 0 238 -94v69h581v-125h-454v-446h323v-119h-323v-516h508v-125h-635v70q-90 -94 -238 -95q-172 0 -269.5 103.5t-97.5 228.5zM229 301q0 -80 64.5 -143.5t179.5 -63.5q111 0 173.5 62.5t64.5 140.5v735q-2 80 -64.5 142.5 t-173.5 62.5q-115 0 -179.5 -63.5t-64.5 -143.5v-729z" />
<glyph unicode="&#x153;" horiz-adv-x="1574" d="M70 467q0 213 112.5 346t286.5 133q115 0 204 -59.5t136 -163.5q43 104 128 163.5t196 59.5q172 0 272 -131t100 -348v-82h-624q18 -139 96 -209t190 -70q117 0 248 68l58 -104q-158 -82 -304 -82q-119 0 -215 56t-143 167q-47 -104 -137 -163.5t-205 -59.5 q-174 0 -286.5 133t-112.5 346zM193 467q0 -158 78.5 -259.5t197.5 -101.5q123 0 202 101.5t79 259.5q-2 160 -81 260t-200 100q-119 0 -197.5 -101t-78.5 -259zM877 502h499q2 137 -62.5 231t-180.5 94q-111 0 -179.5 -89t-76.5 -236z" />
<glyph unicode="&#x178;" horiz-adv-x="1007" d="M82 1319v12h125q0 -63 1 -96t10 -122t26.5 -148.5t55.5 -145.5t91 -145.5t139 -116.5t195 -90q111 317 117 864h125q0 -88 -4.5 -171t-18.5 -226t-38.5 -263t-72 -254t-112 -226.5t-163.5 -154t-222 -61.5q-90 0 -186 33l40 113q68 -25 146 -25q217 0 342 260 q-123 37 -221.5 101.5t-158.5 131t-104 159t-66 161t-33 161.5t-12 137t-1 112zM285 1530q4 27 26.5 43t48.5 12q29 -6 45.5 -29.5t10.5 -50.5q-4 -27 -27.5 -42t-52.5 -11q-27 6 -42 28.5t-9 49.5zM588 1530q4 27 26.5 43t49.5 12q29 -6 45 -29.5t10 -50.5 q-4 -27 -27.5 -42t-52.5 -11q-27 6 -42 28.5t-9 49.5z" />
<glyph unicode="&#x2c6;" horiz-adv-x="681" d="M100 1112l222 174h38l224 -174q-60 -78 -60 -80l-184 146l-180 -146z" />
<glyph unicode="&#x2dc;" horiz-adv-x="712" d="M102 1122q59 111 160 111q31 0 92.5 -28.5t87.5 -28.5q51 0 86 61l84 -47q-59 -115 -170 -115q-37 0 -98 30t-84 30q-41 -1 -72 -60z" />
<glyph unicode="&#x2000;" horiz-adv-x="839" />
<glyph unicode="&#x2001;" horiz-adv-x="1679" />
<glyph unicode="&#x2002;" horiz-adv-x="839" />
<glyph unicode="&#x2003;" horiz-adv-x="1679" />
<glyph unicode="&#x2004;" horiz-adv-x="559" />
<glyph unicode="&#x2005;" horiz-adv-x="419" />
<glyph unicode="&#x2006;" horiz-adv-x="279" />
<glyph unicode="&#x2007;" horiz-adv-x="279" />
<glyph unicode="&#x2008;" horiz-adv-x="209" />
<glyph unicode="&#x2009;" horiz-adv-x="335" />
<glyph unicode="&#x200a;" horiz-adv-x="93" />
<glyph unicode="&#x2010;" d="M57 608v117h666v-117h-666z" />
<glyph unicode="&#x2011;" d="M57 608v117h666v-117h-666z" />
<glyph unicode="&#x2012;" d="M57 608v117h666v-117h-666z" />
<glyph unicode="&#x2013;" horiz-adv-x="964" d="M57 608v117h852v-117h-852z" />
<glyph unicode="&#x2014;" horiz-adv-x="1337" d="M57 608v117h1225v-117h-1225z" />
<glyph unicode="&#x2018;" horiz-adv-x="305" d="M59 1083q0 143 109 269l16 -2l-22 -170q37 -4 61.5 -31t24.5 -66t-29 -66.5t-65 -27.5q-39 0 -67 27.5t-28 66.5z" />
<glyph unicode="&#x2019;" horiz-adv-x="305" d="M59 1255q0 39 28 68t67 29t66.5 -29t27.5 -68q0 -141 -111 -266l-14 2l20 168q-35 4 -59.5 32t-24.5 64z" />
<glyph unicode="&#x201a;" horiz-adv-x="317" d="M66 76q0 39 27.5 67.5t66.5 28.5t66.5 -28.5t27.5 -67.5q0 -141 -111 -269l-14 5l21 168q-37 4 -60.5 31.5t-23.5 64.5z" />
<glyph unicode="&#x201c;" horiz-adv-x="593" d="M59 1083q0 143 109 269l16 -2l-22 -170q37 -4 61.5 -31t24.5 -66t-29 -66.5t-65 -27.5q-39 0 -67 27.5t-28 66.5zM344 1083q0 139 113 269l14 -2l-20 -170q35 -4 60.5 -32t25.5 -65q0 -39 -29 -66.5t-68 -27.5t-67.5 27.5t-28.5 66.5z" />
<glyph unicode="&#x201d;" horiz-adv-x="593" d="M59 1255q0 39 28 68t67 29t66.5 -29t27.5 -68q0 -141 -111 -266l-14 2l20 168q-35 4 -59.5 32t-24.5 64zM344 1255q0 39 29.5 68t68.5 29t67 -29t28 -68q0 -141 -111 -266l-14 2l20 168q-37 4 -62.5 32t-25.5 64z" />
<glyph unicode="&#x201e;" horiz-adv-x="606" d="M66 76q0 39 27.5 67.5t66.5 28.5t66.5 -28.5t27.5 -67.5q0 -141 -111 -269l-14 5l21 168q-37 4 -60.5 31.5t-23.5 64.5zM350 76q0 39 30 67.5t68.5 28.5t66.5 -28.5t28 -67.5q0 -141 -111 -269l-14 5l20 168q-37 4 -62.5 31.5t-25.5 64.5z" />
<glyph unicode="&#x2022;" horiz-adv-x="436" d="M57 627q0 66 47.5 113.5t113 47.5t113.5 -48t48 -113q0 -68 -48 -116t-113.5 -48t-113 48t-47.5 116z" />
<glyph unicode="&#x2026;" horiz-adv-x="954" d="M90 75.5q0 28.5 21.5 50t48 21.5t48 -21.5t21.5 -50t-21.5 -50t-48 -21.5t-48 21.5t-21.5 50zM408 75.5q0 28.5 21.5 50t49.5 21.5q27 0 47.5 -21.5t20.5 -50t-20.5 -50t-47.5 -21.5q-29 0 -50 21.5t-21 50zM725 75.5q0 26.5 22.5 49t49 22.5t48 -21.5t21.5 -50 t-21.5 -50t-48 -21.5t-49 22.5t-22.5 49z" />
<glyph unicode="&#x202f;" horiz-adv-x="335" />
<glyph unicode="&#x2039;" horiz-adv-x="565" d="M57 506v106l310 277l79 -96l-258 -234l258 -231l-79 -99z" />
<glyph unicode="&#x203a;" horiz-adv-x="565" d="M123 328l256 231l-256 234l78 96l311 -277v-106l-311 -277z" />
<glyph unicode="&#x205f;" horiz-adv-x="419" />
<glyph unicode="&#x20ac;" horiz-adv-x="729" d="M57 666q0 45 1 78.5t13.5 107.5t34 130t66.5 126t108.5 115t164 76.5t227.5 31.5v-117q-377 0 -467 -340h432v-118h-453q-4 -37 -4 -90.5t4 -90.5h453v-118h-432q90 -338 467 -338v-119q-127 0 -227.5 31.5t-164 77t-108.5 115t-66.5 126t-34 130t-13.5 107.5t-1 79z" />
<glyph unicode="&#x2122;" horiz-adv-x="1505" d="M57 1219v112h451v-112h-168v-621h-115v621h-168zM535 598v473q0 109 66.5 196t189.5 87q131 0 196 -115q66 115 199 115q123 0 189.5 -87t66.5 -196v-473h-113v473q0 66 -37 120t-106.5 54t-106.5 -54t-37 -120v-473h-108v473q0 66 -37 120t-106.5 54t-105.5 -53 t-36 -121v-473h-114z" />
<glyph unicode="&#x25fc;" horiz-adv-x="930" d="M0 0v930h930v-930h-930z" />
</font>
</defs>
</svg>
