<?xml version="1.0" standalone="no"?>
<!DOCTYPE svg PUBLIC "-//W3C//DTD SVG 1.1//EN" "http://www.w3.org/Graphics/SVG/1.1/DTD/svg11.dtd" >
<svg xmlns="http://www.w3.org/2000/svg">
<metadata></metadata>
<defs>
<font id="wasabimedium_italic" horiz-adv-x="354" >
<font-face units-per-em="2048" ascent="1536" descent="-512" />
<missing-glyph horiz-adv-x="409" />
<glyph unicode="&#xfb01;" horiz-adv-x="849" d="M127 0l137 774h-90l27 158h90l12 61q25 133 140.5 235.5t256.5 102.5l-28 -157q-70 0 -128.5 -51.5t-70.5 -118.5l-12 -72h459l-119 -682q-10 -53 20.5 -90t83.5 -37l-22 -123q-145 0 -207 69.5t-41 180.5l90 524h-291l-137 -774h-170zM778 1208q0 49 41 86t90 37 q37 0 62.5 -27.5t25.5 -66.5q0 -49 -40 -86t-87 -37q-39 0 -65.5 26.5t-26.5 67.5z" />
<glyph unicode="&#xfb02;" horiz-adv-x="849" d="M127 0l137 774h-90l27 158h90l12 61q25 133 140.5 235.5t256.5 102.5h291l-190 -1081q-10 -53 20.5 -90t83.5 -37l-22 -123q-143 0 -205 68.5t-43 181.5l164 924h-127q-70 0 -128.5 -51.5t-70.5 -118.5l-12 -72h143l-26 -158h-144l-137 -774h-170z" />
<glyph unicode="&#xfb03;" horiz-adv-x="1345" d="M127 0l137 774h-90l27 158h90l12 61q25 133 140.5 235.5t256.5 102.5l-28 -157q-70 0 -128.5 -51.5t-70.5 -118.5l-12 -72h325l13 61q25 133 140.5 235.5t256.5 102.5l-29 -157q-70 0 -128 -51.5t-70 -118.5l-13 -72h459l-119 -682q-10 -53 21 -90t84 -37l-23 -123 q-145 0 -206.5 69.5t-41.5 180.5l91 524h-291l-137 -774h-170l137 774h-326l-137 -774h-170zM1274 1208q0 49 41 86t90 37q37 0 62.5 -27.5t25.5 -66.5q0 -49 -40 -86t-87 -37q-39 0 -65.5 26.5t-26.5 67.5z" />
<glyph unicode="&#xfb04;" horiz-adv-x="1345" d="M127 0l137 774h-90l27 158h90l12 61q25 133 140.5 235.5t256.5 102.5l-28 -157q-70 0 -128.5 -51.5t-70.5 -118.5l-12 -72h325l13 61q25 133 140.5 235.5t256.5 102.5h291l-191 -1081q-10 -53 21 -90t84 -37l-23 -123q-143 0 -204.5 68.5t-43.5 181.5l164 924h-127 q-70 0 -128 -51.5t-70 -118.5l-13 -72h144l-27 -158h-143l-137 -774h-170l137 774h-326l-137 -774h-170z" />
<glyph horiz-adv-x="2048" />
<glyph horiz-adv-x="2048" />
<glyph unicode="&#xd;" horiz-adv-x="681" />
<glyph unicode=" "  horiz-adv-x="409" />
<glyph unicode="&#x09;" horiz-adv-x="409" />
<glyph unicode="&#xa0;" horiz-adv-x="409" />
<glyph unicode="!" horiz-adv-x="540" d="M166 80q0 51 45 93t98 42q41 0 69 -30.5t28 -71.5q0 -53 -43.5 -95.5t-96.5 -42.5q-43 0 -71.5 31t-28.5 74zM252 367l170 964h168l-170 -964h-168z" />
<glyph unicode="&#x22;" horiz-adv-x="641" d="M274 1235q10 47 52.5 84t89.5 37q41 0 68.5 -31t27.5 -74l-135 -319h-76zM565 1235q10 47 53.5 84t90.5 37q41 0 68.5 -31t27.5 -74l-135 -319h-76z" />
<glyph unicode="#" horiz-adv-x="944" d="M131 420l29 160h162l32 186h-161l28 160h162l41 237h160l-41 -237h186l41 237h160l-41 -237h162l-29 -160h-162l-33 -186h162l-28 -160h-162l-41 -238h-160l41 238h-186l-41 -238h-160l41 238h-162zM481 580h187l32 186h-186z" />
<glyph unicode="$" horiz-adv-x="806" d="M193 209l135 117q57 -80 147 -80q66 0 118 42t52 107q0 45 -35 92.5t-85 90.5l-101 90q-51 47 -86 110.5t-35 132.5q0 127 78 213t199 113l16 94h158l-17 -88q109 -31 187 -121l-138 -116q-61 80 -149 79q-63 0 -114.5 -42t-51.5 -107q0 -43 35 -90t86 -91t101 -92.5 t85 -112t35 -132.5q0 -125 -80 -212t-198 -116l-17 -90h-158l17 88q-115 31 -184 121z" />
<glyph unicode="%" horiz-adv-x="1576" d="M213 885l33 182q20 123 124.5 206t229.5 83q123 0 197.5 -83t54.5 -206l-33 -182q-23 -125 -127 -208t-227 -83q-125 0 -200 82t-52 209zM326 0l995 1331h162l-998 -1331h-159zM350 885q-12 -68 32 -108t107.5 -40t120 40t68.5 108l33 182q12 66 -30 106.5t-105.5 40.5 t-122 -40.5t-70.5 -106.5zM961 266l32 183q20 125 127 207.5t230 82.5t197.5 -82.5t54.5 -207.5l-33 -183q-23 -123 -127.5 -207t-227 -84t-199.5 84t-54 207zM1104 266q-12 -68 30 -107.5t105.5 -39.5t119.5 40t68 107l33 183q12 68 -31 106.5t-106 38.5t-118.5 -39 t-67.5 -106z" />
<glyph unicode="&#x26;" horiz-adv-x="1089" d="M106 254q0 164 95.5 277.5t261.5 213.5l-27 56q-61 109 -61 217q0 123 101.5 230.5t271.5 107.5q133 0 195.5 -84t62.5 -172q0 -186 -275 -361l-45 -28l162 -310q82 106 135 213l152 -49q-80 -166 -215 -307l96 -184l-156 -99l-78 152q-197 -152 -376 -152 q-129 0 -214.5 75t-85.5 204zM274 283q0 -66 46 -107t114 -41q129 0 279 125l-185 356q-254 -172 -254 -333zM547 1047q0 -63 43 -150l31 -57l45 26q170 104 170 217q0 37 -29 75t-88 38q-78 0 -125 -48t-47 -101z" />
<glyph unicode="'" horiz-adv-x="348" d="M274 1235q10 47 52.5 84t89.5 37t74.5 -37t19.5 -84l-133 -303h-76z" />
<glyph unicode="(" horiz-adv-x="413" d="M172 217l156 887q18 98 82.5 207.5t146.5 185.5l82 -49q-104 -147 -141 -342l-156 -881q-33 -192 20 -344l-98 -49q-57 76 -83.5 182.5t-8.5 202.5z" />
<glyph unicode=")" horiz-adv-x="389" d="M0 -119q106 156 139 344l156 881q35 182 -19 342l97 49q55 -78 81.5 -187.5t8.5 -205.5l-156 -887q-18 -96 -81.5 -202.5t-145.5 -182.5z" />
<glyph unicode="*" horiz-adv-x="802" d="M207 1006l69 143l242 -90l43 272h150l-54 -272l273 90l22 -143l-276 -78l125 -217l-133 -88l-117 225l-195 -225l-106 88l205 217z" />
<glyph unicode="+" horiz-adv-x="778" d="M162 588l26 157h252l45 254h160l-45 -254h254l-27 -157h-254l-45 -254h-159l45 254h-252z" />
<glyph unicode="," horiz-adv-x="348" d="M72 78q0 53 45 95t98 42q41 0 68.5 -30.5t27.5 -73.5q0 -53 -46 -146.5t-146 -183.5l-19 4l58 192q-37 4 -61.5 33t-24.5 68z" />
<glyph unicode="-" horiz-adv-x="778" d="M162 588l26 157h666l-27 -157h-665z" />
<glyph unicode="." horiz-adv-x="348" d="M72 80q0 51 45 93t98 42q41 0 68.5 -30.5t27.5 -73.5q0 -53 -44 -94.5t-95 -41.5q-43 0 -71.5 31t-28.5 74z" />
<glyph unicode="/" horiz-adv-x="708" d="M-10 -57l801 1443h161l-798 -1443h-164z" />
<glyph unicode="0" horiz-adv-x="1056" d="M156 498q0 215 60 387t153.5 270t196 149.5t200.5 51.5q150 0 260.5 -132t110.5 -390q0 -215 -60.5 -387.5t-155 -270.5t-197.5 -149.5t-202 -51.5q-147 0 -256.5 132.5t-109.5 390.5zM324 520q0 -188 67.5 -287.5t157.5 -99.5q147 0 282.5 180.5t135.5 497.5 q0 188 -68 287.5t-162 99.5q-63 0 -132.5 -42t-134 -121t-105.5 -214t-41 -301z" />
<glyph unicode="1" horiz-adv-x="540" d="M186 0l236 1331h168l-236 -1331h-168z" />
<glyph unicode="2" horiz-adv-x="802" d="M100 121q0 113 69 225.5t166 204.5l194 177q97 85 166 169t69 152q0 63 -47 104t-111 41q-59 0 -117.5 -35.5t-93.5 -101.5l-143 49q61 125 165.5 187.5t219.5 62.5q125 0 210 -76t85 -203q0 -100 -62.5 -198.5t-153.5 -182.5l-185 -165q-93 -81 -167.5 -176t-91.5 -187 h492l-29 -168h-622q-12 43 -13 121z" />
<glyph unicode="3" horiz-adv-x="845" d="M82 135l129 115q80 -115 213 -115q104 0 187 85t83 214q0 90 -46 142.5t-118 52.5q-63 0 -127 -39l-59 106q389 213 389 398q0 49 -27.5 79.5t-70.5 30.5q-51 0 -115 -34t-119 -93l-110 97q174 188 371 188q109 0 176 -63.5t67 -176.5q0 -203 -227 -370q84 -29 135 -106 t51 -189q0 -215 -141 -348.5t-328 -133.5q-203 0 -313 160z" />
<glyph unicode="4" horiz-adv-x="995" d="M133 406q0 82 31 154.5t100.5 145t119.5 115.5t151 119q102 78 155 124t112.5 122t71.5 145h168q-14 -82 -52 -153.5t-107.5 -141t-116.5 -109.5t-141 -112q-6 -4 -56.5 -43t-64.5 -51l-57 -49q-42 -37 -59 -59.5t-41.5 -57.5t-35 -68.5t-12.5 -68.5h397l66 373 q129 102 201 188l-99 -561h148l-29 -168h-147l-45 -250h-168l45 250h-512q-23 70 -23 156z" />
<glyph unicode="5" horiz-adv-x="872" d="M72 86l133 125q61 -68 176 -68q139 0 247.5 105.5t108.5 294.5q0 104 -53 162.5t-131 58.5q-123 0 -205 -82l-108 82l100 567h582l-31 -168h-414l-47 -264q74 31 152 31q139 0 233 -92.5t94 -266.5q0 -145 -50 -261.5t-132 -187.5t-178 -109t-197 -38q-176 0 -280 111z " />
<glyph unicode="6" horiz-adv-x="1005" d="M145 449q0 219 68 398t174.5 286.5t228 165t240.5 57.5q90 0 164 -35l-98 -154q-45 20 -97 21q-131 0 -262 -111.5t-196 -316.5q181 94 331 94q147 0 243.5 -89t96.5 -253q0 -131 -41 -232.5t-99 -156.5t-134 -90t-135.5 -46.5t-112.5 -11.5q-41 0 -82 7.5t-96 37 t-95 77.5t-69 139.5t-29 212.5zM315.5 414q-0.5 -72 22 -121t45.5 -79t56.5 -45t57 -20.5t48.5 -5.5q43 0 90 13.5t102.5 46.5t91 105.5t35.5 172.5q0 98 -55 151.5t-141 53.5q-129 0 -342 -100q-10 -100 -10.5 -172z" />
<glyph unicode="7" horiz-adv-x="761" d="M147 0q25 139 88.5 281.5t120 231.5t142.5 206q201 274 264 444h-529l31 168h705q-27 -143 -86.5 -278t-109.5 -212t-144 -204q-88 -119 -134 -187.5t-101.5 -193.5t-78.5 -256h-168z" />
<glyph unicode="8" horiz-adv-x="974" d="M115 307q0 289 319 445q-123 92 -123 221q0 176 131 279.5t293 103.5q125 0 209 -72t84 -203q0 -211 -229 -344q195 -119 194 -301q0 -215 -153.5 -338t-354.5 -123q-156 0 -263 88.5t-107 243.5zM285 334q0 -92 66.5 -146.5t160.5 -54.5q119 0 214 77t95 200 q0 45 -18.5 82.5t-58 70.5t-69.5 52.5t-85 50.5q-305 -119 -305 -332zM481 999q0 -55 45 -98t131 -88q199 94 199 244q0 66 -43 103.5t-106 37.5q-84 0 -155 -55.5t-71 -143.5z" />
<glyph unicode="9" horiz-adv-x="1005" d="M207 819q0 131 41 232.5t99.5 157t134 90t135 46t112.5 11.5q41 0 82 -7.5t95.5 -37t94 -77.5t68.5 -139t29 -212q0 -219 -67.5 -398.5t-173 -287t-227.5 -165t-241 -57.5q-90 0 -164 35l99 154q45 -20 94 -21q131 0 262 112t197 316q-178 -94 -330 -94q-147 0 -243.5 89 t-96.5 253zM381 850q0 -98 55.5 -151.5t141.5 -53.5q127 0 340 100q23 119 8 200t-36.5 129t-62.5 74t-69.5 33t-59.5 7q-43 0 -89 -13.5t-101 -46t-91 -105.5t-36 -173z" />
<glyph unicode=":" horiz-adv-x="348" d="M72 80q0 51 45 93t98 42q41 0 68.5 -30.5t27.5 -73.5q0 -53 -44 -94.5t-95 -41.5q-43 0 -71.5 31t-28.5 74zM166 610q0 53 44 94t97 41q41 0 70 -30.5t29 -71.5q0 -53 -44.5 -94t-95.5 -41q-43 0 -71.5 29.5t-28.5 72.5z" />
<glyph unicode=";" horiz-adv-x="348" d="M72 78q0 53 45 95t98 42q41 0 68.5 -30.5t27.5 -73.5q0 -53 -46 -146.5t-146 -183.5l-19 4l58 192q-37 4 -61.5 33t-24.5 68zM166 610q0 53 44 94t97 41q41 0 70 -30.5t29 -71.5q0 -53 -44.5 -94t-95.5 -41q-43 0 -71.5 29.5t-28.5 72.5z" />
<glyph unicode="&#x3c;" horiz-adv-x="651" d="M156 559l24 141l451 328l84 -131l-369 -266l275 -266l-132 -132z" />
<glyph unicode="=" horiz-adv-x="778" d="M133 430l29 158h665l-28 -158h-666zM188 745l29 158h666l-29 -158h-666z" />
<glyph unicode="&#x3e;" horiz-adv-x="651" d="M158 365l366 266l-272 266l131 131l334 -328l-25 -141l-450 -326z" />
<glyph unicode="?" horiz-adv-x="903" d="M279 1040q16 96 70 164t124 97.5t122 42t91 12.5q66 0 122 -16.5t106.5 -53.5t72 -108.5t2.5 -171.5q-14 -80 -73.5 -166t-122 -149.5t-118 -151.5t-63.5 -172h-168q-2 92 52.5 188t122 163.5t130 147.5t72.5 140q16 98 -35 140t-131 42q-31 0 -68.5 -8.5t-84.5 -44 t-58 -95.5h-165zM358 96q10 47 53.5 83t88.5 36q49 0 77.5 -36t18.5 -83q-8 -49 -49 -85t-90 -36q-47 0 -77 36t-22 85z" />
<glyph unicode="@" horiz-adv-x="1308" d="M164 573q0 279 216 485t492 206q221 0 363.5 -147.5t142.5 -368.5q0 -274 -218 -477t-498 -203q-217 0 -357.5 145t-140.5 360zM295 594q0 -168 109.5 -282.5t279.5 -114.5q219 0 390 158.5t171 373.5q0 172 -111.5 289t-283.5 117q-215 0 -385 -163t-170 -378zM457 340 l80 451q18 100 104 170.5t190 70.5q106 0 166 -70.5t41 -170.5l-80 -451h-129l27 154h-244l-26 -154h-129zM635 614h244l30 177q8 47 -20.5 82.5t-79.5 35.5t-93 -35.5t-50 -82.5z" />
<glyph unicode="A" horiz-adv-x="927" d="M94 0l185 1044q23 121 131 216.5t295 95.5q96 0 165.5 -29t103.5 -76t45 -99q6 -27 6 -56q0 -26 -5 -52l-184 -1044h-168l110 629h-407l-111 -629h-166zM399 786h408l45 258q2 11 2 23q0 44 -34 82q-42 47 -144.5 47t-163 -47.5t-68.5 -104.5z" />
<glyph unicode="B" horiz-adv-x="899" d="M94 0l236 1331h377q106 0 177.5 -80t71.5 -202q0 -170 -157 -322q125 -100 125 -266q0 -131 -49.5 -226.5t-127 -143.5t-154.5 -69.5t-153 -21.5h-346zM289 158h180q59 0 118.5 22.5t112 90t52.5 167.5q-1 122 -103 183q-139 -74 -297 -103zM381 680q205 47 304 145.5 t99 196.5q0 63 -34.5 107.5t-87.5 44.5h-195z" />
<glyph unicode="C" horiz-adv-x="915" d="M162 537q0 193 84 380t238.5 313t336.5 126q141 0 285 -119l-121 -137q-100 90 -194 90q-195 0 -329 -202t-134 -435q0 -170 71.5 -291t206.5 -121q96 0 225 90l72 -137q-182 -119 -325 -119q-199 0 -307.5 165.5t-108.5 396.5z" />
<glyph unicode="D" horiz-adv-x="933" d="M96 0l234 1331h166q158 0 266 -45t160.5 -122t73 -151.5t20.5 -162.5q0 -178 -48 -330.5t-139.5 -269.5t-238 -183.5t-330.5 -66.5h-164zM289 158h30q135 0 241 58t165 156.5t89 211t30 235.5q0 354 -346 355h-31z" />
<glyph unicode="E" horiz-adv-x="772" d="M94 0l236 1331h606l-31 -168h-440l-66 -377h316l-29 -157h-315l-82 -461h491l-28 -168h-658z" />
<glyph unicode="F" horiz-adv-x="679" d="M94 0l236 1331h606l-31 -168h-440l-66 -377h332l-29 -157h-331l-111 -629h-166z" />
<glyph unicode="G" horiz-adv-x="1028" d="M162 537q0 193 84 380t238.5 313t336.5 126q141 0 285 -119l-121 -137q-100 90 -194 90q-195 0 -329 -202t-134 -435q0 -170 71.5 -291t206.5 -121q94 0 195 62l73 411h168l-84 -475q-86 -76 -190 -120t-190 -44q-199 0 -307.5 165t-108.5 397z" />
<glyph unicode="H" horiz-adv-x="927" d="M94 0l236 1331h166l-97 -545h408l96 545h166l-235 -1331h-166l110 629h-407l-111 -629h-166z" />
<glyph unicode="I" d="M94 0l236 1331h166l-236 -1331h-166z" />
<glyph unicode="J" horiz-adv-x="634" d="M10 84l121 127q70 -76 152 -76q55 0 98 47t55 113l185 1036h167l-182 -1028q-23 -131 -122 -229.5t-230 -98.5q-133 0 -244 109z" />
<glyph unicode="K" horiz-adv-x="899" d="M94 0l236 1331h166l-103 -579q115 47 210 126.5t151.5 165.5t89.5 158t43 129h168q-25 -129 -127.5 -303t-278.5 -301q154 -256 187 -479q18 -125 106 -125l-22 -123q-137 0 -189 60.5t-72 187.5q-33 205 -155 389q-102 -41 -142 -53l-102 -584h-166z" />
<glyph unicode="L" horiz-adv-x="765" d="M94 0l236 1331h166l-207 -1163h491l-28 -168h-658z" />
<glyph unicode="M" horiz-adv-x="1308" d="M94 0l182 1034q20 121 122 221.5t249 100.5q141 0 209 -111q111 111 250 111q147 0 213 -101q50 -76 50 -164q0 -28 -5 -57l-137 -784q-3 -13 -3 -26q0 -37 23 -64q31 -37 84 -37l-22 -123q-145 0 -207 69q-47 53 -47 131q0 24 4 50l137 784q3 15 3 29q0 43 -23 82 q-31 51 -98.5 51t-118 -51t-60.5 -111l-182 -1034h-160l182 1034q3 15 3 29q0 43 -23 82q-31 51 -101 51q-68 0 -116.5 -51t-59.5 -111l-182 -1034h-166z" />
<glyph unicode="N" horiz-adv-x="972" d="M94 0l236 1331h129l22 -65q111 96 252 96q164 0 240 -100q59 -78 59 -168q0 -28 -4 -54l-139 -790q-3 -13 -3 -26q0 -37 23 -64q31 -37 84 -37l-22 -123q-145 0 -208 70q-48 54 -48 132q0 23 4 48l139 790q2 12 2 25q0 45 -31 81q-39 46 -124 46q-135 0 -254 -111 l-191 -1081h-166z" />
<glyph unicode="O" horiz-adv-x="937" d="M146 260q0 29 6 59l120 693q25 131 144 237.5t295 106.5t257 -107q62 -82 62 -178q0 -28 -6 -59l-121 -693q-25 -131 -142.5 -237.5t-293.5 -106.5t-258 107q-63 82 -63 178zM313 281q0 -51 36 -93q46 -53 147 -53q96 0 159.5 53.5t75.5 120.5l125 713q3 14 3 28 q0 51 -36 93q-45 53 -141 53q-100 0 -165 -53t-77 -121l-125 -713q-2 -10 -2 -21v-7z" />
<glyph unicode="P" horiz-adv-x="813" d="M94 0l236 1331h321q31 0 62.5 -4t84 -22.5t90.5 -50t66.5 -94t28.5 -148.5q0 -477 -639 -539l-84 -473h-166zM371 633q440 45 440 344q0 61 -22.5 104t-57.5 61.5t-60 25t-48 6.5h-156z" />
<glyph unicode="Q" horiz-adv-x="937" d="M146 260q0 29 6 59l120 693q25 131 144 237.5t295 106.5t257 -107q62 -82 62 -178q0 -28 -6 -59l-121 -693q-12 -59 -43 -112l103 -68l-25 -139h-137l-49 74q-123 -98 -285 -99q-176 0 -258 107q-63 82 -63 178zM313 281q0 -51 36 -93q46 -53 147 -53q104 0 172 62 l-111 168l33 26l135 -96q2 2 6 14l125 713q3 14 3 28q0 51 -36 93q-45 53 -141 53q-100 0 -164.5 -53t-77.5 -121l-125 -713q-2 -11 -2 -21v-7z" />
<glyph unicode="R" horiz-adv-x="876" d="M94 0l236 1331h321q31 0 62.5 -4t84 -22.5t90.5 -50t66.5 -94t28.5 -148.5q0 -285 -252 -430q80 -162 105 -332q18 -127 108 -127l-22 -123q-137 0 -190 63.5t-73 184.5q-25 143 -88 266q-98 -31 -227 -41l-84 -473h-166zM371 633q440 45 440 344q0 61 -22.5 104 t-57.5 61.5t-60 25t-48 6.5h-156z" />
<glyph unicode="S" horiz-adv-x="839" d="M61 186l140 121q39 -80 100 -124t129 -44q94 0 171 66.5t77 177.5q0 123 -174 297q-59 63 -92 104t-61.5 104.5t-28.5 125.5q0 158 110.5 250t253.5 92q154 0 256 -127l-137 -117q-61 80 -148 80q-63 0 -115.5 -42t-52.5 -106q0 -78 148 -237q96 -98 152.5 -191.5 t56.5 -205.5q0 -203 -135.5 -319t-309.5 -116q-104 0 -193 54.5t-147 156.5z" />
<glyph unicode="T" horiz-adv-x="765" d="M233 1163l31 168h709l-31 -168h-270l-205 -1163h-168l205 1163h-271z" />
<glyph unicode="U" horiz-adv-x="935" d="M141 239q0 25 4 52l185 1040h166l-185 -1040q-2 -12 -2 -23q0 -44 32 -82q40 -47 126 -47q133 0 252 111l190 1081h170l-235 -1331h-131l-25 63q-113 -94 -252 -94q-164 0 -237 101q-58 79 -58 169z" />
<glyph unicode="V" horiz-adv-x="911" d="M227 785v34q2 84 14.5 187.5t24.5 172.5l29 152h166q-23 -115 -36 -210t-23 -218q-4 -55 -4 -106q0 -62 6 -117q11 -100 39 -198.5t88.5 -173.5t150.5 -120l203 1143h168l-240 -1356q-119 18 -214 62.5t-158.5 104t-107.5 143.5t-67.5 164.5t-32.5 183.5q-6 72 -6 134v18 z" />
<glyph unicode="W" horiz-adv-x="1273" d="M147 297l183 1034h166l-183 -1034q-3 -15 -2 -29q0 -43 23 -82q31 -51 98 -51q70 0 119 51.5t59 110.5l183 1034h159l-182 -1034q-2 -14 -2 -29q0 -43 24 -82q32 -51 99 -51t116.5 51.5t59.5 110.5l182 1034h168l-182 -1034q-23 -121 -124 -221.5t-249 -100.5 q-141 0 -211 111q-104 -111 -248 -111q-147 0 -213 101q-48 74 -48 157q0 33 5 64z" />
<glyph unicode="X" horiz-adv-x="976" d="M57 0q23 135 69 243.5t115.5 195.5t129 143.5t151.5 128.5q-115 131 -166 271q-29 79 -29 179v7q0 75 15 163h166q-13 -77 -13 -142q0 -85 22 -151q40 -117 132 -225q133 109 214 225.5t112 292.5h166q-37 -211 -138.5 -350t-261.5 -270q43 -49 71 -84t62.5 -87.5 t53 -104.5t33.5 -119q13 -62 13 -135v-11q-2 -80 -18 -170h-168q15 86 16 160q0 103 -30 185q-51 140 -162 261q-154 -123 -253 -262t-136 -344h-166z" />
<glyph unicode="Y" horiz-adv-x="1005" d="M156 16l82 150q72 -29 151 -29q182 0 336 217q-426 140 -426 656q0 139 31 305q2 12 2 16h166q-29 -165 -30 -294q0 -104 19 -183q66 -270 326 -352q154 309 250 829h168q-14 -82 -31.5 -164t-56.5 -224t-85 -264t-117 -256t-151.5 -228.5t-192.5 -157t-237 -62.5 q-98 0 -204 41z" />
<glyph unicode="Z" horiz-adv-x="804" d="M72 0q16 197 107 349.5t259 322.5l131 137q43 47 104.5 146.5t94.5 207.5h-432l31 168h600q-16 -117 -50 -220t-67 -170t-95.5 -147.5t-96.5 -116.5l-107 -112q-74 -74 -115 -119t-89 -121.5t-75 -156.5h506l-28 -168h-678z" />
<glyph unicode="[" horiz-adv-x="364" d="M66 -164l292 1659h271l-25 -139h-104l-244 -1381h104l-24 -139h-270z" />
<glyph unicode="\" horiz-adv-x="708" d="M-10 1386h162l800 -1443h-164z" />
<glyph unicode="]" horiz-adv-x="364" d="M-29 -164l25 139h102l244 1381h-102l24 139h271l-293 -1659h-271z" />
<glyph unicode="^" horiz-adv-x="772" d="M242 1044l309 312h147l201 -312l-147 -106l-160 240l-240 -240z" />
<glyph unicode="_" horiz-adv-x="665" d="M-57 -319l28 159h666l-29 -159h-665z" />
<glyph unicode="`" horiz-adv-x="608" d="M360 1137l72 147l354 -129l-55 -117z" />
<glyph unicode="a" horiz-adv-x="856" d="M104 244q0 154 111 247t260 93h221l19 98q1 10 1 18q0 39 -30 61q-36 25 -97 25h-5q-129 0 -291 -73l-55 139q188 94 372 94q143 0 220 -66q58 -50 59 -144q0 -30 -6 -64l-76 -422q-2 -11 -2 -22q0 -39 24 -68q31 -37 84 -37l-22 -123q-168 0 -227 94 q-145 -106 -281 -106q-104 0 -191.5 61.5t-87.5 194.5zM272 266q0 -123 168 -123q41 0 105.5 28t89.5 58l33 195h-222q-72 0 -123 -42t-51 -116z" />
<glyph unicode="b" horiz-adv-x="872" d="M100 35l230 1296h166l-82 -459q119 74 233 74q125 0 208 -90t83 -254q0 -279 -172 -446.5t-420 -167.5q-123 0 -246 47zM289 162q39 -8 86 -8q162 0 277.5 116.5t115.5 304.5q0 96 -42 149.5t-108 53.5q-59 0 -125.5 -33.5t-115.5 -87.5z" />
<glyph unicode="c" horiz-adv-x="784" d="M129 373q0 244 146.5 408.5t351.5 164.5q150 0 278 -98l-114 -133q-91 71 -188 71h-3q-119 0 -210 -113.5t-91 -271.5q0 -113 52 -184.5t136 -71.5q92 0 215 72l68 -133q-160 -96 -311 -96q-150 0 -240 105.5t-90 279.5z" />
<glyph unicode="d" horiz-adv-x="899" d="M129 356q0 260 139.5 425t362.5 165q74 0 168 -26l73 411h168l-192 -1093q-2 -10 -2 -20q0 -36 25 -62q32 -33 83 -33l-22 -123q-166 0 -225 92q-144 -104 -263 -104q-164 0 -239.5 99t-75.5 269zM297 381q0 -227 192 -227q49 0 102.5 21.5t86.5 53.5l92 523 q-88 34 -162 34h-4q-131 0 -219 -112.5t-88 -292.5z" />
<glyph unicode="e" horiz-adv-x="858" d="M129 365q0 248 137 414.5t344 166.5q174 0 252 -132q52 -88 52 -213q0 -62 -13 -134l-16 -100h-588q0 -111 55.5 -166.5t149.5 -55.5q109 0 256 74l55 -139q-180 -92 -338 -92q-156 0 -251 96t-95 281zM317 524h420q6 33 6 64q0 63 -25 118q-38 80 -134 80 q-90 0 -161 -71.5t-106 -190.5z" />
<glyph unicode="f" horiz-adv-x="495" d="M127 0l137 774h-90l27 158h90l12 61q25 133 140.5 235.5t256.5 102.5l-28 -157q-70 0 -128.5 -51.5t-70.5 -118.5l-12 -72h168l-27 -158h-168l-137 -774h-170z" />
<glyph unicode="g" horiz-adv-x="866" d="M2 -326l102 142q119 -76 230 -76q115 0 197.5 80t111.5 239q-109 -71 -230 -71h-3q-133 0 -208 97t-75 265q0 262 127 429t324 167q117 0 210 -78l46 64h131l-154 -871q-41 -231 -183.5 -355t-322.5 -124q-158 0 -303 92zM295 381q0 -102 37 -164.5t106 -62.5 q59 0 126 33.5t116 84.5l70 385q-78 121 -201 121q-111 0 -182.5 -118.5t-71.5 -278.5z" />
<glyph unicode="h" horiz-adv-x="911" d="M94 0l236 1331h166l-82 -459q123 74 235 74q139 0 220 -103q62 -79 62 -176q1 -30 -5 -61l-62 -356q-3 -13 -2 -26q0 -37 23 -64q31 -37 84 -37l-23 -123q-145 0 -207 69q-47 53 -47 131q0 24 4 50l64 368q2 14 2 28q0 51 -31 90q-39 50 -108 50q-121 0 -240 -86 l-123 -700h-166z" />
<glyph unicode="i" d="M134 197q0 25 5 53l119 682h166l-119 -682q-3 -13 -2 -26q0 -37 23 -64q31 -37 84 -37l-23 -123q-145 0 -207 70q-46 52 -46 127zM283 1208q0 49 41 86t90 37q37 0 62.5 -27.5t25.5 -66.5q0 -49 -40 -86t-87 -37q-39 0 -65.5 26.5t-26.5 67.5z" />
<glyph unicode="j" d="M-106 -410l26 158q57 0 102.5 48t55.5 114l180 1022h166l-178 -1014q-25 -133 -123 -230.5t-229 -97.5zM283 1208q0 49 41 86t90 37q37 0 62.5 -27.5t25.5 -66.5q0 -49 -40 -86t-87 -37q-39 0 -65.5 26.5t-26.5 67.5z" />
<glyph unicode="k" horiz-adv-x="802" d="M94 0l236 1331h166l-146 -817q115 63 196 155.5t110.5 155t35.5 107.5h170q-12 -78 -82.5 -201t-199.5 -231q107 -92 168 -250q2 -6 11 -29.5t12 -31t13.5 -25t18.5 -23.5t23.5 -12t31.5 -6l-22 -123q-49 0 -86 11.5t-59.5 24.5t-43 44t-30 49t-24.5 60t-24 61 q-41 90 -123 151q-55 -31 -127 -61l-59 -340h-166z" />
<glyph unicode="l" d="M135 200q0 24 4 50l191 1081h166l-191 -1081q-3 -13 -2 -26q0 -37 23 -64q31 -37 84 -37l-23 -123q-143 0 -205 69q-47 53 -47 131z" />
<glyph unicode="m" horiz-adv-x="1236" d="M94 0l111 633q23 123 118 218t242 95q135 0 203 -100q104 100 238 100q145 0 208 -95q47 -70 47 -156q0 -30 -6 -62l-65 -383q-3 -13 -3 -26q0 -37 23 -64q31 -37 84 -37l-22 -123q-145 0 -207 69q-47 53 -47 131q0 24 4 50l65 383q3 17 3 33q0 40 -18 73q-26 47 -93 47 q-70 0 -115 -47t-55 -106l-111 -633h-159l110 633q3 16 3 32q0 40 -19 74q-27 47 -94 47q-70 0 -114 -47t-54 -106l-111 -633h-166z" />
<glyph unicode="n" horiz-adv-x="911" d="M94 0l164 932h129l25 -66q121 80 237 80q139 0 220 -103q62 -79 62 -176q1 -30 -5 -61l-62 -356q-3 -13 -2 -26q0 -37 23 -64q31 -37 84 -37l-23 -123q-145 0 -207 69q-47 53 -47 131q0 24 4 50l64 368q3 15 3 31q0 48 -31 86q-40 51 -109 51q-121 0 -240 -86l-123 -700 h-166z" />
<glyph unicode="o" horiz-adv-x="894" d="M129 373q0 244 146.5 408.5t351.5 164.5q154 0 244 -106.5t90 -280.5q0 -244 -146.5 -407.5t-355.5 -163.5q-150 0 -240 105.5t-90 279.5zM299 401q0 -113 52 -184.5t136 -71.5q123 0 213.5 115t90.5 275q0 111 -52.5 181t-138.5 70q-119 0 -210 -113.5t-91 -271.5z" />
<glyph unicode="p" horiz-adv-x="872" d="M23 -410l235 1342h129l25 -64q115 78 235 78q125 0 208 -90t83 -254q0 -279 -172 -446.5t-420 -167.5q-45 0 -88 6l-70 -404h-165zM289 162q39 -8 86 -8q162 0 277.5 116.5t115.5 304.5q0 96 -42 149.5t-108 53.5q-59 0 -125.5 -33.5t-115.5 -87.5z" />
<glyph unicode="q" horiz-adv-x="892" d="M158 330q0 279 171 447.5t419 168.5q116 0 247 -49l-229 -1307h-168l82 469q-109 -71 -231 -71h-3q-125 0 -206.5 89t-81.5 253zM328 358q0 -96 42 -150t105 -54q59 0 127 33.5t115 84.5l88 496q-51 10 -86 10q-162 0 -276.5 -115.5t-114.5 -304.5z" />
<glyph unicode="r" horiz-adv-x="579" d="M94 0l164 932h129l21 -86q150 100 335 100l-26 -160q-201 0 -340 -118l-117 -668h-166z" />
<glyph unicode="s" horiz-adv-x="665" d="M86 166l164 67q10 -41 43 -63.5t76 -22.5q51 0 92 26t41 71q0 51 -44 103t-95.5 90t-95.5 102.5t-44 136.5q0 135 91.5 202.5t209.5 67.5q150 0 224 -115l-148 -100q-33 53 -102 53q-39 0 -71 -20.5t-32 -58.5q0 -35 44 -84.5t95.5 -94.5t95.5 -116.5t44 -147.5 q0 -131 -101.5 -202.5t-232.5 -71.5q-92 0 -160.5 45t-93.5 133z" />
<glyph unicode="t" horiz-adv-x="520" d="M195 774l26 158h90l39 223h168l-39 -223h168l-26 -158h-168l-80 -446q-2 -13 -2 -27q0 -50 31 -91q40 -52 110 -52l-29 -158q-141 0 -221 102q-61 78 -61 175q0 30 6 61l78 436h-90z" />
<glyph unicode="u" horiz-adv-x="911" d="M146 264q0 30 6 62l106 606h166l-109 -617q-2 -14 -2 -27q0 -51 32 -91q40 -51 112 -52q117 0 235 84l123 703h168l-121 -682q-2 -11 -2 -22q0 -39 25 -68q31 -37 84 -37l-23 -123q-168 0 -227 94q-156 -106 -291 -106q-141 0 -221 101q-61 78 -61 175z" />
<glyph unicode="v" horiz-adv-x="792" d="M156 746q0 90 16 186h166q-16 -89 -16 -171q0 -148 53 -267q82 -186 215 -279l123 717h170l-166 -944q-106 12 -215 82.5t-198 186.5t-128 294q-20 90 -20 186v9z" />
<glyph unicode="w" horiz-adv-x="1206" d="M141 236q0 31 6 63l111 633h166l-111 -633q-3 -16 -3 -32q0 -40 20 -74q27 -47 96 -48q68 0 112 47.5t54 106.5l110 633h160l-110 -633q-3 -16 -3 -31q0 -41 20 -75q28 -47 97 -48q68 0 111 47.5t53 106.5l111 633h168l-111 -633q-23 -123 -119 -217t-241 -94 q-137 0 -205 98q-102 -98 -236 -98q-147 0 -210 94q-46 69 -46 154z" />
<glyph unicode="x" horiz-adv-x="858" d="M88 0q27 156 109 263.5t213 203.5q-98 98 -143 204q-26 62 -26 140v6q0 54 11 115h166q-7 -39 -7 -74q0 -67 25 -120q39 -81 125 -163q113 80 180.5 162t87.5 195h170q-29 -154 -110.5 -259.5t-214.5 -205.5q98 -98 143 -206q28 -66 28 -149q0 -52 -11 -112h-170 q7 39 7 74q0 67 -26 121q-39 82 -123 165q-113 -84 -181.5 -165.5t-88.5 -194.5h-164z" />
<glyph unicode="y" horiz-adv-x="892" d="M18 -326l103 142q119 -76 233 -76q113 0 196 80t112 241q-115 -73 -231 -73h-3q-141 0 -221 101q-61 78 -61 175q0 30 6 62l106 606h166l-109 -617q-2 -14 -2 -27q0 -51 32 -91q40 -51 112 -52q117 0 235 84l123 703h168l-154 -871q-41 -231 -182 -355t-323 -124 q-156 0 -306 92z" />
<glyph unicode="z" horiz-adv-x="782" d="M90 0q14 115 62.5 210t115 161.5t135 124t139 128t111.5 142.5h-379l29 166h582q-16 -115 -65.5 -209t-116 -160.5t-134 -124t-138.5 -127t-112 -143.5h437l-29 -168h-637z" />
<glyph unicode="{" horiz-adv-x="442" d="M186 657q74 96 111 207t63 260q20 113 95 236t170 209l73 -68q-119 -162 -174 -469q-33 -190 -196 -375q98 -190 65 -376q-39 -223 -35 -308q4 -88 39 -176l-98 -67q-63 86 -94 208.5t-12 233.5q18 102 25 171t2 156t-34 158z" />
<glyph unicode="|" horiz-adv-x="540" d="M154 -186l301 1704h168l-301 -1704h-168z" />
<glyph unicode="}" horiz-adv-x="462" d="M0 -203q59 80 95 166t47.5 139.5t33.5 178.5q16 92 70.5 194.5t124.5 181.5q-41 78 -59.5 181.5t-4.5 193.5q55 311 -8 469l98 68q63 -88 94 -211t11 -234q-53 -301 10 -467q-121 -164 -178 -485q-20 -113 -94 -234.5t-168 -207.5z" />
<glyph unicode="~" horiz-adv-x="778" d="M166 604q100 170 242 170q35 0 106.5 -30.5t99.5 -30.5q47 0 84 63l144 -63q-100 -170 -240 -170q-37 0 -108.5 30.5t-100.5 30.5q-45 0 -80 -63z" />
<glyph unicode="&#xa1;" horiz-adv-x="540" d="M102 -467l170 965h168l-170 -965h-168zM285 754q0 53 44 94t97 41q41 0 69.5 -30t28.5 -73q0 -53 -44 -94t-97 -41q-41 0 -69.5 31t-28.5 72z" />
<glyph unicode="&#xa2;" horiz-adv-x="806" d="M164 571q0 207 112.5 360.5t282.5 198.5l19 101h157l-16 -90q115 -12 221 -94l-115 -132q-96 72 -190 72q-119 0 -210 -114.5t-91 -272.5q0 -113 52 -184.5t136 -71.5q96 0 215 72l70 -131q-135 -82 -256 -95l-14 -90h-158l16 99q-109 31 -170 130t-61 242z" />
<glyph unicode="&#xa3;" horiz-adv-x="710" d="M0 0l29 168h94l147 836q25 133 124.5 230t232.5 97q125 0 239 -108l-118 -125q-78 76 -150 76q-57 0 -103 -48.5t-57 -113.5l-51 -295h340l-29 -158h-340l-69 -391h395l-29 -168h-655z" />
<glyph unicode="&#xa5;" horiz-adv-x="741" d="M170 123l27 160h139l14 82h-139l29 157h139l8 43q-104 29 -148 120t-26 194l80 452h166l-80 -452q-10 -59 20.5 -111.5t98.5 -52.5q70 0 118 52t58 112l80 452h168l-80 -452q-18 -102 -96 -193.5t-191 -120.5l-8 -43h137l-29 -157h-137l-14 -82h137l-27 -160h-137 l-22 -123h-168l22 123h-139z" />
<glyph unicode="&#xa6;" horiz-adv-x="540" d="M154 -186l135 772h168l-135 -772h-168zM317 745l138 773h168l-138 -773h-168z" />
<glyph unicode="&#xa7;" horiz-adv-x="698" d="M98 -4l142 74q20 -70 116 -70q43 0 78 25.5t35 64.5q0 47 -44 92t-96.5 77t-96.5 90.5t-44 127.5q0 150 154 217q-90 82 -90 191q0 115 92 183.5t217 68.5q164 -1 219 -144l-145 -71q-23 70 -100 69q-55 0 -92 -25.5t-37 -66.5q0 -47 44 -92t96 -77t96 -90t44 -128 q0 -156 -154 -217q90 -90 91 -193q0 -113 -91.5 -180t-218.5 -67q-164 0 -215 141zM342 492q0 -33 35 -53.5t74 -20.5q33 0 58.5 21.5t25.5 58.5q0 33 -35 53t-74 20q-35 0 -59.5 -20t-24.5 -59z" />
<glyph unicode="&#xa8;" horiz-adv-x="677" d="M362 1133q0 45 34 77.5t77 32.5q33 0 56.5 -23.5t23.5 -58.5q0 -43 -35 -74.5t-80 -31.5q-33 0 -54.5 22.5t-21.5 55.5zM666 1133q0 45 33.5 77.5t76.5 32.5q35 0 57.5 -23.5t22.5 -58.5q0 -43 -35 -74.5t-80 -31.5q-33 0 -54 22.5t-21 55.5z" />
<glyph unicode="&#xa9;" horiz-adv-x="1308" d="M164 573q0 279 216 485t492 206q221 0 363.5 -147.5t142.5 -368.5q0 -274 -218 -477t-498 -203q-217 0 -357.5 145t-140.5 360zM295 594q0 -168 109.5 -282.5t279.5 -114.5q219 0 390 158.5t171 373.5q0 172 -111.5 289t-283.5 117q-215 0 -385 -163t-170 -378zM483 592 q0 170 100.5 288.5t237.5 118.5q94 0 195 -69l-90 -111q-70 49 -127 49q-74 0 -128.5 -75.5t-54.5 -182.5q0 -70 30 -114.5t79 -44.5q53 0 143 51l54 -111q-123 -70 -220 -69q-100 0 -159.5 75.5t-59.5 194.5z" />
<glyph unicode="&#xaa;" horiz-adv-x="645" d="M207 829q0 117 83 186.5t195 69.5h166l15 74q8 39 -21 58.5t-78 19.5q-100 0 -217 -55l-43 104q139 70 281 70q106 0 163.5 -49.5t39.5 -155.5l-84 -477q-115 -37 -244 -37q-256 0 -256 192zM334 850q0 -96 143 -96q41 0 119 12l35 199h-166q-53 0 -92 -31t-39 -84z" />
<glyph unicode="&#xab;" horiz-adv-x="978" d="M143 485l25 148l356 256l82 -129l-274 -201l205 -199l-129 -131zM555 485l25 148l356 256l82 -129l-275 -201l205 -199l-129 -131z" />
<glyph unicode="&#xac;" horiz-adv-x="778" d="M162 588l26 157h666l-72 -411h-157l45 254h-508z" />
<glyph unicode="&#xad;" horiz-adv-x="778" d="M162 588l26 157h666l-27 -157h-665z" />
<glyph unicode="&#xae;" horiz-adv-x="1308" d="M164 573q0 279 216 485t492 206q221 0 363.5 -147.5t142.5 -368.5q0 -274 -218 -477t-498 -203q-217 0 -357.5 145t-140.5 360zM295 594q0 -168 109.5 -282.5t279.5 -114.5q219 0 390 158.5t171 373.5q0 172 -111.5 289t-283.5 117q-215 0 -385 -163t-170 -378zM469 334 l117 659h297q88 0 146 -60.5t58 -146.5q0 -90 -58 -161.5t-146 -100.5l96 -190h-158l-90 176h-100l-31 -176h-131zM653 639h166q51 0 93 39t42 90q0 41 -27.5 67.5t-68.5 26.5h-166z" />
<glyph unicode="&#xaf;" horiz-adv-x="681" d="M360 1059l23 131h459l-23 -131h-459z" />
<glyph unicode="&#xb0;" horiz-adv-x="716" d="M246 1053q0 139 109.5 243.5t250.5 104.5q111 0 182.5 -76t71.5 -184q0 -139 -110.5 -243.5t-251.5 -104.5q-111 0 -181.5 73.5t-70.5 186.5zM377 1073q0 -63 41 -105t104 -42q80 0 142.5 58t62.5 138q0 61 -42 104.5t-103 43.5q-80 0 -142.5 -59.5t-62.5 -137.5z" />
<glyph unicode="&#xb1;" horiz-adv-x="778" d="M57 0l29 158h666l-29 -158h-666zM162 588l26 157h252l45 254h160l-45 -254h254l-27 -157h-254l-45 -254h-159l45 254h-252z" />
<glyph unicode="&#xb4;" horiz-adv-x="608" d="M365 1155l401 129l16 -147l-405 -99z" />
<glyph unicode="&#xb6;" horiz-adv-x="1060" d="M215 657q0 131 42 227.5t97.5 144.5t130 77t118.5 34t85 5h230l-203 -1145h-166l59 340h-63q-31 0 -62.5 4t-84 21.5t-89.5 49t-65.5 94t-28.5 148.5zM801 0l203 1145h165l-202 -1145h-166z" />
<glyph unicode="&#xb7;" horiz-adv-x="348" d="M166 610q0 53 44 94t97 41q41 0 70 -30.5t29 -71.5q0 -53 -44.5 -94t-95.5 -41q-43 0 -71.5 29.5t-28.5 72.5z" />
<glyph unicode="&#xb8;" horiz-adv-x="534" d="M27 -383l82 111q47 -27 81 -27q33 0 56.5 19.5t23.5 43.5q0 33 -36.5 53.5t-81.5 24.5l28 158h129l-12 -74q104 -41 104 -145q0 -80 -68.5 -145.5t-164.5 -65.5q-72 0 -141 47z" />
<glyph unicode="&#xba;" horiz-adv-x="722" d="M225 928q0 182 110.5 305t264.5 123q115 0 182.5 -80t67.5 -209q0 -184 -110.5 -307t-266.5 -123q-113 0 -180.5 80t-67.5 211zM352 948q0 -86 39.5 -139t102.5 -53q92 0 160.5 86t68.5 205q0 84 -39 137t-104 53q-90 0 -159 -85t-69 -204z" />
<glyph unicode="&#xbb;" horiz-adv-x="978" d="M158 360l274 199l-205 201l131 129l265 -256l-25 -148l-356 -256zM569 360l275 199l-205 201l133 129l262 -256l-24 -148l-355 -256z" />
<glyph unicode="&#xbf;" horiz-adv-x="903" d="M70 -141q12 66 53 134t91 126l100 115q50 58 87 127t45 137h168q2 -76 -33.5 -152t-88 -138.5t-106.5 -120.5t-98 -117.5t-52 -110.5q-16 -98 35 -140.5t130 -42.5q20 0 47 6.5t64 19.5t64.5 45t35.5 77h168q-14 -78 -54 -137.5t-87 -91t-103.5 -52t-95.5 -26.5t-67 -6 q-68 0 -124 16t-105.5 52t-70 107.5t-3.5 172.5zM463 770q8 49 49 84t88 35t77 -35t21 -84q-10 -47 -52 -83t-89 -36t-75.5 36t-18.5 83z" />
<glyph unicode="&#xc0;" horiz-adv-x="927" d="M94 0l185 1044q23 121 131 216.5t295 95.5q96 0 165.5 -29t103.5 -76t45 -99t1 -108l-184 -1044h-168l110 629h-407l-111 -629h-166zM399 786h408l45 258q10 57 -32 104.5t-144.5 47.5t-163 -47.5t-68.5 -104.5zM516 1516l72 147l354 -129l-55 -117z" />
<glyph unicode="&#xc1;" horiz-adv-x="927" d="M94 0l185 1044q23 121 131 216.5t295 95.5q96 0 165.5 -29t103.5 -76t45 -99t1 -108l-184 -1044h-168l110 629h-407l-111 -629h-166zM399 786h408l45 258q10 57 -32 104.5t-144.5 47.5t-163 -47.5t-68.5 -104.5zM530 1534l402 129l16 -147l-405 -99z" />
<glyph unicode="&#xc2;" horiz-adv-x="927" d="M94 0l185 1044q23 121 131 216.5t295 95.5q96 0 165.5 -29t103.5 -76t45 -99t1 -108l-184 -1044h-168l110 629h-407l-111 -629h-166zM399 786h408l45 258q10 57 -32 104.5t-144.5 47.5t-163 -47.5t-68.5 -104.5zM489 1516l250 159h52l194 -159l-96 -105l-150 123 l-190 -123z" />
<glyph unicode="&#xc3;" horiz-adv-x="927" d="M94 0l185 1044q23 121 131 216.5t295 95.5q96 0 165.5 -29t103.5 -76t45 -99t1 -108l-184 -1044h-168l110 629h-407l-111 -629h-166zM399 786h408l45 258q10 57 -32 104.5t-144.5 47.5t-163 -47.5t-68.5 -104.5zM463 1507q86 129 203 129q31 0 82 -25.5t71 -25.5 q41 0 82 57l100 -63q-90 -129 -206 -129q-31 0 -81 27.5t-73 27.5q-39 0 -78 -59z" />
<glyph unicode="&#xc4;" horiz-adv-x="927" d="M94 0l185 1044q23 121 131 216.5t295 95.5q96 0 165.5 -29t103.5 -76t45 -99t1 -108l-184 -1044h-168l110 629h-407l-111 -629h-166zM399 786h408l45 258q10 57 -32 104.5t-144.5 47.5t-163 -47.5t-68.5 -104.5zM485 1511q0 45 34 78t77 33q33 0 56.5 -23.5t23.5 -58.5 q0 -43 -35 -74.5t-80 -31.5q-33 0 -54.5 22t-21.5 55zM788 1511q0 45 34 78t77 33q35 0 57.5 -23.5t22.5 -58.5q0 -43 -35 -74.5t-80 -31.5q-33 0 -54.5 22t-21.5 55z" />
<glyph unicode="&#xc5;" horiz-adv-x="927" d="M94 0l185 1044q16 86 77.5 164t167.5 117q-18 39 -18 86q0 98 79 172t179 74q80 0 131 -53.5t51 -130.5q0 -84 -59 -154q84 -41 115.5 -117t17.5 -158l-184 -1044h-168l110 629h-407l-111 -629h-166zM399 786h408l45 258q10 57 -32 104.5t-144.5 47.5t-163 -47.5 t-68.5 -104.5zM637 1430q0 -31 20.5 -52.5t53.5 -21.5h6q37 4 66.5 31.5t29.5 64.5q0 31 -20.5 52.5t-53.5 21.5q-39 0 -70.5 -29.5t-31.5 -66.5z" />
<glyph unicode="&#xc6;" horiz-adv-x="1380" d="M94 0l185 1044q23 121 131 216.5t295 95.5q111 0 194 -45l4 20h606l-30 -168h-439l-65 -377h313l-28 -157h-314l-82 -461h490l-29 -168h-657l110 629h-407l-111 -629h-166zM399 786h408l45 258q10 57 -32 104.5t-144.5 47.5t-163 -47.5t-68.5 -104.5z" />
<glyph unicode="&#xc7;" horiz-adv-x="915" d="M160 537q0 193 84 380t239.5 313t337.5 126q141 0 285 -119l-121 -137q-100 90 -194 90q-195 0 -329 -202t-134 -435q0 -170 71.5 -291t206.5 -121q96 0 225 90l72 -137q-143 -96 -278 -114l-9 -54q104 -41 105 -145q0 -82 -69.5 -146.5t-166.5 -64.5q-70 0 -141 47 l84 111q47 -27 80 -27t57.5 19.5t24.5 43.5q0 33 -38 53.5t-83 24.5l27 142q-160 33 -248 190.5t-88 362.5z" />
<glyph unicode="&#xc8;" horiz-adv-x="772" d="M94 0l236 1331h606l-31 -168h-440l-66 -377h316l-29 -157h-315l-82 -461h491l-28 -168h-658zM432 1516l72 147l354 -129l-55 -117z" />
<glyph unicode="&#xc9;" horiz-adv-x="772" d="M94 0l236 1331h606l-31 -168h-440l-66 -377h316l-29 -157h-315l-82 -461h491l-28 -168h-658zM424 1534l401 129l17 -147l-406 -99z" />
<glyph unicode="&#xca;" horiz-adv-x="772" d="M94 0l236 1331h606l-31 -168h-440l-66 -377h316l-29 -157h-315l-82 -461h491l-28 -168h-658zM389 1516l250 159h51l195 -159l-97 -105l-149 123l-190 -123z" />
<glyph unicode="&#xcb;" horiz-adv-x="772" d="M94 0l236 1331h606l-31 -168h-440l-66 -377h316l-29 -157h-315l-82 -461h491l-28 -168h-658zM408 1511q0 45 33.5 78t76.5 33q33 0 56.5 -23.5t23.5 -58.5q0 -43 -35 -74.5t-80 -31.5q-33 0 -54 22t-21 55zM711 1511q0 45 33.5 78t76.5 33q35 0 57.5 -23.5t22.5 -58.5 q0 -43 -35 -74.5t-80 -31.5q-33 0 -54 22t-21 55z" />
<glyph unicode="&#xcc;" d="M94 0l236 1331h166l-236 -1331h-166zM231 1516l72 147l354 -129l-55 -117z" />
<glyph unicode="&#xcd;" d="M94 0l236 1331h166l-236 -1331h-166zM240 1534l401 129l16 -147l-405 -99z" />
<glyph unicode="&#xce;" d="M94 0l236 1331h166l-236 -1331h-166zM201 1516l250 159h51l194 -159l-96 -105l-149 123l-191 -123z" />
<glyph unicode="&#xcf;" d="M94 0l236 1331h166l-236 -1331h-166zM203 1511q0 45 33.5 78t76.5 33q33 0 56.5 -23.5t23.5 -58.5q0 -43 -34.5 -74.5t-79.5 -31.5q-33 0 -54.5 22t-21.5 55zM506 1511q0 45 33.5 78t76.5 33q35 0 57.5 -23.5t22.5 -58.5q0 -43 -34.5 -74.5t-79.5 -31.5q-33 0 -54.5 22 t-21.5 55z" />
<glyph unicode="&#xd0;" horiz-adv-x="933" d="M96 0l103 582h-99l29 157h96l105 592h166q158 0 266 -45t160.5 -122t73 -151.5t20.5 -162.5q0 -178 -48 -330.5t-139.5 -269.5t-238 -183.5t-330.5 -66.5h-164zM289 158h30q135 0 241 58t165 156.5t89 211t30 235.5q0 354 -346 355h-31l-76 -435h217l-28 -157h-218z" />
<glyph unicode="&#xd1;" horiz-adv-x="972" d="M94 0l236 1331h129l22 -65q111 96 252 96q164 0 239.5 -100.5t55.5 -221.5l-139 -790q-10 -53 20.5 -90t83.5 -37l-22 -123q-145 0 -208 69.5t-44 180.5l139 790q10 59 -28.5 105.5t-124.5 46.5q-135 0 -254 -111l-191 -1081h-166zM483 1507q86 129 203 129 q31 0 82 -25.5t72 -25.5q41 0 82 57l100 -63q-90 -129 -207 -129q-31 0 -81 27.5t-72 27.5q-39 0 -78 -59z" />
<glyph unicode="&#xd2;" horiz-adv-x="937" d="M152 319l120 693q25 131 144 237.5t295 106.5t257 -106.5t56 -237.5l-121 -693q-25 -131 -142.5 -237.5t-293.5 -106.5t-258 106.5t-57 237.5zM315 309q-12 -68 34 -121t147 -53q96 0 159.5 53.5t75.5 120.5l125 713q12 68 -33 121t-141 53q-100 0 -165 -53t-77 -121z M526 1516l72 147l354 -129l-55 -117z" />
<glyph unicode="&#xd3;" horiz-adv-x="937" d="M152 319l120 693q25 131 144 237.5t295 106.5t257 -106.5t56 -237.5l-121 -693q-25 -131 -142.5 -237.5t-293.5 -106.5t-258 106.5t-57 237.5zM315 309q-12 -68 34 -121t147 -53q96 0 159.5 53.5t75.5 120.5l125 713q12 68 -33 121t-141 53q-100 0 -165 -53t-77 -121z M524 1534l402 129l16 -147l-405 -99z" />
<glyph unicode="&#xd4;" horiz-adv-x="937" d="M152 319l120 693q25 131 144 237.5t295 106.5t257 -106.5t56 -237.5l-121 -693q-25 -131 -142.5 -237.5t-293.5 -106.5t-258 106.5t-57 237.5zM315 309q-12 -68 34 -121t147 -53q96 0 159.5 53.5t75.5 120.5l125 713q12 68 -33 121t-141 53q-100 0 -165 -53t-77 -121z M489 1516l250 159h52l194 -159l-96 -105l-150 123l-190 -123z" />
<glyph unicode="&#xd5;" horiz-adv-x="937" d="M152 319l120 693q25 131 144 237.5t295 106.5t257 -106.5t56 -237.5l-121 -693q-25 -131 -142.5 -237.5t-293.5 -106.5t-258 106.5t-57 237.5zM315 309q-12 -68 34 -121t147 -53q96 0 159.5 53.5t75.5 120.5l125 713q12 68 -33 121t-141 53q-100 0 -165 -53t-77 -121z M481 1507q86 129 203 129q31 0 82 -25.5t72 -25.5q41 0 82 57l100 -63q-90 -129 -207 -129q-31 0 -81 27.5t-73 27.5q-38 0 -77 -59z" />
<glyph unicode="&#xd6;" horiz-adv-x="937" d="M152 319l120 693q25 131 144 237.5t295 106.5t257 -106.5t56 -237.5l-121 -693q-25 -131 -142.5 -237.5t-293.5 -106.5t-258 106.5t-57 237.5zM315 309q-12 -68 34 -121t147 -53q96 0 159.5 53.5t75.5 120.5l125 713q12 68 -33 121t-141 53q-100 0 -165 -53t-77 -121z M492 1511q0 45 33.5 78t76.5 33q33 0 56.5 -23.5t23.5 -58.5q0 -43 -35 -74.5t-80 -31.5q-33 0 -54 22t-21 55zM795 1511q0 45 33.5 78t76.5 33q35 0 57.5 -23.5t22.5 -58.5q0 -43 -35 -74.5t-80 -31.5q-33 0 -54 22t-21 55z" />
<glyph unicode="&#xd7;" horiz-adv-x="778" d="M184 485l207 181l-143 180l131 112l145 -180l213 180l92 -112l-213 -180l150 -181l-133 -110l-148 178l-211 -178z" />
<glyph unicode="&#xd8;" horiz-adv-x="937" d="M74 57l84 117q-23 70 -6 145l120 693q25 131 144 237.5t295 106.5q152 0 237 -86l56 76l104 -62l-94 -129q25 -66 10 -143l-121 -693q-25 -131 -142.5 -237.5t-293.5 -106.5q-152 0 -240 84l-49 -65zM334 209q43 -74 162 -74q96 0 159.5 53.5t75.5 120.5l96 557l9 43z M334 420l504 700q-43 76 -156 76q-100 0 -165 -53t-77 -121l-98 -559z" />
<glyph unicode="&#xd9;" horiz-adv-x="935" d="M145 291l185 1040h166l-185 -1040q-10 -57 30 -104.5t126 -47.5q133 0 252 111l190 1081h170l-235 -1331h-131l-25 63q-113 -94 -252 -94q-164 0 -237.5 100.5t-53.5 221.5zM516 1516l72 147l354 -129l-55 -117z" />
<glyph unicode="&#xda;" horiz-adv-x="935" d="M145 291l185 1040h166l-185 -1040q-10 -57 30 -104.5t126 -47.5q133 0 252 111l190 1081h170l-235 -1331h-131l-25 63q-113 -94 -252 -94q-164 0 -237.5 100.5t-53.5 221.5zM535 1534l401 129l16 -147l-405 -99z" />
<glyph unicode="&#xdb;" horiz-adv-x="935" d="M145 291l185 1040h166l-185 -1040q-10 -57 30 -104.5t126 -47.5q133 0 252 111l190 1081h170l-235 -1331h-131l-25 63q-113 -94 -252 -94q-164 0 -237.5 100.5t-53.5 221.5zM487 1516l250 159h51l195 -159l-96 -105l-150 123l-190 -123z" />
<glyph unicode="&#xdc;" horiz-adv-x="935" d="M145 291l185 1040h166l-185 -1040q-10 -57 30 -104.5t126 -47.5q133 0 252 111l190 1081h170l-235 -1331h-131l-25 63q-113 -94 -252 -94q-164 0 -237.5 100.5t-53.5 221.5zM485 1511q0 45 34 78t77 33q33 0 56.5 -23.5t23.5 -58.5q0 -43 -35 -74.5t-80 -31.5 q-33 0 -54.5 22t-21.5 55zM788 1511q0 45 34 78t77 33q35 0 57.5 -23.5t22.5 -58.5q0 -43 -35 -74.5t-80 -31.5q-33 0 -54.5 22t-21.5 55z" />
<glyph unicode="&#xdd;" horiz-adv-x="1005" d="M156 16l82 150q72 -29 151 -29q182 0 336 217q-541 178 -395 961q2 12 2 16h166q-53 -299 -11 -477q66 -270 326 -352q154 309 250 829h168q-14 -82 -31.5 -164t-56.5 -224t-85 -264t-117 -256t-151.5 -228.5t-192.5 -157t-237 -62.5q-98 0 -204 41zM618 1534l402 129 l16 -147l-405 -99z" />
<glyph unicode="&#xde;" horiz-adv-x="813" d="M94 0l236 1331h166l-47 -262h155q31 0 62.5 -4t84 -22.5t90.5 -50t66.5 -94t28.5 -148.5q0 -131 -42 -227.5t-97.5 -144.5t-130 -77t-118.5 -34t-85 -5h-156l-47 -262h-166zM334 420h155q23 0 49.5 4t68.5 22.5t75 48t57.5 87t24.5 133.5q0 61 -22.5 104t-57.5 61.5 t-60.5 24.5t-48.5 6h-155z" />
<glyph unicode="&#xdf;" horiz-adv-x="1044" d="M127 0l176 993q25 133 140.5 235.5t257 102.5t221 -102.5t55.5 -235.5l-37 -209h-84q-39 0 -69.5 -20.5t-30.5 -58.5q0 -35 44 -84.5t95 -94.5t95 -116.5t44 -147.5q0 -131 -101.5 -202.5t-232.5 -71.5q-92 0 -160.5 45t-95.5 133l164 67q25 -86 121 -86q51 0 92 26 t41 69q0 51 -44 104t-96 91t-96 102.5t-44 136.5q0 106 61.5 170.5t153.5 87.5l12 70q12 66 -28 118t-109.5 52t-128 -51.5t-70.5 -118.5l-176 -1004h-170z" />
<glyph unicode="&#xe0;" horiz-adv-x="856" d="M104 244q0 154 111 247t260 93h221l19 98q8 53 -29 78.5t-102 25.5q-129 0 -291 -73l-55 139q188 94 372 94q143 0 220.5 -66.5t52.5 -207.5l-76 -422q-8 -53 22.5 -90t83.5 -37l-22 -123q-168 0 -227 94q-145 -106 -281 -106q-104 0 -191.5 61.5t-87.5 194.5zM272 266 q0 -123 168 -123q41 0 105.5 28t89.5 58l33 195h-222q-72 0 -123 -42t-51 -116zM430 1137l72 147l354 -129l-55 -117z" />
<glyph unicode="&#xe1;" horiz-adv-x="856" d="M104 244q0 154 111 247t260 93h221l19 98q8 53 -29 78.5t-102 25.5q-129 0 -291 -73l-55 139q188 94 372 94q143 0 220.5 -66.5t52.5 -207.5l-76 -422q-8 -53 22.5 -90t83.5 -37l-22 -123q-168 0 -227 94q-145 -106 -281 -106q-104 0 -191.5 61.5t-87.5 194.5zM272 266 q0 -123 168 -123q41 0 105.5 28t89.5 58l33 195h-222q-72 0 -123 -42t-51 -116zM393 1155l402 129l16 -147l-405 -99z" />
<glyph unicode="&#xe2;" horiz-adv-x="856" d="M104 244q0 154 111 247t260 93h221l19 98q8 53 -29 78.5t-102 25.5q-129 0 -291 -73l-55 139q188 94 372 94q143 0 220.5 -66.5t52.5 -207.5l-76 -422q-8 -53 22.5 -90t83.5 -37l-22 -123q-168 0 -227 94q-145 -106 -281 -106q-104 0 -191.5 61.5t-87.5 194.5zM272 266 q0 -123 168 -123q41 0 105.5 28t89.5 58l33 195h-222q-72 0 -123 -42t-51 -116zM352 1137l250 159h51l195 -159l-96 -105l-150 123l-190 -123z" />
<glyph unicode="&#xe3;" horiz-adv-x="856" d="M104 244q0 154 111 247t260 93h221l19 98q8 53 -29 78.5t-102 25.5q-129 0 -291 -73l-55 139q188 94 372 94q143 0 220.5 -66.5t52.5 -207.5l-76 -422q-8 -53 22.5 -90t83.5 -37l-22 -123q-168 0 -227 94q-145 -106 -281 -106q-104 0 -191.5 61.5t-87.5 194.5zM272 266 q0 -123 168 -123q41 0 105.5 28t89.5 58l33 195h-222q-72 0 -123 -42t-51 -116zM342 1128q86 129 203 129q31 0 82 -25.5t71 -25.5q41 0 82 58l101 -64q-90 -129 -207 -129q-31 0 -81 27.5t-73 27.5q-39 0 -78 -59z" />
<glyph unicode="&#xe4;" horiz-adv-x="856" d="M104 244q0 154 111 247t260 93h221l19 98q8 53 -29 78.5t-102 25.5q-129 0 -291 -73l-55 139q188 94 372 94q143 0 220.5 -66.5t52.5 -207.5l-76 -422q-8 -53 22.5 -90t83.5 -37l-22 -123q-168 0 -227 94q-145 -106 -281 -106q-104 0 -191.5 61.5t-87.5 194.5zM272 266 q0 -123 168 -123q41 0 105.5 28t89.5 58l33 195h-222q-72 0 -123 -42t-51 -116zM358 1133q0 45 34 77.5t77 32.5q33 0 56.5 -23.5t23.5 -58.5q0 -43 -35 -74.5t-80 -31.5q-33 0 -54.5 22.5t-21.5 55.5zM662 1133q0 45 33.5 77.5t76.5 32.5q35 0 57.5 -23.5t22.5 -58.5 q0 -43 -35 -74.5t-80 -31.5q-33 0 -54 22.5t-21 55.5z" />
<glyph unicode="&#xe5;" horiz-adv-x="856" d="M104 244q0 154 111 247t260 93h221l19 98q8 53 -29 78.5t-102 25.5q-129 0 -291 -73l-55 139q92 45 192 70q-18 37 -18 82q0 88 70.5 154.5t162.5 66.5q70 0 117 -48.5t47 -117.5q0 -72 -51 -137q156 -57 125 -250l-76 -422q-8 -53 22.5 -90t83.5 -37l-22 -123 q-168 0 -227 94q-145 -106 -281 -106q-104 0 -191.5 61.5t-87.5 194.5zM272 266q0 -123 168 -123q41 0 105.5 28t89.5 58l33 195h-222q-72 0 -123 -42t-51 -116zM530 1020q0 -29 18.5 -48.5t47.5 -19.5q35 0 63.5 27t28.5 61q0 29 -18.5 47.5t-46.5 18.5q-35 0 -64 -26.5 t-29 -59.5z" />
<glyph unicode="&#xe6;" horiz-adv-x="1415" d="M102 242q0 156 106.5 236.5t262.5 80.5h221l23 123q8 53 -29 78.5t-102 25.5q-129 0 -291 -73l-55 139q188 94 372 94q197 0 258 -119q131 119 293 119t244 -114.5t43 -329.5l-16 -101h-594q-10 -129 46 -192.5t156 -63.5q113 0 256 74l56 -139q-180 -92 -338 -92 q-125 0 -213 57q-217 -59 -357 -59q-152 0 -247 60t-95 196zM272 270q1 -127 191 -127q92 0 231 35q-39 90 -26 223h-224q-172 0 -172 -131zM868 559h416q6 227 -158 227q-82 0 -151.5 -60t-106.5 -167z" />
<glyph unicode="&#xe7;" horiz-adv-x="784" d="M129 373q0 244 146.5 408.5t351.5 164.5q150 0 278 -98l-114 -133q-92 72 -191 71q-119 0 -210 -113.5t-91 -271.5q0 -113 52 -184.5t136 -71.5q92 0 215 72l68 -133q-131 -78 -244 -90l-10 -68q104 -41 105 -145q0 -82 -70 -146.5t-166 -64.5q-68 0 -139 47l84 111 q43 -27 77.5 -27t58 19.5t23.5 46.5q0 31 -36.5 51t-81.5 24l26 152q-125 18 -196.5 120.5t-71.5 258.5z" />
<glyph unicode="&#xe8;" horiz-adv-x="858" d="M129 365q0 248 137 414.5t344 166.5q174 0 252 -132t39 -347l-16 -100h-588q0 -111 55.5 -166.5t149.5 -55.5q109 0 256 74l55 -139q-180 -92 -338 -92q-156 0 -251 96t-95 281zM317 524h420q18 100 -19.5 181t-133.5 81q-90 0 -161 -71.5t-106 -190.5zM436 1137l72 147 l354 -129l-55 -117z" />
<glyph unicode="&#xe9;" horiz-adv-x="858" d="M129 365q0 248 137 414.5t344 166.5q174 0 252 -132t39 -347l-16 -100h-588q0 -111 55.5 -166.5t149.5 -55.5q109 0 256 74l55 -139q-180 -92 -338 -92q-156 0 -251 96t-95 281zM317 524h420q18 100 -19.5 181t-133.5 81q-90 0 -161 -71.5t-106 -190.5zM442 1155l402 129 l16 -147l-405 -99z" />
<glyph unicode="&#xea;" horiz-adv-x="858" d="M129 365q0 248 137 414.5t344 166.5q174 0 252 -132t39 -347l-16 -100h-588q0 -111 55.5 -166.5t149.5 -55.5q109 0 256 74l55 -139q-180 -92 -338 -92q-156 0 -251 96t-95 281zM317 524h420q18 100 -19.5 181t-133.5 81q-90 0 -161 -71.5t-106 -190.5zM379 1137l250 159 h51l194 -159l-96 -105l-149 123l-191 -123z" />
<glyph unicode="&#xeb;" horiz-adv-x="858" d="M129 365q0 248 137 414.5t344 166.5q174 0 252 -132t39 -347l-16 -100h-588q0 -111 55.5 -166.5t149.5 -55.5q109 0 256 74l55 -139q-180 -92 -338 -92q-156 0 -251 96t-95 281zM317 524h420q18 100 -19.5 181t-133.5 81q-90 0 -161 -71.5t-106 -190.5zM385 1133 q0 45 34 77.5t77 32.5q33 0 56 -23.5t23 -58.5q0 -43 -34.5 -74.5t-79.5 -31.5q-33 0 -54.5 22.5t-21.5 55.5zM688 1133q0 45 34 77.5t77 32.5q35 0 57.5 -23.5t22.5 -58.5q0 -43 -35 -74.5t-80 -31.5q-33 0 -54.5 22.5t-21.5 55.5z" />
<glyph unicode="&#xec;" d="M139 250l119 682h166l-119 -682q-10 -53 20.5 -90t84.5 -37l-23 -123q-145 0 -206.5 69.5t-41.5 180.5zM160 1137l71 147l355 -129l-56 -117z" />
<glyph unicode="&#xed;" d="M139 250l119 682h166l-119 -682q-10 -53 20.5 -90t84.5 -37l-23 -123q-145 0 -206.5 69.5t-41.5 180.5zM170 1155l401 129l17 -147l-406 -99z" />
<glyph unicode="&#xee;" d="M131 1137l250 159h51l195 -159l-97 -105l-149 123l-191 -123zM139 250l119 682h166l-119 -682q-10 -53 20.5 -90t84.5 -37l-23 -123q-145 0 -206.5 69.5t-41.5 180.5z" />
<glyph unicode="&#xef;" d="M135 1133q0 45 34 77.5t77 32.5q33 0 56.5 -23.5t23.5 -58.5q0 -43 -35 -74.5t-80 -31.5q-33 0 -54.5 22.5t-21.5 55.5zM139 250l119 682h166l-119 -682q-10 -53 20.5 -90t84.5 -37l-23 -123q-145 0 -206.5 69.5t-41.5 180.5zM438 1133q0 45 34 77.5t77 32.5 q35 0 57.5 -23.5t22.5 -58.5q0 -43 -35 -74.5t-80 -31.5q-33 0 -54.5 22.5t-21.5 55.5z" />
<glyph unicode="&#xf0;" horiz-adv-x="925" d="M129 373q0 246 148.5 402.5t361.5 156.5l-68 139l-135 -80l-57 113l137 80l-41 84l156 94l41 -84l139 84l59 -115l-141 -84q229 -418 229 -628q0 -227 -146 -387t-353 -160q-150 0 -240 105.5t-90 279.5zM299 401q0 -113 52 -184.5t136 -71.5q123 0 213.5 115t90.5 275 q0 111 -52.5 181t-138.5 70q-119 0 -210 -113.5t-91 -271.5z" />
<glyph unicode="&#xf1;" horiz-adv-x="911" d="M94 0l164 932h129l25 -66q121 80 237 80q139 0 220.5 -103.5t56.5 -236.5l-62 -356q-10 -53 20.5 -90t84.5 -37l-23 -123q-145 0 -206.5 68.5t-43.5 181.5l64 368q12 66 -28 117t-109 51q-121 0 -240 -86l-123 -700h-166zM395 1128q86 129 203 129q31 0 82 -25.5 t72 -25.5q41 0 82 58l100 -64q-90 -129 -207 -129q-31 0 -81 27.5t-73 27.5q-38 0 -77 -59z" />
<glyph unicode="&#xf2;" horiz-adv-x="894" d="M129 373q0 244 146.5 408.5t351.5 164.5q154 0 244 -106.5t90 -280.5q0 -244 -146.5 -407.5t-355.5 -163.5q-150 0 -240 105.5t-90 279.5zM299 401q0 -113 52 -184.5t136 -71.5q123 0 213.5 115t90.5 275q0 111 -52.5 181t-138.5 70q-119 0 -210 -113.5t-91 -271.5z M434 1137l72 147l354 -129l-55 -117z" />
<glyph unicode="&#xf3;" horiz-adv-x="894" d="M129 373q0 244 146.5 408.5t351.5 164.5q154 0 244 -106.5t90 -280.5q0 -244 -146.5 -407.5t-355.5 -163.5q-150 0 -240 105.5t-90 279.5zM299 401q0 -113 52 -184.5t136 -71.5q123 0 213.5 115t90.5 275q0 111 -52.5 181t-138.5 70q-119 0 -210 -113.5t-91 -271.5z M432 1155l402 129l16 -147l-406 -99z" />
<glyph unicode="&#xf4;" horiz-adv-x="894" d="M129 373q0 244 146.5 408.5t351.5 164.5q154 0 244 -106.5t90 -280.5q0 -244 -146.5 -407.5t-355.5 -163.5q-150 0 -240 105.5t-90 279.5zM299 401q0 -113 52 -184.5t136 -71.5q123 0 213.5 115t90.5 275q0 111 -52.5 181t-138.5 70q-119 0 -210 -113.5t-91 -271.5z M401 1137l250 159h51l195 -159l-96 -105l-150 123l-190 -123z" />
<glyph unicode="&#xf5;" horiz-adv-x="894" d="M129 373q0 244 146.5 408.5t351.5 164.5q154 0 244 -106.5t90 -280.5q0 -244 -146.5 -407.5t-355.5 -163.5q-150 0 -240 105.5t-90 279.5zM299 401q0 -113 52 -184.5t136 -71.5q123 0 213.5 115t90.5 275q0 111 -52.5 181t-138.5 70q-119 0 -210 -113.5t-91 -271.5z M387 1128q86 129 203 129q31 0 82 -25.5t71 -25.5q41 0 82 58l101 -64q-90 -129 -207 -129q-31 0 -81 27.5t-73 27.5q-39 0 -78 -59z" />
<glyph unicode="&#xf6;" horiz-adv-x="894" d="M129 373q0 244 146.5 408.5t351.5 164.5q154 0 244 -106.5t90 -280.5q0 -244 -146.5 -407.5t-355.5 -163.5q-150 0 -240 105.5t-90 279.5zM299 401q0 -113 52 -184.5t136 -71.5q123 0 213.5 115t90.5 275q0 111 -52.5 181t-138.5 70q-119 0 -210 -113.5t-91 -271.5z M408 1133q0 45 33.5 77.5t76.5 32.5q33 0 56.5 -23.5t23.5 -58.5q0 -43 -35 -74.5t-80 -31.5q-33 0 -54 22.5t-21 55.5zM711 1133q0 45 33.5 77.5t76.5 32.5q35 0 57.5 -23.5t22.5 -58.5q0 -43 -35 -74.5t-80 -31.5q-33 0 -54 22.5t-21 55.5z" />
<glyph unicode="&#xf7;" horiz-adv-x="778" d="M162 588l26 157h666l-27 -157h-665zM340 385q0 51 44 93t97 42q41 0 69 -30.5t28 -73.5q0 -53 -44.5 -94t-95.5 -41q-43 0 -70.5 30.5t-27.5 73.5zM432 915q0 53 44 94.5t97 41.5q41 0 70 -31t29 -72q0 -53 -44.5 -94t-95.5 -41q-43 0 -71.5 29.5t-28.5 72.5z" />
<glyph unicode="&#xf8;" horiz-adv-x="925" d="M123 86l53 59q-47 80 -47 222q0 248 146.5 413.5t351.5 165.5q123 0 202 -63l41 43l91 -78l-52 -57q51 -90 52 -234q0 -244 -146.5 -406.5t-355.5 -162.5q-123 0 -205 63l-39 -45zM297 397q0 -66 12 -102l402 453q-49 39 -111 38q-121 0 -212 -114.5t-91 -274.5zM373 186 q46 -41 114 -41q123 0 213.5 115t90.5 272q0 68 -15 109z" />
<glyph unicode="&#xf9;" horiz-adv-x="911" d="M152 326l106 606h166l-109 -617q-10 -68 30 -119t112 -51q117 0 235 84l123 703h168l-121 -682q-8 -53 22.5 -90t84.5 -37l-23 -123q-168 0 -227 94q-156 -106 -291 -106q-141 0 -221 101t-55 237zM463 1137l72 147l354 -129l-55 -117z" />
<glyph unicode="&#xfa;" horiz-adv-x="911" d="M152 326l106 606h166l-109 -617q-10 -68 30 -119t112 -51q117 0 235 84l123 703h168l-121 -682q-8 -53 22.5 -90t84.5 -37l-23 -123q-168 0 -227 94q-156 -106 -291 -106q-141 0 -221 101t-55 237zM449 1155l401 129l16 -147l-405 -99z" />
<glyph unicode="&#xfb;" horiz-adv-x="911" d="M152 326l106 606h166l-109 -617q-10 -68 30 -119t112 -51q117 0 235 84l123 703h168l-121 -682q-8 -53 22.5 -90t84.5 -37l-23 -123q-168 0 -227 94q-156 -106 -291 -106q-141 0 -221 101t-55 237zM412 1137l250 159h51l194 -159l-96 -105l-149 123l-191 -123z" />
<glyph unicode="&#xfc;" horiz-adv-x="911" d="M152 326l106 606h166l-109 -617q-10 -68 30 -119t112 -51q117 0 235 84l123 703h168l-121 -682q-8 -53 22.5 -90t84.5 -37l-23 -123q-168 0 -227 94q-156 -106 -291 -106q-141 0 -221 101t-55 237zM406 1133q0 45 33.5 77.5t76.5 32.5q33 0 56.5 -23.5t23.5 -58.5 q0 -43 -35 -74.5t-80 -31.5q-33 0 -54 22.5t-21 55.5zM709 1133q0 45 33.5 77.5t76.5 32.5q35 0 57.5 -23.5t22.5 -58.5q0 -43 -35 -74.5t-80 -31.5q-33 0 -54 22.5t-21 55.5z" />
<glyph unicode="&#xfd;" horiz-adv-x="892" d="M18 -326l103 142q119 -76 233 -76q113 0 196 80t112 241q-117 -74 -234 -73q-141 0 -221 101t-55 237l106 606h166l-109 -617q-10 -68 30 -119t112 -51q117 0 235 84l123 703h168l-154 -871q-41 -231 -182 -355t-323 -124q-156 0 -306 92zM453 1155l401 129l16 -147 l-405 -99z" />
<glyph unicode="&#xfe;" horiz-adv-x="892" d="M23 -410l307 1741h166l-82 -459q119 74 233 74q125 0 208 -90t83 -254q0 -279 -172 -446.5t-420 -167.5q-45 0 -88 6l-70 -404h-165zM289 162q39 -8 86 -8q162 0 277.5 116.5t115.5 304.5q0 96 -42 149.5t-108 53.5q-59 0 -125.5 -33.5t-115.5 -87.5z" />
<glyph unicode="&#xff;" horiz-adv-x="892" d="M18 -326l103 142q119 -76 233 -76q113 0 196 80t112 241q-117 -74 -234 -73q-141 0 -221 101t-55 237l106 606h166l-109 -617q-10 -68 30 -119t112 -51q117 0 235 84l123 703h168l-154 -871q-41 -231 -182 -355t-323 -124q-156 0 -306 92zM416 1133q0 45 33.5 77.5 t76.5 32.5q33 0 56.5 -23.5t23.5 -58.5q0 -43 -34.5 -74.5t-79.5 -31.5q-33 0 -54.5 22.5t-21.5 55.5zM719 1133q0 45 33.5 77.5t76.5 32.5q35 0 57.5 -23.5t22.5 -58.5q0 -43 -34.5 -74.5t-79.5 -31.5q-33 0 -54.5 22.5t-21.5 55.5z" />
<glyph unicode="&#x152;" horiz-adv-x="1390" d="M152 319l120 693q25 131 144 237.5t295 106.5q115 0 194 -53l6 28h609l-31 -168h-438l-66 -377h311l-28 -157h-312l-82 -461h490l-29 -168h-659l4 29q-96 -53 -213 -54q-176 0 -258 106.5t-57 237.5zM315 309q-12 -68 34 -121t147 -53q96 0 159.5 53.5t75.5 120.5 l125 713q12 68 -33 121t-141 53q-100 0 -165 -53t-77 -121z" />
<glyph unicode="&#x153;" horiz-adv-x="1523" d="M129 373q0 244 146.5 408.5t351 164.5t291.5 -170q137 170 337 170q174 0 254 -132t41 -347l-16 -100h-590q2 -111 57.5 -166.5t147.5 -55.5q109 0 256 74l53 -139q-180 -92 -336 -92q-225 0 -311 170q-143 -170 -352 -170q-150 0 -240 105.5t-90 279.5zM299 401 q0 -113 52 -184.5t136 -71.5q123 0 213.5 115t90.5 275q0 111 -52.5 181t-138.5 70q-119 0 -210 -113.5t-91 -271.5zM965 524h421q18 100 -20.5 181t-136.5 81q-90 0 -161 -71.5t-103 -190.5z" />
<glyph unicode="&#x178;" horiz-adv-x="1005" d="M156 16l82 150q72 -29 151 -29q182 0 336 217q-541 178 -395 961q2 12 2 16h166q-53 -299 -11 -477q66 -270 326 -352q154 309 250 829h168q-14 -82 -31.5 -164t-56.5 -224t-85 -264t-117 -256t-151.5 -228.5t-192.5 -157t-237 -62.5q-98 0 -204 41zM569 1511q0 45 34 78 t77 33q33 0 56.5 -23.5t23.5 -58.5q0 -43 -35 -74.5t-80 -31.5q-33 0 -54.5 22t-21.5 55zM872 1511q0 45 34 78t77 33q35 0 57.5 -23.5t22.5 -58.5q0 -43 -35 -74.5t-80 -31.5q-33 0 -54.5 22t-21.5 55z" />
<glyph unicode="&#x2c6;" horiz-adv-x="681" d="M360 1137l250 159h52l194 -159l-96 -105l-150 123l-190 -123z" />
<glyph unicode="&#x2dc;" horiz-adv-x="712" d="M360 1128q86 129 203 129q31 0 82 -25.5t72 -25.5q41 0 82 58l100 -64q-90 -129 -207 -129q-31 0 -81 27.5t-72 27.5q-39 0 -78 -59z" />
<glyph unicode="&#x2000;" horiz-adv-x="837" />
<glyph unicode="&#x2001;" horiz-adv-x="1675" />
<glyph unicode="&#x2002;" horiz-adv-x="837" />
<glyph unicode="&#x2003;" horiz-adv-x="1675" />
<glyph unicode="&#x2004;" horiz-adv-x="558" />
<glyph unicode="&#x2005;" horiz-adv-x="418" />
<glyph unicode="&#x2006;" horiz-adv-x="279" />
<glyph unicode="&#x2007;" horiz-adv-x="279" />
<glyph unicode="&#x2008;" horiz-adv-x="209" />
<glyph unicode="&#x2009;" horiz-adv-x="335" />
<glyph unicode="&#x200a;" horiz-adv-x="93" />
<glyph unicode="&#x2010;" horiz-adv-x="778" d="M162 588l26 157h666l-27 -157h-665z" />
<glyph unicode="&#x2011;" horiz-adv-x="778" d="M162 588l26 157h666l-27 -157h-665z" />
<glyph unicode="&#x2012;" horiz-adv-x="778" d="M162 588l26 157h666l-27 -157h-665z" />
<glyph unicode="&#x2013;" horiz-adv-x="964" d="M162 588l26 157h852l-26 -157h-852z" />
<glyph unicode="&#x2014;" horiz-adv-x="1337" d="M162 588l26 157h1225l-27 -157h-1224z" />
<glyph unicode="&#x2018;" horiz-adv-x="348" d="M240 1026q0 51 45 145.5t145 184.5l16 -4l-55 -193q39 -4 63.5 -32.5t24.5 -67.5q0 -53 -45 -94t-96 -41q-43 0 -70.5 29.5t-27.5 72.5z" />
<glyph unicode="&#x2019;" horiz-adv-x="348" d="M272 1219q0 53 45 95t99 42q41 0 68.5 -31t27.5 -74q0 -51 -45 -145t-145 -182l-19 2l55 192q-37 4 -61.5 33t-24.5 68z" />
<glyph unicode="&#x201a;" horiz-adv-x="348" d="M72 78q0 53 45 95t98 42q41 0 68.5 -30.5t27.5 -73.5q0 -53 -46 -146.5t-146 -183.5l-19 4l58 192q-37 4 -61.5 33t-24.5 68z" />
<glyph unicode="&#x201c;" horiz-adv-x="671" d="M240 1026q0 51 45 145.5t145 184.5l16 -4l-55 -193q39 -4 63.5 -32.5t24.5 -67.5q0 -53 -45 -94t-96 -41q-43 0 -70.5 29.5t-27.5 72.5zM561 1026q0 51 46 145.5t147 184.5l16 -4l-53 -193q37 -4 62.5 -32.5t25.5 -67.5q0 -53 -46 -94t-97 -41q-43 0 -72 29.5t-29 72.5z " />
<glyph unicode="&#x201d;" horiz-adv-x="671" d="M272 1219q0 53 45 95t99 42q41 0 68.5 -31t27.5 -74q0 -51 -45 -145t-145 -182l-19 2l55 192q-37 4 -61.5 33t-24.5 68zM596 1221q0 51 45 93t98 42q43 0 71 -31t28 -74q0 -51 -45 -145t-146 -182l-18 2l53 192q-37 4 -61.5 34t-24.5 69z" />
<glyph unicode="&#x201e;" horiz-adv-x="671" d="M72 78q0 53 45 95t98 42q41 0 68.5 -30.5t27.5 -73.5q0 -53 -46 -146.5t-146 -183.5l-19 4l58 192q-37 4 -61.5 33t-24.5 68zM393 80q0 51 46 93t100 42q41 0 69.5 -30.5t28.5 -73.5q0 -53 -46 -146.5t-147 -183.5l-18 4l55 192q-37 4 -62.5 33t-25.5 70z" />
<glyph unicode="&#x2022;" horiz-adv-x="468" d="M166 600q0 82 65.5 143.5t143.5 61.5q63 0 106 -45t43 -109q0 -82 -65.5 -143.5t-147.5 -61.5q-63 0 -104 44.5t-41 109.5z" />
<glyph unicode="&#x2026;" horiz-adv-x="1044" d="M72 80q0 51 45 93t98 42q41 0 68.5 -30.5t27.5 -73.5q0 -53 -44 -94.5t-95 -41.5q-43 0 -71.5 31t-28.5 74zM420 80q0 51 44 93t99 42q41 0 68.5 -30.5t27.5 -71.5q0 -53 -43 -95.5t-96 -42.5q-43 0 -71.5 31t-28.5 74zM766 80q0 51 46 93t99 42q41 0 70 -30.5t29 -73.5 q0 -53 -44.5 -94.5t-97.5 -41.5q-43 0 -72.5 31t-29.5 74z" />
<glyph unicode="&#x202f;" horiz-adv-x="335" />
<glyph unicode="&#x2039;" horiz-adv-x="565" d="M143 485l25 148l356 256l82 -129l-274 -201l205 -199l-129 -131z" />
<glyph unicode="&#x203a;" horiz-adv-x="565" d="M158 360l274 199l-205 201l131 129l265 -256l-25 -148l-356 -256z" />
<glyph unicode="&#x205f;" horiz-adv-x="418" />
<glyph unicode="&#x20ac;" horiz-adv-x="729" d="M157 479.5q1 73.5 5 107.5t12 79q6 41 14.5 77.5t33 108.5t56 130t89 126t128 114t177 77.5t233.5 31.5l-28 -157q-328 0 -465 -275h383l-29 -160h-412q-8 -33 -14 -73l-12 -74h411l-28 -160h-383q45 -274 370 -274l-28 -158q-125 0 -220.5 31.5t-150.5 77t-88 115 t-44 126t-10 130z" />
<glyph unicode="&#x2122;" horiz-adv-x="1505" d="M266 1180l27 151h450l-26 -151h-150l-104 -582h-152l105 582h-150zM647 598l84 467q20 111 103.5 200t212.5 89q119 0 170 -86q86 86 204 86q131 0 183 -89t32 -200l-84 -467h-149l84 467q10 55 -10.5 100t-81.5 45q-57 0 -93 -45t-47 -100l-84 -467h-143l84 467 q10 55 -10.5 100t-82 45t-94 -44t-42.5 -101l-84 -467h-152z" />
<glyph unicode="&#x25fc;" horiz-adv-x="930" d="M0 0v930h930v-930h-930z" />
</font>
</defs>
</svg>
