<?xml version="1.0" encoding="utf-8"?>
<!-- Generator: Adobe Illustrator 16.0.0, SVG Export Plug-In . SVG Version: 6.00 Build 0)  -->
<!DOCTYPE svg PUBLIC "-//W3C//DTD SVG 1.1//EN" "http://www.w3.org/Graphics/SVG/1.1/DTD/svg11.dtd">
<svg version="1.1" id="Camada_1" xmlns="http://www.w3.org/2000/svg" xmlns:xlink="http://www.w3.org/1999/xlink" x="0px" y="0px"
	 width="140.7px" height="26.582px" viewBox="0 0 140.7 26.582" enable-background="new 0 0 140.7 26.582" xml:space="preserve">
<g>
	<g>
		<polygon fill-rule="evenodd" clip-rule="evenodd" fill="#010202" points="88.864,10.651 92.199,12.542 92.225,16.374 
			88.919,18.313 85.591,16.421 85.563,12.59 88.864,10.651 		"/>
		<polygon fill-rule="evenodd" clip-rule="evenodd" fill="#010202" points="85.228,26.582 89.178,24.262 89.144,19.68 
			85.163,17.417 81.208,19.736 81.244,24.32 85.228,26.582 		"/>
		<polygon fill-rule="evenodd" clip-rule="evenodd" fill="#010202" points="77.981,18.57 80.559,20.031 80.581,22.998 
			78.023,24.498 75.448,23.034 75.426,20.069 77.981,18.57 		"/>
		<polygon fill-rule="evenodd" clip-rule="evenodd" fill="#010202" points="71.733,10.671 75.687,12.916 75.718,17.461 
			71.798,19.762 67.846,17.517 67.813,12.972 71.733,10.671 		"/>
		<polygon fill-rule="evenodd" clip-rule="evenodd" fill="#010202" points="75.734,4.575 78.933,6.391 78.96,10.069 75.788,11.931 
			72.59,10.114 72.564,6.437 75.734,4.575 		"/>
		<polygon fill-rule="evenodd" clip-rule="evenodd" fill="#010202" points="85.474,11.892 90.6,8.882 90.557,2.937 85.386,0 
			80.256,3.009 80.3,8.956 85.474,11.892 		"/>
	</g>
	<g>
		<g>
			<path fill="#010202" d="M99.288,4.578v9.895c0,2.99,1.15,4.499,3.118,4.499c2.043,0,3.17-1.432,3.17-4.499V4.578h3.886v9.664
				c0,5.318-2.686,7.849-7.186,7.849c-4.346,0-6.875-2.429-6.875-7.9V4.578H99.288z"/>
			<path fill="#010202" d="M112.859,4.578h10.51v3.196h-6.623v3.937h6.188v3.171h-6.188v6.928h-3.887V4.578z"/>
			<path fill="#010202" d="M140.7,21.016c-1.203,0.41-3.477,0.972-5.75,0.972c-3.146,0-5.422-0.792-7.007-2.3
				c-1.559-1.51-2.428-3.759-2.428-6.291c0.026-5.725,4.191-8.999,9.841-8.999c2.225,0,3.938,0.437,4.781,0.82l-0.818,3.143
				c-0.945-0.435-2.095-0.741-3.99-0.741c-3.244,0-5.725,1.84-5.725,5.572c0,3.581,2.25,5.649,5.445,5.649
				c0.869,0,1.585-0.101,1.892-0.229v-3.629h-2.657V11.94h6.417V21.016z"/>
		</g>
	</g>
</g>
<g>
	<g>
		<path fill="#010202" d="M13.121,21.372c-0.734,0.356-2.352,0.76-4.424,0.76C3.289,22.131,0,18.743,0,13.537
			c0-5.613,3.917-9,9.126-9c2.047,0,3.488,0.43,4.121,0.757l-0.661,2.478c-0.807-0.353-1.945-0.657-3.335-0.657
			c-3.462,0-5.963,2.174-5.963,6.269c0,3.766,2.173,6.142,5.94,6.142c1.237,0,2.551-0.252,3.385-0.605L13.121,21.372z"/>
		<path fill="#010202" d="M21.412,4.813v17.038h-3.108V4.813H21.412z"/>
		<path fill="#010202" d="M30.919,17.024l-1.466,4.827h-3.211l5.463-17.038h3.967l5.537,17.038h-3.364l-1.54-4.827H30.919z
			 M35.797,14.673l-1.338-4.196c-0.33-1.038-0.607-2.199-0.859-3.187h-0.052c-0.252,0.988-0.532,2.174-0.809,3.187l-1.313,4.196
			H35.797z"/>
		<path fill="#010202" d="M46.112,5.066c1.189-0.227,2.908-0.378,4.703-0.378c2.45,0,4.095,0.405,5.258,1.366
			c0.937,0.783,1.468,1.971,1.468,3.438c0,2.199-1.492,3.689-3.11,4.248v0.074c1.238,0.454,1.972,1.645,2.375,3.287
			c0.558,2.123,1.011,4.095,1.341,4.751h-3.185c-0.251-0.505-0.682-1.895-1.139-4.019c-0.503-2.223-1.286-2.931-3.06-2.981h-1.566v7
			h-3.085V5.066z M49.197,12.576h1.846c2.098,0,3.388-1.113,3.388-2.807c0-1.846-1.291-2.731-3.313-2.731
			c-0.986,0-1.619,0.077-1.92,0.152V12.576z"/>
	</g>
</g>
</svg>
