<?xml version="1.0" encoding="utf-8"?>
<!-- Generator: Adobe Illustrator 16.0.0, SVG Export Plug-In . SVG Version: 6.00 Build 0)  -->
<!DOCTYPE svg PUBLIC "-//W3C//DTD SVG 1.1//EN" "http://www.w3.org/Graphics/SVG/1.1/DTD/svg11.dtd">
<svg version="1.1" id="Layer_1" xmlns="http://www.w3.org/2000/svg" xmlns:xlink="http://www.w3.org/1999/xlink" x="0px" y="0px"
	 width="481.675px" height="104.962px" viewBox="0 0 481.675 104.962" enable-background="new 0 0 481.675 104.962"
	 xml:space="preserve">
<g>
	<path d="M26.206,39.092c0,7.561,0.144,8.641,4.321,9l2.304,0.217c0.432,0.288,0.288,1.584-0.144,1.8
		c-4.104-0.144-6.553-0.216-9.433-0.216c-2.88,0-5.4,0.072-10.009,0.216c-0.432-0.216-0.576-1.44,0-1.8l2.592-0.217
		c4.104-0.359,4.464-1.439,4.464-9V6.905c0-2.232,0-2.304-2.16-2.304h-3.96c-3.096,0-7.057,0.144-8.856,1.8
		c-1.729,1.584-2.448,3.168-3.241,4.968c-0.576,0.432-1.584,0.072-1.872-0.504c1.152-3.24,2.232-7.849,2.736-10.729
		c0.216-0.144,1.152-0.216,1.368,0c0.432,2.304,2.808,2.232,6.121,2.232H39.6c3.888,0,4.536-0.144,5.616-2.016
		c0.36-0.144,1.152-0.072,1.296,0.216c-0.792,2.952-1.296,8.785-1.08,10.945c-0.288,0.576-1.512,0.576-1.873,0.144
		c-0.216-1.8-0.72-4.464-1.8-5.256c-1.656-1.224-4.393-1.8-8.353-1.8h-5.112c-2.16,0-2.088,0.072-2.088,2.448V39.092z"/>
	<path d="M47.228,26.203c0-4.969-0.288-5.257-3.384-5.762l-1.368-0.215c-0.504-0.36-0.432-1.584,0.144-1.801
		c2.808,0.145,5.041,0.217,7.345,0.217s4.537-0.072,7.345-0.217c0.576,0.217,0.648,1.44,0.144,1.801l-1.368,0.215
		c-3.096,0.505-3.384,0.793-3.384,5.762v16.129c0,4.969,0.288,5.256,3.384,5.76l1.368,0.217c0.504,0.359,0.432,1.584-0.144,1.8
		c-2.736-0.144-5.112-0.216-7.345-0.216c-2.304,0-4.537,0.072-7.345,0.216c-0.576-0.216-0.648-1.44-0.144-1.8l1.368-0.217
		c3.096-0.504,3.384-0.791,3.384-5.76V26.203z"/>
	<path d="M67.82,27.066c0-4.68-0.072-5.76-1.728-6.049l-2.16-0.359c-0.648-0.217-0.576-1.584,0.072-1.801
		c4.033-0.287,7.705-0.432,11.521-0.432c4.033,0,6.625,0.504,8.641,1.225c2.376,0.863,5.833,3.312,5.833,8.424
		c0,4.969-3.312,7.273-5.977,8.209c-2.448,0.864-5.185,1.225-6.553,1.08c-0.36-0.359-0.36-1.008-0.072-1.296
		c4.464-0.937,6.696-3.601,6.696-8.208c0-4.753-2.952-7.346-7.849-7.346c-2.952,0-2.952,0.433-2.952,2.449v19.369
		c0,4.969,0.288,5.328,3.384,5.76l1.656,0.217c0.504,0.359,0.432,1.584-0.144,1.8c-3.024-0.144-5.4-0.216-7.633-0.216
		c-2.304,0-4.537,0.072-7.057,0.216c-0.576-0.216-0.648-1.44-0.144-1.8l1.08-0.217c3.096-0.647,3.384-0.791,3.384-5.76V27.066z"/>
	<path d="M130.391,34.123c0,9.721-7.345,16.777-17.498,16.777c-11.161,0-17.786-7.272-17.786-16.346
		c0-9.576,7.345-16.921,17.786-16.921C124.486,17.634,130.391,25.338,130.391,34.123z M101.516,33.403
		c0,7.417,3.384,15.409,11.737,15.409c5.473,0,10.729-3.744,10.729-13.609c0-7.705-3.672-15.48-11.593-15.48
		C107.205,19.723,101.516,23.25,101.516,33.403z"/>
	<path d="M143.996,35.203c-3.457-1.8-6.409-4.608-6.409-8.641c0-5.256,4.032-8.929,11.305-8.929c2.52,0,4.248,0.647,6.696,1.08
		c0.576,1.224,1.08,3.96,1.008,7.057c-0.216,0.576-1.512,0.647-1.872,0.144c-0.576-2.52-2.448-6.191-6.697-6.191
		s-5.833,2.447-5.833,4.896c0,2.593,1.944,4.177,4.824,5.688l4.465,2.305c2.592,1.296,5.832,4.32,5.832,9.145
		c0,5.617-4.608,9.145-11.737,9.145c-4.392,0-7.272-1.512-8.281-2.232c-0.648-1.008-1.512-3.6-1.512-7.416
		c0.288-0.721,1.368-0.792,1.873-0.145c0.576,2.593,3.744,7.705,8.568,7.705c3.672,0,6.049-1.872,6.049-5.185
		c0-2.304-0.936-4.681-5.041-6.769L143.996,35.203z"/>
	<path d="M185.61,27.066c0-4.68-0.072-5.904-1.729-6.12l-2.16-0.288c-0.647-0.217-0.575-1.584,0.072-1.801
		c4.032-0.287,8.064-0.432,13.897-0.432c4.032,0,7.561,0.432,10.945,1.584c6.552,2.232,9.937,7.488,9.937,14.113
		c0,5.688-2.952,10.945-8.713,13.897c-3.24,1.656-7.272,2.231-10.873,2.231c-3.24,0-6.48-0.359-8.641-0.359
		c-2.304,0-4.536,0.072-7.345,0.216c-0.576-0.216-0.647-1.44-0.144-1.8l1.368-0.217c3.096-0.504,3.384-0.791,3.384-5.76V27.066z
		 M191.083,41.252c0,4.608,0.72,6.912,6.192,6.912c8.641,0,12.89-5.4,12.89-14.186c0-8.855-6.193-13.465-14.33-13.465
		c-2.376,0-3.744,0.289-4.32,0.793c-0.432,0.287-0.432,1.224-0.432,2.808V41.252z"/>
	<path d="M226.866,26.203c0-4.969-0.288-5.186-3.024-5.762l-1.008-0.215c-0.504-0.289-0.432-1.513,0.144-1.801
		c2.089,0.145,4.321,0.217,6.697,0.217h10.225c3.168,0,6.049-0.072,6.696-0.217c0.072,0.864,0.433,4.248,0.792,7.345
		c-0.288,0.576-1.439,0.647-1.872,0.144c-0.432-1.871-0.864-2.808-1.296-3.456c-1.152-1.728-4.393-1.728-6.12-1.728h-3.169
		c-2.52,0-2.592,0.072-2.592,2.304v7.993c0,1.296,0,1.439,1.368,1.439h3.384c3.816,0,4.177-0.576,4.753-2.736l0.36-1.367
		c0.359-0.504,1.439-0.433,1.8,0.144c-0.145,2.088-0.145,3.384-0.145,5.04c0,1.801,0,3.097,0.145,5.185
		c-0.36,0.576-1.44,0.648-1.8,0.144l-0.36-1.367c-0.576-2.16-0.937-2.736-4.753-2.736h-3.384c-1.368,0-1.368,0.216-1.368,1.656
		v5.184c0,2.16,0.144,4.393,0.792,5.186c0.648,0.72,1.944,1.008,6.049,1.008c4.608,0,7.272-0.217,9.36-5.977
		c0.504-0.504,1.656-0.36,1.872,0.287c-0.359,3.025-1.368,6.625-2.16,7.993c-4.536-0.144-8.353-0.216-12.241-0.216h-6.336
		c-2.305,0-4.537,0.072-7.993,0.216c-0.576-0.216-0.647-1.44-0.144-1.8l1.944-0.217c3.096-0.359,3.384-0.791,3.384-5.76V26.203z"/>
	<path d="M278.778,13.169c0-7.489-0.144-8.569-4.393-9.073l-1.152-0.144c-0.432-0.288-0.287-1.584,0.145-1.8
		c3.096,0.144,5.544,0.216,8.497,0.216h13.537c4.608,0,8.856,0,9.721-0.216c0.432,1.224,0.864,6.409,1.152,9.577
		c-0.288,0.432-1.44,0.576-1.801,0.144c-1.08-3.384-1.728-5.904-5.473-6.84c-1.512-0.36-3.816-0.432-6.984-0.432h-5.185
		c-2.16,0-2.16,0.144-2.16,2.88v14.402c0,2.016,0.216,2.016,2.376,2.016h4.177c3.024,0,5.257-0.145,6.12-0.432
		c0.864-0.289,1.368-0.721,1.729-2.521l0.576-2.952c0.36-0.432,1.584-0.432,1.872,0.072c0,1.728-0.288,4.535-0.288,7.271
		c0,2.593,0.288,5.329,0.288,6.913c-0.288,0.504-1.512,0.504-1.872,0.072l-0.648-2.809c-0.288-1.296-0.792-2.376-2.231-2.735
		c-1.009-0.289-2.736-0.361-5.545-0.361h-4.177c-2.16,0-2.376,0.072-2.376,1.945v10.152c0,3.816,0.216,6.265,1.368,7.488
		c0.864,0.864,2.376,1.656,8.713,1.656c5.545,0,7.633-0.287,9.217-1.08c1.296-0.72,3.24-3.24,5.112-6.984
		c0.504-0.359,1.513-0.145,1.801,0.504c-0.505,2.521-2.305,8.064-3.241,10.009c-6.48-0.144-12.889-0.216-19.297-0.216h-6.48
		c-3.097,0-5.545,0.072-9.793,0.216c-0.433-0.216-0.576-1.368-0.145-1.8l2.376-0.217c4.104-0.359,4.465-1.439,4.465-9V13.169z"/>
	<path d="M343.941,29.73c0-7.2-0.433-9.072-3.097-9.289l-2.304-0.215c-0.504-0.433-0.433-1.44,0.144-1.801
		c2.664,0.145,4.32,0.217,6.408,0.217c2.089,0,3.673-0.072,5.977-0.217c0.576,0.36,0.576,1.44,0.072,1.801l-2.16,0.215
		c-1.872,0.217-2.448,2.16-2.448,9.289v12.098c0,1.439,0,7.272,0.216,8.353c-0.216,0.433-0.863,0.792-1.512,0.647
		c-0.792-1.008-2.232-2.52-6.696-7.344l-10.945-11.666c-2.736-2.879-4.608-4.752-5.545-5.544c-0.287,0-0.287,0.792-0.287,3.024
		v9.505c0,7.2,0.432,9.073,3.096,9.288l2.305,0.217c0.575,0.432,0.432,1.439-0.145,1.8c-2.664-0.144-4.32-0.216-6.408-0.216
		c-2.089,0-3.456,0.072-5.977,0.216c-0.576-0.288-0.576-1.44-0.072-1.8l2.16-0.217c1.872-0.215,2.448-2.16,2.448-9.288v-12.89
		c0-2.376-0.072-3.384-1.512-4.464c-0.576-0.433-1.944-0.864-2.664-1.009l-1.08-0.215c-0.505-0.433-0.505-1.513,0.144-1.801
		c2.736,0.217,4.681,0.217,6.192,0.217c1.008,0,2.017-0.072,2.881-0.217c1.439,2.736,4.104,5.832,7.056,8.857l6.769,6.984
		c1.585,1.584,5.761,6.12,6.553,6.696c0.433-0.144,0.433-1.152,0.433-2.88V29.73z"/>
	<path d="M364.171,35.203c-3.456-1.8-6.408-4.608-6.408-8.641c0-5.256,4.032-8.929,11.305-8.929c2.521,0,4.248,0.647,6.696,1.08
		c0.576,1.224,1.08,3.96,1.008,7.057c-0.216,0.576-1.512,0.647-1.872,0.144c-0.576-2.52-2.448-6.191-6.696-6.191
		s-5.832,2.447-5.832,4.896c0,2.593,1.943,4.177,4.824,5.688l4.464,2.305c2.593,1.296,5.833,4.32,5.833,9.145
		c0,5.617-4.608,9.145-11.737,9.145c-4.393,0-7.272-1.512-8.28-2.232c-0.648-1.008-1.513-3.6-1.513-7.416
		c0.288-0.721,1.368-0.792,1.872-0.145c0.576,2.593,3.744,7.705,8.569,7.705c3.672,0,6.048-1.872,6.048-5.185
		c0-2.304-0.936-4.681-5.04-6.769L364.171,35.203z"/>
	<path d="M387.785,26.203c0-4.969-0.288-5.257-3.384-5.762l-1.368-0.215c-0.505-0.36-0.433-1.584,0.144-1.801
		c2.809,0.145,5.041,0.217,7.345,0.217c2.305,0,4.536-0.072,7.345-0.217c0.576,0.217,0.648,1.44,0.144,1.801l-1.368,0.215
		c-3.096,0.505-3.384,0.793-3.384,5.762v16.129c0,4.969,0.288,5.256,3.384,5.76l1.368,0.217c0.505,0.359,0.433,1.584-0.144,1.8
		c-2.736-0.144-5.112-0.216-7.345-0.216c-2.304,0-4.536,0.072-7.345,0.216c-0.576-0.216-0.648-1.44-0.144-1.8l1.368-0.217
		c3.096-0.504,3.384-0.791,3.384-5.76V26.203z"/>
	<path d="M433.147,29.73c0-7.2-0.433-9.072-3.097-9.289l-2.304-0.215c-0.504-0.433-0.433-1.44,0.144-1.801
		c2.664,0.145,4.32,0.217,6.409,0.217c2.088,0,3.672-0.072,5.976-0.217c0.576,0.36,0.576,1.44,0.072,1.801l-2.16,0.215
		c-1.872,0.217-2.448,2.16-2.448,9.289v12.098c0,1.439,0,7.272,0.216,8.353c-0.216,0.433-0.863,0.792-1.512,0.647
		c-0.792-1.008-2.232-2.52-6.696-7.344l-10.945-11.666c-2.736-2.879-4.608-4.752-5.545-5.544c-0.287,0-0.287,0.792-0.287,3.024
		v9.505c0,7.2,0.432,9.073,3.096,9.288l2.305,0.217c0.576,0.432,0.432,1.439-0.145,1.8c-2.664-0.144-4.32-0.216-6.408-0.216
		s-3.456,0.072-5.977,0.216c-0.576-0.288-0.576-1.44-0.072-1.8l2.16-0.217c1.872-0.215,2.448-2.16,2.448-9.288v-12.89
		c0-2.376-0.072-3.384-1.512-4.464c-0.576-0.433-1.944-0.864-2.664-1.009l-1.081-0.215c-0.504-0.433-0.504-1.513,0.145-1.801
		c2.736,0.217,4.681,0.217,6.192,0.217c1.008,0,2.017-0.072,2.88-0.217c1.44,2.736,4.104,5.832,7.057,8.857l6.77,6.984
		c1.584,1.584,5.76,6.12,6.552,6.696c0.433-0.144,0.433-1.152,0.433-2.88V29.73z"/>
	<path d="M480.523,34.123c0,9.721-7.345,16.777-17.498,16.777c-11.161,0-17.785-7.272-17.785-16.346
		c0-9.576,7.345-16.921,17.785-16.921C474.619,17.634,480.523,25.338,480.523,34.123z M451.648,33.403
		c0,7.417,3.385,15.409,11.737,15.409c5.473,0,10.729-3.744,10.729-13.609c0-7.705-3.672-15.48-11.593-15.48
		C457.337,19.723,451.648,23.25,451.648,33.403z"/>
</g>
<g>
	<path d="M1.867,104.962c-0.586,0-1.208-0.116-1.867-0.348v-1.646c0.647,0.194,1.257,0.292,1.83,0.292
		c1.074,0,1.891-0.323,2.452-0.97c0.561-0.646,1.019-1.781,1.373-3.403l4.501-21.336H6.405l0.256-1.227l3.751-0.256l0.64-2.928
		c0.427-2.05,1.138-3.538,2.132-4.465s2.382-1.391,4.163-1.391c0.89,0,1.903,0.189,3.038,0.567l-0.458,1.464
		c-1.061-0.33-1.958-0.494-2.69-0.494c-1.171,0-2.107,0.326-2.809,0.979c-0.702,0.653-1.217,1.742-1.546,3.267l-0.641,3.001h4.538
		l-0.292,1.482h-4.538L7.338,99.326c-0.403,1.964-1.037,3.395-1.903,4.291S3.379,104.962,1.867,104.962z"/>
	<path d="M26.716,75.685c2.196,0,3.895,0.661,5.096,1.985c1.201,1.323,1.802,3.15,1.802,5.48c0,2.403-0.437,4.65-1.309,6.742
		c-0.872,2.093-2.064,3.688-3.577,4.785c-1.513,1.099-3.257,1.647-5.233,1.647c-2.245,0-3.95-0.668-5.114-2.004
		c-1.166-1.336-1.748-3.248-1.748-5.736c0-2.33,0.445-4.514,1.335-6.551c0.891-2.038,2.092-3.605,3.605-4.703
		S24.801,75.685,26.716,75.685z M26.57,77.258c-1.513,0-2.873,0.479-4.081,1.437c-1.208,0.958-2.172,2.33-2.891,4.117
		c-0.72,1.787-1.08,3.681-1.08,5.682c0,4.172,1.72,6.258,5.16,6.258c1.549,0,2.924-0.473,4.126-1.418s2.16-2.336,2.873-4.172
		c0.714-1.836,1.07-3.852,1.07-6.048c0-1.878-0.445-3.324-1.335-4.337C29.522,77.764,28.241,77.258,26.57,77.258z"/>
	<path d="M48.455,75.721c0.842,0,1.592,0.086,2.251,0.256l-0.384,1.702c-0.574-0.183-1.263-0.274-2.068-0.274
		c-1.147,0-2.239,0.391-3.275,1.171c-1.037,0.781-1.97,1.952-2.8,3.514s-1.439,3.251-1.83,5.068l-1.83,8.802h-1.793l4.227-19.891
		h1.464l-0.531,3.733h0.11c0.891-1.147,1.641-1.974,2.251-2.479c0.61-0.507,1.259-0.9,1.949-1.181
		C46.884,75.861,47.637,75.721,48.455,75.721z"/>
	<path d="M62.179,95.959l2.69-12.333c0.305-1.525,0.458-2.514,0.458-2.965c0-2.22-0.939-3.33-2.818-3.33
		c-1.293,0-2.513,0.412-3.66,1.235c-1.147,0.823-2.117,1.973-2.91,3.449c-0.793,1.476-1.403,3.227-1.83,5.252l-1.83,8.691h-1.793
		l4.227-19.891h1.464l-0.604,3.843h0.11c0.976-1.379,2.083-2.415,3.321-3.11c1.238-0.696,2.535-1.044,3.889-1.044
		c1.293,0,2.287,0.409,2.982,1.227s1.062,2.007,1.098,3.568h0.11c0.939-1.574,2.043-2.767,3.312-3.577
		c1.269-0.812,2.623-1.218,4.062-1.218c1.427,0,2.541,0.376,3.34,1.126c0.799,0.75,1.198,1.827,1.198,3.229
		c0,0.354-0.015,0.698-0.045,1.034c-0.031,0.335-0.15,1.064-0.357,2.187l-2.782,12.626h-1.83l2.727-12.443
		c0.305-1.464,0.458-2.537,0.458-3.221c0-0.938-0.263-1.668-0.787-2.187s-1.25-0.777-2.177-0.777c-1.916,0-3.608,0.839-5.078,2.516
		c-1.47,1.678-2.498,3.889-3.083,6.634l-1.994,9.479H62.179z"/>
	<path d="M93.195,75.757c2.83,0,4.532,1.336,5.105,4.008h0.11l1.08-3.696h1.464l-4.19,19.891h-1.5l0.824-5.014h-0.11
		c-1.025,1.732-2.166,3.062-3.422,3.989c-1.257,0.927-2.702,1.391-4.337,1.391c-3.428,0-5.142-2.281-5.142-6.844
		c0-2.403,0.457-4.696,1.372-6.881c0.915-2.184,2.138-3.87,3.669-5.06C89.648,76.352,91.341,75.757,93.195,75.757z M88.639,94.678
		c1.085,0,2.168-0.378,3.248-1.134c1.08-0.757,2.049-1.77,2.91-3.038c0.86-1.269,1.516-2.672,1.967-4.209s0.677-2.836,0.677-3.897
		c0-0.963-0.159-1.826-0.476-2.589c-0.317-0.763-0.787-1.366-1.409-1.812s-1.397-0.668-2.324-0.668c-1.513,0-2.879,0.5-4.099,1.5
		c-1.22,1.001-2.22,2.498-3.001,4.493c-0.781,1.994-1.171,3.979-1.171,5.956c0,1.854,0.305,3.218,0.915,4.09
		S87.406,94.678,88.639,94.678z"/>
	<path d="M105.053,95.959h-1.72l6.112-28.473h1.72L105.053,95.959z"/>
	<path d="M115.208,91.604l0.146,0.421c-0.415,1.123-1.11,2.547-2.086,4.273c-0.976,1.726-1.952,3.223-2.928,4.492h-1.354
		c0.964-1.61,1.824-3.264,2.58-4.959s1.293-3.104,1.61-4.228H115.208z"/>
	<path d="M142.601,95.959l2.727-12.663c0.256-1.122,0.384-2.073,0.384-2.854c0-0.976-0.265-1.738-0.796-2.287
		s-1.351-0.823-2.461-0.823c-1.367,0-2.651,0.409-3.852,1.226c-1.202,0.817-2.214,1.962-3.038,3.432s-1.455,3.218-1.894,5.242
		l-1.866,8.729h-1.793l4.227-19.891h1.5l-0.677,4.044h0.11c2-2.903,4.538-4.355,7.612-4.355c1.586,0,2.775,0.391,3.568,1.172
		c0.793,0.78,1.189,1.902,1.189,3.366c0,0.854-0.146,1.965-0.439,3.331l-2.708,12.333H142.601z"/>
	<path d="M161.522,75.757c2.83,0,4.532,1.336,5.105,4.008h0.11l1.08-3.696h1.464l-4.19,19.891h-1.5l0.824-5.014h-0.11
		c-1.025,1.732-2.166,3.062-3.422,3.989c-1.257,0.927-2.702,1.391-4.337,1.391c-3.428,0-5.142-2.281-5.142-6.844
		c0-2.403,0.457-4.696,1.372-6.881c0.915-2.184,2.138-3.87,3.669-5.06C157.975,76.352,159.668,75.757,161.522,75.757z
		 M156.966,94.678c1.085,0,2.168-0.378,3.248-1.134c1.08-0.757,2.049-1.77,2.91-3.038c0.86-1.269,1.516-2.672,1.967-4.209
		s0.677-2.836,0.677-3.897c0-0.963-0.159-1.826-0.476-2.589c-0.317-0.763-0.787-1.366-1.409-1.812s-1.397-0.668-2.324-0.668
		c-1.513,0-2.879,0.5-4.099,1.5c-1.22,1.001-2.22,2.498-3.001,4.493c-0.781,1.994-1.171,3.979-1.171,5.956
		c0,1.854,0.305,3.218,0.915,4.09S155.733,94.678,156.966,94.678z M165.237,73.104c-0.488,0-0.96-0.115-1.418-0.348
		c-0.458-0.231-0.918-0.506-1.382-0.823c-0.415-0.28-0.808-0.53-1.18-0.75s-0.79-0.329-1.253-0.329c-0.549,0-1,0.174-1.354,0.521
		c-0.354,0.348-0.665,0.961-0.933,1.839h-1.354c0.232-1.317,0.665-2.333,1.299-3.047s1.452-1.07,2.452-1.07
		c0.5,0,0.948,0.085,1.345,0.256s1.113,0.61,2.15,1.317c0.634,0.439,1.208,0.659,1.72,0.659c0.524,0,0.961-0.186,1.309-0.559
		c0.348-0.371,0.631-0.984,0.851-1.839h1.391c-0.317,1.439-0.772,2.495-1.363,3.166C166.923,72.769,166.164,73.104,165.237,73.104z"
		/>
	<path d="M182.145,75.685c2.196,0,3.895,0.661,5.096,1.985c1.201,1.323,1.802,3.15,1.802,5.48c0,2.403-0.437,4.65-1.309,6.742
		c-0.872,2.093-2.064,3.688-3.577,4.785c-1.513,1.099-3.257,1.647-5.233,1.647c-2.245,0-3.95-0.668-5.114-2.004
		c-1.166-1.336-1.748-3.248-1.748-5.736c0-2.33,0.445-4.514,1.335-6.551c0.891-2.038,2.092-3.605,3.605-4.703
		S180.229,75.685,182.145,75.685z M181.998,77.258c-1.513,0-2.873,0.479-4.081,1.437c-1.208,0.958-2.172,2.33-2.891,4.117
		c-0.72,1.787-1.08,3.681-1.08,5.682c0,4.172,1.72,6.258,5.16,6.258c1.549,0,2.924-0.473,4.126-1.418s2.16-2.336,2.873-4.172
		c0.714-1.836,1.07-3.852,1.07-6.048c0-1.878-0.445-3.324-1.335-4.337C184.95,77.764,183.669,77.258,181.998,77.258z"/>
	<path d="M192.337,86.773l0.33-1.647h8.362l-0.293,1.647H192.337z"/>
	<path d="M199.949,104.962c-0.586,0-1.208-0.116-1.867-0.348v-1.646c0.647,0.194,1.257,0.292,1.83,0.292
		c1.074,0,1.891-0.323,2.452-0.97c0.561-0.646,1.019-1.781,1.373-3.403l4.501-21.336h-3.751l0.256-1.227l3.751-0.256l0.64-2.928
		c0.427-2.05,1.138-3.538,2.132-4.465s2.382-1.391,4.163-1.391c0.89,0,1.903,0.189,3.038,0.567l-0.458,1.464
		c-1.061-0.33-1.958-0.494-2.69-0.494c-1.171,0-2.107,0.326-2.809,0.979c-0.702,0.653-1.217,1.742-1.546,3.267l-0.641,3.001h4.538
		l-0.292,1.482h-4.538l-4.611,21.775c-0.403,1.964-1.037,3.395-1.903,4.291S201.462,104.962,199.949,104.962z"/>
	<path d="M224.799,75.685c2.196,0,3.895,0.661,5.096,1.985c1.201,1.323,1.802,3.15,1.802,5.48c0,2.403-0.437,4.65-1.309,6.742
		c-0.872,2.093-2.064,3.688-3.577,4.785c-1.513,1.099-3.257,1.647-5.233,1.647c-2.245,0-3.95-0.668-5.114-2.004
		c-1.166-1.336-1.748-3.248-1.748-5.736c0-2.33,0.445-4.514,1.335-6.551c0.891-2.038,2.092-3.605,3.605-4.703
		S222.883,75.685,224.799,75.685z M224.652,77.258c-1.513,0-2.873,0.479-4.081,1.437c-1.208,0.958-2.172,2.33-2.891,4.117
		c-0.72,1.787-1.08,3.681-1.08,5.682c0,4.172,1.72,6.258,5.16,6.258c1.549,0,2.924-0.473,4.126-1.418s2.16-2.336,2.873-4.172
		c0.714-1.836,1.07-3.852,1.07-6.048c0-1.878-0.445-3.324-1.335-4.337C227.604,77.764,226.323,77.258,224.652,77.258z"/>
	<path d="M246.538,75.721c0.842,0,1.592,0.086,2.25,0.256l-0.385,1.702c-0.572-0.183-1.262-0.274-2.067-0.274
		c-1.147,0-2.239,0.391-3.275,1.171c-1.037,0.781-1.97,1.952-2.8,3.514s-1.439,3.251-1.83,5.068l-1.83,8.802h-1.793l4.227-19.891
		h1.464l-0.531,3.733h0.11c0.891-1.147,1.641-1.974,2.251-2.479c0.61-0.507,1.259-0.9,1.949-1.181
		C244.967,75.861,245.72,75.721,246.538,75.721z"/>
	<path d="M260.262,95.959l2.689-12.333c0.305-1.525,0.457-2.514,0.457-2.965c0-2.22-0.939-3.33-2.817-3.33
		c-1.293,0-2.514,0.412-3.66,1.235s-2.116,1.973-2.909,3.449c-0.793,1.476-1.403,3.227-1.83,5.252l-1.83,8.691h-1.793l4.228-19.891
		h1.464l-0.604,3.843h0.11c0.976-1.379,2.083-2.415,3.321-3.11c1.237-0.696,2.534-1.044,3.888-1.044
		c1.293,0,2.288,0.409,2.983,1.227s1.061,2.007,1.098,3.568h0.109c0.939-1.574,2.043-2.767,3.312-3.577
		c1.269-0.812,2.622-1.218,4.062-1.218c1.427,0,2.54,0.376,3.339,1.126s1.199,1.827,1.199,3.229c0,0.354-0.016,0.698-0.046,1.034
		c-0.031,0.335-0.149,1.064-0.357,2.187l-2.781,12.626h-1.83l2.727-12.443c0.305-1.464,0.458-2.537,0.458-3.221
		c0-0.938-0.263-1.668-0.787-2.187s-1.251-0.777-2.178-0.777c-1.915,0-3.607,0.839-5.077,2.516
		c-1.471,1.678-2.498,3.889-3.084,6.634l-1.994,9.479H260.262z"/>
	<path d="M291.277,75.757c2.83,0,4.532,1.336,5.105,4.008h0.11l1.079-3.696h1.464l-4.19,19.891h-1.5l0.823-5.014h-0.11
		c-1.024,1.732-2.165,3.062-3.422,3.989c-1.256,0.927-2.702,1.391-4.336,1.391c-3.429,0-5.143-2.281-5.143-6.844
		c0-2.403,0.458-4.696,1.373-6.881c0.914-2.184,2.138-3.87,3.669-5.06C287.73,76.352,289.423,75.757,291.277,75.757z
		 M286.722,94.678c1.085,0,2.168-0.378,3.248-1.134c1.079-0.757,2.049-1.77,2.909-3.038c0.859-1.269,1.516-2.672,1.967-4.209
		s0.677-2.836,0.677-3.897c0-0.963-0.158-1.826-0.476-2.589s-0.786-1.366-1.409-1.812c-0.622-0.445-1.396-0.668-2.323-0.668
		c-1.513,0-2.88,0.5-4.1,1.5c-1.22,1.001-2.22,2.498-3.001,4.493c-0.78,1.994-1.171,3.979-1.171,5.956
		c0,1.854,0.305,3.218,0.915,4.09S285.489,94.678,286.722,94.678z"/>
	<path d="M303.135,95.959h-1.72l6.111-28.473h1.721L303.135,95.959z"/>
	<path d="M327.033,96.325c-2.11,0-3.758-0.668-4.94-2.004c-1.184-1.336-1.775-3.199-1.775-5.59c0-2.208,0.434-4.325,1.3-6.35
		c0.865-2.025,2.059-3.636,3.577-4.831s3.193-1.794,5.022-1.794c1.391,0,2.501,0.373,3.331,1.116
		c0.829,0.745,1.244,1.757,1.244,3.038c0,2.208-0.997,3.892-2.992,5.051c-1.994,1.159-4.956,1.738-8.884,1.738h-0.604
		c-0.073,0.537-0.11,1.134-0.11,1.793c0,2.013,0.451,3.547,1.354,4.603c0.902,1.055,2.202,1.582,3.897,1.582
		c1.61,0,3.294-0.445,5.051-1.336v1.721C330.797,95.904,328.973,96.325,327.033,96.325z M329.998,77.331
		c-1.599,0-3.084,0.704-4.456,2.113s-2.364,3.291-2.974,5.646h0.896c6.307,0,9.461-1.647,9.461-4.94
		c0-0.817-0.266-1.492-0.796-2.022C331.599,77.597,330.888,77.331,329.998,77.331z"/>
	<path d="M348.351,95.959h-1.793l4.228-19.891h1.756L348.351,95.959z M351.571,70.963c0-0.671,0.135-1.208,0.402-1.61
		c0.269-0.402,0.635-0.604,1.099-0.604c0.695,0,1.043,0.439,1.043,1.317c0,0.695-0.135,1.244-0.402,1.646
		c-0.269,0.403-0.616,0.604-1.044,0.604c-0.354,0-0.625-0.119-0.813-0.357C351.666,71.723,351.571,71.391,351.571,70.963z"/>
	<path d="M367.839,95.959l2.727-12.663c0.256-1.122,0.384-2.073,0.384-2.854c0-0.976-0.266-1.738-0.796-2.287
		s-1.352-0.823-2.461-0.823c-1.366,0-2.65,0.409-3.853,1.226c-1.201,0.817-2.214,1.962-3.037,3.432s-1.455,3.218-1.894,5.242
		l-1.867,8.729h-1.793l4.228-19.891h1.5l-0.677,4.044h0.109c2.001-2.903,4.538-4.355,7.612-4.355c1.586,0,2.775,0.391,3.568,1.172
		c0.793,0.78,1.189,1.902,1.189,3.366c0,0.854-0.146,1.965-0.439,3.331l-2.708,12.333H367.839z"/>
	<path d="M372.377,104.962c-0.585,0-1.207-0.116-1.866-0.348v-1.646c0.646,0.194,1.257,0.292,1.83,0.292
		c1.073,0,1.891-0.323,2.452-0.97c0.561-0.646,1.019-1.781,1.372-3.403l4.502-21.336h-3.752l0.257-1.227l3.751-0.256l0.641-2.928
		c0.427-2.05,1.137-3.538,2.132-4.465c0.994-0.927,2.382-1.391,4.163-1.391c0.89,0,1.902,0.189,3.037,0.567l-0.457,1.464
		c-1.062-0.33-1.958-0.494-2.69-0.494c-1.171,0-2.107,0.326-2.809,0.979c-0.702,0.653-1.217,1.742-1.546,3.267l-0.641,3.001h4.538
		l-0.293,1.482h-4.538l-4.611,21.775c-0.402,1.964-1.037,3.395-1.903,4.291S373.89,104.962,372.377,104.962z"/>
	<path d="M397.227,75.685c2.195,0,3.895,0.661,5.096,1.985c1.202,1.323,1.803,3.15,1.803,5.48c0,2.403-0.437,4.65-1.309,6.742
		c-0.872,2.093-2.064,3.688-3.577,4.785c-1.513,1.099-3.257,1.647-5.233,1.647c-2.245,0-3.949-0.668-5.114-2.004
		s-1.748-3.248-1.748-5.736c0-2.33,0.445-4.514,1.336-6.551c0.891-2.038,2.092-3.605,3.605-4.703
		C393.597,76.233,395.312,75.685,397.227,75.685z M397.08,77.258c-1.513,0-2.873,0.479-4.081,1.437
		c-1.207,0.958-2.171,2.33-2.891,4.117s-1.08,3.681-1.08,5.682c0,4.172,1.721,6.258,5.16,6.258c1.55,0,2.925-0.473,4.127-1.418
		c1.201-0.945,2.159-2.336,2.873-4.172c0.713-1.836,1.07-3.852,1.07-6.048c0-1.878-0.445-3.324-1.336-4.337
		S398.751,77.258,397.08,77.258z"/>
	<path d="M418.966,75.721c0.842,0,1.592,0.086,2.251,0.256l-0.385,1.702c-0.573-0.183-1.263-0.274-2.067-0.274
		c-1.146,0-2.239,0.391-3.275,1.171c-1.037,0.781-1.971,1.952-2.8,3.514c-0.83,1.562-1.439,3.251-1.83,5.068l-1.83,8.802h-1.793
		l4.228-19.891h1.464l-0.531,3.733h0.11c0.89-1.147,1.641-1.974,2.25-2.479c0.61-0.507,1.26-0.9,1.949-1.181
		S418.148,75.721,418.966,75.721z"/>
	<path d="M432.689,95.959l2.689-12.333c0.305-1.525,0.457-2.514,0.457-2.965c0-2.22-0.939-3.33-2.817-3.33
		c-1.293,0-2.514,0.412-3.66,1.235s-2.116,1.973-2.909,3.449c-0.793,1.476-1.403,3.227-1.83,5.252l-1.83,8.691h-1.793l4.228-19.891
		h1.464l-0.604,3.843h0.11c0.976-1.379,2.083-2.415,3.321-3.11c1.237-0.696,2.534-1.044,3.888-1.044
		c1.293,0,2.288,0.409,2.983,1.227s1.061,2.007,1.098,3.568h0.109c0.939-1.574,2.043-2.767,3.312-3.577
		c1.269-0.812,2.622-1.218,4.062-1.218c1.427,0,2.54,0.376,3.339,1.126s1.199,1.827,1.199,3.229c0,0.354-0.016,0.698-0.046,1.034
		c-0.031,0.335-0.149,1.064-0.357,2.187l-2.781,12.626h-1.83l2.727-12.443c0.305-1.464,0.458-2.537,0.458-3.221
		c0-0.938-0.263-1.668-0.787-2.187s-1.251-0.777-2.178-0.777c-1.915,0-3.607,0.839-5.077,2.516
		c-1.471,1.678-2.498,3.889-3.084,6.634l-1.994,9.479H432.689z"/>
	<path d="M463.705,75.757c2.83,0,4.532,1.336,5.105,4.008h0.11L470,76.068h1.464l-4.19,19.891h-1.5l0.823-5.014h-0.11
		c-1.024,1.732-2.165,3.062-3.422,3.989c-1.256,0.927-2.702,1.391-4.336,1.391c-3.429,0-5.143-2.281-5.143-6.844
		c0-2.403,0.458-4.696,1.373-6.881c0.914-2.184,2.138-3.87,3.669-5.06C460.158,76.352,461.851,75.757,463.705,75.757z
		 M459.149,94.678c1.085,0,2.168-0.378,3.248-1.134c1.079-0.757,2.049-1.77,2.909-3.038c0.859-1.269,1.516-2.672,1.967-4.209
		s0.677-2.836,0.677-3.897c0-0.963-0.158-1.826-0.476-2.589s-0.786-1.366-1.409-1.812c-0.622-0.445-1.396-0.668-2.323-0.668
		c-1.513,0-2.88,0.5-4.1,1.5c-1.22,1.001-2.22,2.498-3.001,4.493c-0.78,1.994-1.171,3.979-1.171,5.956
		c0,1.854,0.305,3.218,0.915,4.09S457.917,94.678,459.149,94.678z"/>
	<path d="M475.562,95.959h-1.72l6.111-28.473h1.721L475.562,95.959z"/>
</g>
</svg>
